<?xml version="1.0" encoding="UTF-8" standalone="no"?>
<!-- Created with Inkscape (http://www.inkscape.org/) -->

<svg
   xmlns:dc="http://purl.org/dc/elements/1.1/"
   xmlns:cc="http://creativecommons.org/ns#"
   xmlns:rdf="http://www.w3.org/1999/02/22-rdf-syntax-ns#"
   xmlns:svg="http://www.w3.org/2000/svg"
   xmlns="http://www.w3.org/2000/svg"
   xmlns:sodipodi="http://sodipodi.sourceforge.net/DTD/sodipodi-0.dtd"
   xmlns:inkscape="http://www.inkscape.org/namespaces/inkscape"
   id="svg3494"
   version="1.1"
   inkscape:version="0.91 r13725"
   width="744"
   height="1052.4"
   viewBox="0 0 744 1052.4"
   sodipodi:docname="VillainSuccess.svg">
  <metadata
     id="metadata3500">
    <rdf:RDF>
      <cc:Work
         rdf:about="">
        <dc:format>image/svg+xml</dc:format>
        <dc:type
           rdf:resource="http://purl.org/dc/dcmitype/StillImage" />
        <dc:title></dc:title>
      </cc:Work>
    </rdf:RDF>
  </metadata>
  <defs
     id="defs3498" />
  <sodipodi:namedview
     pagecolor="#ffffff"
     bordercolor="#666666"
     borderopacity="1"
     objecttolerance="10"
     gridtolerance="10"
     guidetolerance="10"
     inkscape:pageopacity="0"
     inkscape:pageshadow="2"
     inkscape:window-width="1065"
     inkscape:window-height="688"
     id="namedview3496"
     showgrid="false"
     inkscape:zoom="1.7939946"
     inkscape:cx="353.96953"
     inkscape:cy="666.70753"
     inkscape:window-x="0"
     inkscape:window-y="0"
     inkscape:window-maximized="0"
     inkscape:current-layer="svg3494" />
  <path
     style="fill:#fff8e5;fill-opacity:1;fill-rule:evenodd;stroke:#000000;stroke-width:3;stroke-linecap:butt;stroke-linejoin:miter;stroke-miterlimit:4;stroke-dasharray:none;stroke-opacity:1"
     d="m 324.38719,764.66898 25.22574,-83.56024 12.61287,4.72982 -26.01404,83.9544 z"
     id="path4671"
     inkscape:connector-curvature="0"
     sodipodi:nodetypes="ccccc" />
  <path
     style="fill:#fff8e5;fill-opacity:1;fill-rule:evenodd;stroke:#000000;stroke-width:3;stroke-linecap:butt;stroke-linejoin:miter;stroke-miterlimit:4;stroke-dasharray:none;stroke-opacity:1"
     d="m 282.37866,369.23979 c -32.13949,91.82308 73.7386,12.6266 85.51542,27.63988 8.86446,10.58674 16.04528,22.0735 22.85402,34.00233 l -8.85971,10.95993 23.51867,2.88852 4.58877,-26.50574 -8.09942,3.18123 -18.95212,-22.85403 c 0,0 -5.37707,-9.49246 -5.57415,-18.95211 -0.77848,-17.91146 37.68128,-41.06282 42.36356,-68.00467 3.45699,10.2031 4.31574,9.58166 11.54245,5.96831 0.77918,-12.28313 -4.32837,-22.64768 2.39293,-31.60941 7.78507,0.60718 11.48103,-4.1157 15.05021,-9.47606 9.5704,-24.37944 -2.089,-34.01657 -22.29661,-25.08369 0.68854,-9.92892 -0.44586,-19.80163 -1.67225,-30.65784 l 9.47606,-1.11483 -2.22966,-23.41144 -28.98559,-13.37796 -51.28221,0 -43.47839,8.36123 -20.06695,17.83728 -3.34449,13.93539 13.37797,-3.90191 2.78707,11.70572 -3.9019,43.47839 -3.90191,18.3947 c -33.70772,12.11362 -70.23073,46.21742 -7.2464,29.54301 -3.03632,5.6807 -5.53691,6.39093 -11.4072,7.80382 -16.14316,11.88232 3.292,9.90729 11.4072,9.47606 l -5.57415,15.05021 c -16.77052,-1.52914 -4.12206,13.82344 1.99878,14.72368 z"
     id="path3510"
     inkscape:connector-curvature="0"
     sodipodi:nodetypes="ccccccccccccccccccccccccccccccc" />
  <path
     style="fill:#dfdfdf;fill-opacity:1;fill-rule:evenodd;stroke:#000000;stroke-width:3;stroke-linecap:round;stroke-linejoin:round;stroke-miterlimit:4;stroke-dasharray:none;stroke-opacity:1"
     d="m 427.19327,246.03242 -19.30442,-18.59015 -58.9465,7.03518 -51.3575,-14.52669 c 0,0 -41.38597,18.52514 -46.50995,26.80234 -4.84524,-7.98601 26.72659,-48.69191 42.96258,-50.45147 -13.01407,-12.95851 -52.27351,7.53716 -58.72867,15.37193 -2.03034,-32.88424 34.67472,-47.49541 66.61171,-43.35673 -12.2706,-13.11067 -17.52883,-15.50038 -32.32047,-18.52515 -13.84361,-1.05802 -24.50291,3.13036 -34.29124,7.88304 0,0 -16.759,12.73402 -13.79532,2.75907 12.98534,-38.75242 83.23386,-39.32819 94.20235,-20.49591 C 289.994,88.067825 251.63843,89.224167 295.61409,89.880557 c 28.79955,3.150407 45.43017,19.686633 59.51697,39.021063 13.14149,-19.02412 21.75131,-39.965476 53.21053,-51.239779 15.15371,-5.25115 35.75143,-9.855059 46.50995,-1.576608 -28.50396,7.984087 -40.22518,29.426417 -52.81638,49.663167 16.55594,-10.59701 58.75817,-43.002439 81.36681,-4.77764 -28.6182,0.81715 -37.03262,13.39866 -51.8054,20.14957 23.08868,-4.47104 64.71265,-1.77225 72.12983,23.64913 -39.99243,-4.29545 -37.14441,-1.72404 -51.85321,2.0524 45.72164,-1.77369 60.27835,30.83231 50.27661,40.91018 -8.05198,-10.04136 -16.84412,-13.42127 -25.61989,-16.94854 -9.58377,-1.03654 -19.31667,-2.37134 -26.01404,2.36491 21.85875,2.51094 25.45253,18.02494 28.77311,28.37895 1.89278,7.35751 2.64069,10.77349 1.18245,18.131 -6.61066,31.26916 3.72404,-13.27684 -44.93334,-19.7076 z"
     id="path3512"
     inkscape:connector-curvature="0"
     sodipodi:nodetypes="cccccccccccccccccccccccccccc" />
  <path
     style="fill:#ffffff;fill-rule:evenodd;stroke:#000000;stroke-width:3;stroke-linecap:butt;stroke-linejoin:miter;stroke-opacity:1;fill-opacity:1;stroke-miterlimit:4;stroke-dasharray:none"
     d="m 309.36547,227.98284 c 20.02644,2.23481 21.79253,16.86661 22.29661,20.62437 2.46372,18.16652 -18.40501,30.64176 -21.7392,29.68236 -39.01291,-6.83348 -22.43072,-52.07248 -0.55741,-50.30673 z"
     id="path3516"
     inkscape:connector-curvature="0"
     sodipodi:nodetypes="cccc" />
  <path
     style="fill:#ffffff;fill-opacity:1;fill-rule:evenodd;stroke:#000000;stroke-width:3;stroke-linecap:butt;stroke-linejoin:miter;stroke-miterlimit:4;stroke-dasharray:none;stroke-opacity:1"
     d="m 373.46823,237.4589 c -25.43567,2.39339 -33.24069,32.68582 -17.83729,45.70805 7.16681,4.50199 23.77626,5.86268 35.67458,-13.37796 1.63802,-2.59797 7.03275,-29.16206 -17.83729,-32.33009 z"
     id="path3518"
     inkscape:connector-curvature="0"
     sodipodi:nodetypes="cccc" />
  <path
     style="fill:none;fill-rule:evenodd;stroke:#000000;stroke-width:3;stroke-linecap:round;stroke-linejoin:miter;stroke-opacity:1;fill-opacity:1;stroke-miterlimit:4;stroke-dasharray:none"
     d="m 341.41685,246.37755 c -10.32181,14.29347 -18.58172,27.41202 -33.44492,38.18294 -10.5382,5.40845 -11.68725,6.67975 -15.60762,8.77929 l 0,0"
     id="path3520"
     inkscape:connector-curvature="0"
     sodipodi:nodetypes="cccc" />
  <path
     style="fill:none;fill-opacity:1;fill-rule:evenodd;stroke:#000000;stroke-width:3;stroke-linecap:round;stroke-linejoin:miter;stroke-miterlimit:4;stroke-dasharray:none;stroke-opacity:1"
     d="m 286.09339,321.90731 c 11.33411,-2.55546 22.66822,-6.64965 34.00233,-11.42701 11.5757,-5.7825 21.6824,-12.19457 30.65784,-19.09147 5.46403,-6.26231 2.46939,-8.29529 0.83612,-11.00895 -8.81659,-10.9393 -12.0122,3.34574 -21.73919,6.82833"
     id="path3522"
     inkscape:connector-curvature="0"
     sodipodi:nodetypes="ccccc" />
  <path
     style="fill:#ffffff;fill-opacity:1;fill-rule:evenodd;stroke:#000000;stroke-width:3;stroke-linecap:butt;stroke-linejoin:miter;stroke-miterlimit:4;stroke-dasharray:none;stroke-opacity:1"
     d="m 283.72437,339.32654 c 19.78493,-3.04825 47.85007,1.06778 64.38146,-7.66446 15.9683,-12.53958 10.11898,-29.92756 22.57532,-44.87193 5.69695,-3.33712 13.21515,-6.0437 16.02569,0 2.41229,4.69264 4.39463,10.92213 0.13936,17.83729 -5.12285,9.23877 -2.68845,34.41556 -20.20631,43.47839 -21.53862,12.74319 -52.80664,18.33662 -86.39936,6.54963 z"
     id="path3524"
     inkscape:connector-curvature="0"
     sodipodi:nodetypes="cccccccc" />
  <path
     style="fill:none;fill-rule:evenodd;stroke:#000000;stroke-width:3;stroke-linecap:round;stroke-linejoin:miter;stroke-miterlimit:100;stroke-dasharray:none;stroke-opacity:1"
     d="m 419.772,311.39405 c -2.97238,-7.82277 -4.11397,-16.48049 -3.94152,-23.25498 -1.18246,3.40499 -2.36491,5.87154 -3.54737,10.24795"
     id="path4346"
     inkscape:connector-curvature="0"
     sodipodi:nodetypes="ccc" />
  <path
     style="fill:none;fill-rule:evenodd;stroke:#000000;stroke-width:3;stroke-linecap:butt;stroke-linejoin:miter;stroke-miterlimit:4;stroke-dasharray:none;stroke-opacity:1"
     d="m 302.82427,339.22379 -0.11544,21.43927"
     id="path4348"
     inkscape:connector-curvature="0"
     sodipodi:nodetypes="cc" />
  <path
     style="fill:none;fill-rule:evenodd;stroke:#000000;stroke-width:3;stroke-linecap:butt;stroke-linejoin:miter;stroke-miterlimit:4;stroke-dasharray:none;stroke-opacity:1"
     d="m 339.05145,334.86831 c 6.70059,26.01404 6.14318,22.22758 6.14318,22.22758"
     id="path4350"
     inkscape:connector-curvature="0"
     sodipodi:nodetypes="cc" />
  <path
     style="fill:none;fill-rule:evenodd;stroke:#000000;stroke-width:3;stroke-linecap:butt;stroke-linejoin:miter;stroke-miterlimit:4;stroke-dasharray:none;stroke-opacity:1"
     d="m 351.93483,327.63832 14.40056,19.72741"
     id="path4352"
     inkscape:connector-curvature="0"
     sodipodi:nodetypes="cc" />
  <path
     style="fill:none;fill-rule:evenodd;stroke:#000000;stroke-width:3;stroke-linecap:butt;stroke-linejoin:miter;stroke-miterlimit:4;stroke-dasharray:none;stroke-opacity:1"
     d="m 360.17581,312.95905 20.34085,18.36189"
     id="path4354"
     inkscape:connector-curvature="0"
     sodipodi:nodetypes="cc" />
  <path
     style="fill:none;fill-rule:evenodd;stroke:#000000;stroke-width:3;stroke-linecap:butt;stroke-linejoin:miter;stroke-miterlimit:4;stroke-dasharray:none;stroke-opacity:1"
     d="m 368.13808,291.45555 c 6.795,6.08163 16.73606,14.38345 17.76486,16.14043"
     id="path4356"
     inkscape:connector-curvature="0"
     sodipodi:nodetypes="cc" />
  <path
     style="fill:none;fill-rule:evenodd;stroke:#000000;stroke-width:3;stroke-linecap:round;stroke-linejoin:miter;stroke-miterlimit:4;stroke-dasharray:none;stroke-opacity:1"
     d="m 422.13692,288.53322 c 12.11931,-7.15879 2.88233,-16.71095 5.51813,-24.43743 8.30613,-12.21128 21.9146,-5.22418 17.34269,6.70059"
     id="path4362"
     inkscape:connector-curvature="0"
     sodipodi:nodetypes="ccc" />
  <path
     style="fill:none;fill-rule:evenodd;stroke:#000000;stroke-width:3;stroke-linecap:round;stroke-linejoin:miter;stroke-miterlimit:4;stroke-dasharray:none;stroke-opacity:1"
     d="m 281.81876,368.5461 c 6.54965,4.6516 12.22672,3.84214 17.73685,4.33567"
     id="path4366"
     inkscape:connector-curvature="0"
     sodipodi:nodetypes="cc" />
  <circle
     style="fill:#000000;fill-opacity:1;stroke:none;stroke-width:3;stroke-linecap:round;stroke-linejoin:round;stroke-miterlimit:4;stroke-dasharray:none;stroke-opacity:1"
     id="path4400"
     cx="303.8913"
     cy="-247.93556"
     r="5.1239777"
     transform="scale(1,-1)" />
  <path
     style="fill:none;fill-opacity:1;fill-rule:evenodd;stroke:#000000;stroke-width:3;stroke-linecap:butt;stroke-linejoin:miter;stroke-miterlimit:4;stroke-dasharray:none;stroke-opacity:1"
     d="m 321.62861,337.23623 1.11483,23.13274"
     id="path4502"
     inkscape:connector-curvature="0"
     sodipodi:nodetypes="cc" />
  <path
     style="fill:#fff8e5;fill-rule:evenodd;stroke:#000000;stroke-width:3;stroke-linecap:butt;stroke-linejoin:miter;stroke-opacity:1;fill-opacity:1;stroke-miterlimit:4;stroke-dasharray:none"
     d="m 389.02814,685.83856 9.8538,87.10761 13.00702,-1.97076 -10.24795,-87.50177 z"
     id="path4673"
     inkscape:connector-curvature="0" />
  <path
     style="fill:#ffffff;fill-opacity:1;fill-rule:evenodd;stroke:#000000;stroke-width:3;stroke-linecap:butt;stroke-linejoin:miter;stroke-miterlimit:4;stroke-dasharray:none;stroke-opacity:1"
     d="m 383.31294,419.49026 c -2.61881,5.92224 -5.91146,11.54711 -3.84299,16.94854 -9.62414,-0.27509 -12.57867,7.48489 -16.45585,15.56901 -8.74529,44.96619 -7.88304,89.93238 -11.82456,134.89857 -9.39551,33.94596 -13.38804,67.66606 -30.34972,99.72048 14.48879,5.56538 25.55748,35.22062 94.59651,17.34269 l -1.57661,-3.54737 c 4.20827,-0.17785 15.46097,-1.73136 20.10176,-7.09473 -5.43913,-17.16169 -13.76238,-34.00293 -14.97778,-51.63393 -4.01066,-65.70169 11.56179,-113.77858 17.34269,-170.66787 l 0.78831,-14.58363 c 35.25458,1.87391 64.95961,-31.98024 77.64796,-53.99884 5.14034,-9.93562 10.91863,-23.06098 16.55439,-35.47368 l -13.20409,0.39414 c -10.29947,38.17727 -53.11343,69.00674 -69.962,70.94739 -15.71229,0.46628 -21.13293,-1.56664 -31.10011,-9.97915 7.5212,-15.81951 -11.55729,-24.09364 -22.52423,-17.07969 -0.75926,0.48559 3.77539,6.3422 4.4076,5.88545 6.88785,-4.97622 17.67677,4.37942 3.39655,19.07575 -20.72829,8.61427 -16.90108,-3.32091 -14.01054,-9.61829 z"
     id="path4506"
     inkscape:connector-curvature="0"
     sodipodi:nodetypes="ccccccccccccccccssccc" />
  <path
     style="fill:#c7c7c7;fill-opacity:1;fill-rule:evenodd;stroke:#000000;stroke-width:0;stroke-linecap:butt;stroke-linejoin:miter;stroke-miterlimit:4;stroke-dasharray:none;stroke-opacity:1"
     d="m 426.9801,242.75435 6.68898,-24.52627 c 11.98443,-4.46222 25.6411,6.74508 37.62553,17.55858 -10.07277,-15.30969 -17.70819,-31.17811 -52.11833,-32.8875 8.14813,-9.80813 17.80438,-11.53913 25.85218,-16.71426 -12.72765,-4.68157 -24.27283,-3.87841 -37.00048,1.66404 4.4301,-10.36929 8.09999,-15.5579 16.59541,-22.28841 -18.48761,2.51181 -29.88047,5.09096 -48.36808,20.05875 3.46346,-11.86319 6.30213,-27.05824 13.27072,-32.61219 -13.74958,4.51251 -22.37517,14.2754 -36.12475,29.54641 -0.61436,-14.22698 -27.86568,-30.8532 -30.3101,-29.53821 12.96809,23.6788 5.8171,35.53466 1.50277,34.67179 -4.0112,-7.95987 -10.03266,-10.89411 -16.10003,-13.71354 8.86424,19.18325 3.18694,32.30752 0.0354,46.4842 l 20.62437,6.13156 20.62436,5.01674 58.80732,-6.96769 z"
     id="path4710"
     inkscape:connector-curvature="0"
     sodipodi:nodetypes="cccccccccccccccccc" />
  <path
     style="fill:#eeeeee;fill-opacity:1;fill-rule:evenodd;stroke:#000000;stroke-width:3;stroke-linecap:butt;stroke-linejoin:miter;stroke-miterlimit:4;stroke-dasharray:none;stroke-opacity:1"
     d="m 286.22206,225.98668 49.66317,26.4082 0.78831,-12.21872 -42.56844,-32.71462 z"
     id="path4508"
     inkscape:connector-curvature="0"
     sodipodi:nodetypes="ccccc" />
  <path
     style="fill:#eeeeee;fill-opacity:1;fill-rule:evenodd;stroke:#000000;stroke-width:3;stroke-linecap:butt;stroke-linejoin:miter;stroke-miterlimit:4;stroke-dasharray:none;stroke-opacity:1"
     d="m 342.06801,245.88557 4.33568,9.06549 55.9696,-16.55439 -5.51813,-23.64912 z"
     id="path4510"
     inkscape:connector-curvature="0"
     sodipodi:nodetypes="ccccc" />
  <path
     style="fill:none;fill-rule:evenodd;stroke:#000000;stroke-width:3;stroke-linecap:butt;stroke-linejoin:miter;stroke-opacity:1;stroke-miterlimit:4;stroke-dasharray:none"
     d="m 362.59863,458.47406 c 46.50483,5.23754 67.6737,-40.06161 64.38147,15.05021 -8.01088,52.60672 -17.83934,104.60758 -21.7392,158.58465 1.26739,41.8002 3.57834,59.3007 7.80381,68.56207"
     id="path4512"
     inkscape:connector-curvature="0"
     sodipodi:nodetypes="cccc" />
  <circle
     style="fill:#000000;fill-opacity:1;stroke:#000000;stroke-width:3;stroke-linecap:round;stroke-linejoin:round;stroke-miterlimit:4;stroke-dasharray:none;stroke-opacity:1"
     id="path4514"
     cx="416.1105"
     cy="-457.08051"
     r="2.5083687"
     transform="scale(1,-1)" />
  <circle
     style="fill:#000000;fill-opacity:1;stroke:#000000;stroke-width:3;stroke-linecap:round;stroke-linejoin:round;stroke-miterlimit:4;stroke-dasharray:none;stroke-opacity:1"
     id="path4595"
     cx="414.71695"
     cy="479.65582"
     r="2.5083687" />
  <ellipse
     style="fill:#000000;fill-opacity:1;stroke:#000000;stroke-width:3.59363222;stroke-linecap:round;stroke-linejoin:round;stroke-miterlimit:4;stroke-dasharray:none;stroke-opacity:1"
     id="path4599"
     cx="410.43826"
     cy="502.92792"
     rx="2.7689679"
     ry="2.9083219" />
  <ellipse
     style="fill:#000000;fill-opacity:1;stroke:#000000;stroke-width:3.67734075;stroke-linecap:round;stroke-linejoin:round;stroke-miterlimit:4;stroke-dasharray:none;stroke-opacity:1"
     id="path4603"
     cx="406.30667"
     cy="528.29034"
     rx="3.0058215"
     ry="3.1451752" />
  <circle
     style="fill:#000000;fill-opacity:1;stroke:#000000;stroke-width:3;stroke-linecap:round;stroke-linejoin:round;stroke-miterlimit:4;stroke-dasharray:none;stroke-opacity:1"
     id="path4605"
     cx="403.10153"
     cy="552.21014"
     r="2.9264302" />
  <circle
     style="fill:#000000;fill-opacity:1;stroke:#000000;stroke-width:3;stroke-linecap:round;stroke-linejoin:round;stroke-miterlimit:4;stroke-dasharray:none;stroke-opacity:1"
     id="path4607"
     cx="398.92093"
     cy="575.94934"
     r="2.9264302" />
  <circle
     style="fill:#000000;fill-opacity:1;stroke:#000000;stroke-width:3.39006662;stroke-linecap:round;stroke-linejoin:round;stroke-miterlimit:4;stroke-dasharray:none;stroke-opacity:1"
     id="path4609"
     cx="396.55194"
     cy="602.28717"
     r="3.1494582" />
  <path
     style="fill:none;fill-rule:evenodd;stroke:#000000;stroke-width:1px;stroke-linecap:butt;stroke-linejoin:miter;stroke-opacity:1"
     d="m 322.74344,681.44016 c 20.00981,17.95198 42.14525,33.31873 89.18644,18.39471 l -0.55741,-3.06579 c 7.1535,1.03897 14.30699,-3.22738 21.46049,-6.41027"
     id="path4611"
     inkscape:connector-curvature="0"
     sodipodi:nodetypes="cccc" />
  <path
     style="fill:#ffffff;fill-rule:evenodd;stroke:#000000;stroke-width:3;stroke-linecap:butt;stroke-linejoin:miter;stroke-opacity:1;stroke-miterlimit:4;stroke-dasharray:none;fill-opacity:1"
     d="m 363.15605,452.06378 c -63.18753,19.61012 -121.38109,-21.34135 -118.45075,-25.6411 -5.71035,-14.01432 -20.6855,0.51101 -7.24639,5.57415 43.76787,44.56062 94.76095,42.28899 122.35265,41.52744 z"
     id="path4613"
     inkscape:connector-curvature="0"
     sodipodi:nodetypes="ccccc" />
  <path
     style="fill:#000000;fill-rule:evenodd;stroke:#000000;stroke-width:1;stroke-linecap:butt;stroke-linejoin:miter;stroke-opacity:1;fill-opacity:1;stroke-miterlimit:4;stroke-dasharray:none"
     d="m 221.51349,461.17185 48.08656,-57.54621 -77.25382,-26.40819 c 20.71649,-33.23057 -9.3513,-44.59984 -20.89006,-28.37895 13.3253,-1.88629 13.51168,5.50195 9.0655,16.16023 -17.28887,-3.52506 -19.39769,-22.98917 -15.76609,-48.48071 -7.63378,15.98357 -14.17424,32.22954 3.94153,54.393 -16.18078,-10.31437 -17.66042,-31.17075 -16.16024,-50.84562 -6.99645,18.75155 -12.7768,40.21875 9.0655,57.94035 -11.12338,-4.9942 -20.09902,-17.237 -22.86083,-50.45147 -0.92646,10.78565 -13.56576,70.96813 48.87487,57.54621 z"
     id="path4623"
     inkscape:connector-curvature="0"
     sodipodi:nodetypes="cccccccccccc" />
  <path
     style="fill:#000000;fill-rule:evenodd;stroke:#000000;stroke-width:1px;stroke-linecap:butt;stroke-linejoin:miter;stroke-opacity:1;fill-opacity:1"
     d="m 488.35447,371.30517 83.1661,8.27719 -29.95556,-76.07136 c 27.60392,-5.05437 11.31491,-56.99651 3.94152,-64.24679 3.153,18.65616 4.63109,30.71069 1.57661,39.02106 -0.70324,-31.12288 -13.67822,-31.5779 -18.131,-40.20352 12.31105,23.85673 9.71215,31.1767 9.8538,40.99182 -10.80649,-30.12897 -17.17966,-28.80526 -24.04327,-34.29124 38.64605,55.1319 -17.39283,55.2379 3.54736,27.59066 -16.24555,-3.71333 -31.65513,25.76322 14.18948,32.71462 z"
     id="path4665"
     inkscape:connector-curvature="0"
     sodipodi:nodetypes="ccccccccccc" />
  <path
     style="fill:#ff4ffd;fill-rule:evenodd;stroke:#000000;stroke-width:2;stroke-linecap:butt;stroke-linejoin:miter;stroke-opacity:1;stroke-miterlimit:4;stroke-dasharray:none;fill-opacity:1"
     d="m 325.56965,764.27483 8.67134,-31.92632 12.61287,3.15321 -10.6421,36.262 z"
     id="path4675"
     inkscape:connector-curvature="0" />
  <path
     style="fill:#000000;fill-rule:evenodd;stroke:#000000;stroke-width:1px;stroke-linecap:butt;stroke-linejoin:miter;stroke-opacity:1;fill-opacity:1"
     d="m 322.02228,759.15085 -3.94152,21.28421 c -22.4784,1.574 -31.84666,6.06137 -35.47369,11.82457 29.99506,10.8816 37.12636,1.43985 49.26901,-3.54737 l -1.18245,4.72982 3.54736,0 8.2772,-29.95556 c -6.98679,-1.48056 -14.56207,-2.58445 -20.49591,-4.33567 z"
     id="path4667"
     inkscape:connector-curvature="0"
     sodipodi:nodetypes="cccccccc" />
  <path
     style="fill:#ff4ffd;fill-opacity:1;fill-rule:evenodd;stroke:#000000;stroke-width:2;stroke-linecap:butt;stroke-linejoin:miter;stroke-miterlimit:4;stroke-dasharray:none;stroke-opacity:1"
     d="m 398.88195,772.55202 -4.72983,-37.0503 13.79532,-1.57661 3.94152,37.83861 z"
     id="path4679"
     inkscape:connector-curvature="0"
     sodipodi:nodetypes="ccccc" />
  <path
     style="fill:#000000;fill-rule:evenodd;stroke:#000000;stroke-width:1px;stroke-linecap:butt;stroke-linejoin:miter;stroke-opacity:1;fill-opacity:1"
     d="m 394.15212,767.42804 3.54737,28.77311 3.94152,-0.78831 0,-6.70058 c 11.6823,10.57027 27.25249,18.90933 46.9041,7.88304 -1.6604,-5.12398 2.04234,-10.24795 -33.89708,-15.37193 l 0,-16.94854 z"
     id="path4669"
     inkscape:connector-curvature="0"
     sodipodi:nodetypes="cccccccc" />
  <path
     style="fill:#e1d5b3;fill-rule:evenodd;stroke:#000000;stroke-width:0;stroke-linecap:butt;stroke-linejoin:miter;stroke-opacity:1;stroke-miterlimit:4;stroke-dasharray:none;fill-opacity:1"
     d="m 359.72153,392.96372 c 9.25797,-1.13913 8.39995,0.10856 17.94312,13.2208 l 15.69916,25.03177 -4.72982,5.51813 c 3.33545,0.58065 7.57043,-0.188 13.00702,-2.75907 2.38719,-1.1379 3.29699,-5.23058 4.72982,-8.27719 l -8.27719,0.7883 c -18.72102,-21.84352 -25.4284,-50.18307 -49.26902,-44.53919 -25.44035,9.86026 -35.2323,24.44627 -60.30527,24.43744 -6.56762,17.49374 55.03182,-11.55924 71.20218,-13.42099 z"
     id="path4712"
     inkscape:connector-curvature="0"
     sodipodi:nodetypes="cccccccccc" />
  <path
     style="fill:#e1d5b3;fill-opacity:1;fill-rule:evenodd;stroke:#000000;stroke-width:0;stroke-linecap:butt;stroke-linejoin:miter;stroke-miterlimit:4;stroke-dasharray:none;stroke-opacity:1"
     d="m 311.77432,316.91217 -23.64912,5.91229 -5.12398,7.48889 -4.33567,1.18245 c 34.36893,0.91363 98.11545,-47.86085 33.10877,-14.58363 z"
     id="path4714"
     inkscape:connector-curvature="0"
     sodipodi:nodetypes="ccccc" />
  <path
     style="fill:#d8d8d8;fill-rule:evenodd;stroke:#000000;stroke-width:0;stroke-linecap:butt;stroke-linejoin:miter;stroke-opacity:1;stroke-miterlimit:4;stroke-dasharray:none;fill-opacity:1"
     d="m 351.97784,273.9496 c 12.61287,3.15322 24.17467,2.10214 34.68539,-3.15322 -5.7809,8.86012 -11.5618,10.54 -17.3427,12.21871 -6.20044,0.7541 -12.18476,-0.43699 -17.34269,-9.06549 z"
     id="path4716"
     inkscape:connector-curvature="0"
     sodipodi:nodetypes="cccc" />
  <path
     style="fill:#d8d8d8;fill-rule:evenodd;stroke:#ffffff;stroke-width:1px;stroke-linecap:butt;stroke-linejoin:miter;stroke-opacity:1;fill-opacity:1"
     d="m 289.70181,261.33673 c 10.41171,5.96367 21.39349,9.36205 33.89708,5.91228 l -12.61287,8.67135 c -9.73853,-2.83591 -17.8504,-7.54457 -21.28421,-14.58363 z"
     id="path4720"
     inkscape:connector-curvature="0"
     sodipodi:nodetypes="cccc" />
  <path
     style="fill:#e1d5b3;fill-rule:evenodd;stroke:#000000;stroke-width:0;stroke-linecap:butt;stroke-linejoin:miter;stroke-opacity:1;fill-opacity:1;stroke-miterlimit:4;stroke-dasharray:none"
     d="m 414.45095,298.18995 c 0.40977,4.82055 0.52707,9.78734 2.95614,13.59825 -7.39744,21.96521 -20.92265,33.07385 -32.9117,46.9041 10.49338,-19.40516 22.35598,-36.75649 29.95556,-60.50235 z"
     id="path4726"
     inkscape:connector-curvature="0"
     sodipodi:nodetypes="cccc" />
  <circle
     style="fill:#000000;fill-opacity:1;stroke:#ffffff;stroke-width:0;stroke-linecap:round;stroke-linejoin:round;stroke-miterlimit:4;stroke-dasharray:none;stroke-opacity:1"
     id="path4728"
     cx="364.09802"
     cy="254.1142"
     r="5.4195914" />
  <path
     style="fill:#e1d5b3;fill-rule:evenodd;stroke:#000000;stroke-width:0;stroke-linecap:butt;stroke-linejoin:miter;stroke-opacity:1;stroke-miterlimit:4;stroke-dasharray:none;fill-opacity:1"
     d="m 430.80826,276.31451 -1.37953,-10.24796 c 8.83886,-11.60796 14.23083,-4.09687 14.18948,1.77369 -6.9136,-1.8145 -7.97849,-0.70464 -9.85381,0 -2.23202,-0.0841 -2.13776,5.25984 -2.95614,8.47427 z"
     id="path4730"
     inkscape:connector-curvature="0"
     sodipodi:nodetypes="ccccc" />
  <path
     style="fill:#d8d8d8;fill-rule:evenodd;stroke:#000000;stroke-width:0;stroke-linecap:butt;stroke-linejoin:miter;stroke-opacity:1;fill-opacity:1;stroke-miterlimit:4;stroke-dasharray:none"
     d="m 408.34159,698.84558 c -5.99162,-29.55595 -7.66465,-60.83934 -3.15321,-94.59651 -4.96567,23.45878 -8.46297,47.28465 -17.3427,69.76492 -25.00317,9.71556 -35.01741,11.10393 -51.63392,16.16024 16.44802,12.17354 36.90975,19.44144 72.12983,8.67135 z"
     id="path4732"
     inkscape:connector-curvature="0"
     sodipodi:nodetypes="ccccc" />
  <path
     style="fill:#d8d8d8;fill-rule:evenodd;stroke:#000000;stroke-width:0;stroke-linecap:butt;stroke-linejoin:miter;stroke-opacity:1;fill-opacity:1;stroke-miterlimit:4;stroke-dasharray:none"
     d="m 413.85972,694.5099 c -10.14313,-39.89838 -3.06435,-87.82557 1.97076,-134.80002 1.9524,44.27642 -9.54469,88.55284 5.91228,132.82926 z"
     id="path4742"
     inkscape:connector-curvature="0"
     sodipodi:nodetypes="cccc" />
</svg>
