<?xml version="1.0" encoding="UTF-8" standalone="no"?>
<!-- Created with Inkscape (http://www.inkscape.org/) -->

<svg
   xmlns:dc="http://purl.org/dc/elements/1.1/"
   xmlns:cc="http://creativecommons.org/ns#"
   xmlns:rdf="http://www.w3.org/1999/02/22-rdf-syntax-ns#"
   xmlns:svg="http://www.w3.org/2000/svg"
   xmlns="http://www.w3.org/2000/svg"
   xmlns:sodipodi="http://sodipodi.sourceforge.net/DTD/sodipodi-0.dtd"
   xmlns:inkscape="http://www.inkscape.org/namespaces/inkscape"
   id="svg3494"
   version="1.1"
   inkscape:version="0.91 r13725"
   width="744"
   height="1052.4"
   viewBox="0 0 744 1052.4"
   sodipodi:docname="VillainFailSitting2.svg">
  <metadata
     id="metadata3500">
    <rdf:RDF>
      <cc:Work
         rdf:about="">
        <dc:format>image/svg+xml</dc:format>
        <dc:type
           rdf:resource="http://purl.org/dc/dcmitype/StillImage" />
        <dc:title></dc:title>
      </cc:Work>
    </rdf:RDF>
  </metadata>
  <defs
     id="defs3498" />
  <sodipodi:namedview
     pagecolor="#ffffff"
     bordercolor="#666666"
     borderopacity="1"
     objecttolerance="10"
     gridtolerance="10"
     guidetolerance="10"
     inkscape:pageopacity="0"
     inkscape:pageshadow="2"
     inkscape:window-width="1065"
     inkscape:window-height="688"
     id="namedview3496"
     showgrid="false"
     inkscape:zoom="5.0741831"
     inkscape:cx="282.46385"
     inkscape:cy="648.39018"
     inkscape:window-x="0"
     inkscape:window-y="0"
     inkscape:window-maximized="0"
     inkscape:current-layer="svg3494" />
  <ellipse
     style="fill:#8a8a8a;fill-opacity:1;stroke:#000000;stroke-width:0;stroke-linecap:round;stroke-linejoin:round;stroke-miterlimit:4;stroke-dasharray:none;stroke-opacity:1"
     id="path6865"
     cx="345.59747"
     cy="738.51062"
     rx="260.87033"
     ry="85.841949" />
  <g
     id="g4897"
     transform="matrix(0.65069697,-0.75933751,0.75933751,0.65069697,-384.21918,540.52455)"
     inkscape:transform-center-x="21.359706"
     inkscape:transform-center-y="36.187099">
    <path
       inkscape:connector-curvature="0"
       id="path4673"
       d="m 389.02814,685.83856 9.8538,87.10761 13.00702,-1.97076 -10.24795,-87.50177 z"
       style="fill:#fff8e5;fill-opacity:1;fill-rule:evenodd;stroke:#000000;stroke-width:3;stroke-linecap:butt;stroke-linejoin:miter;stroke-miterlimit:4;stroke-dasharray:none;stroke-opacity:1" />
    <path
       sodipodi:nodetypes="ccccc"
       inkscape:connector-curvature="0"
       id="path4679"
       d="m 398.88195,772.55202 -4.72983,-37.0503 13.79532,-1.57661 3.94152,37.83861 z"
       style="fill:#ff4ffd;fill-opacity:1;fill-rule:evenodd;stroke:#000000;stroke-width:2;stroke-linecap:butt;stroke-linejoin:miter;stroke-miterlimit:4;stroke-dasharray:none;stroke-opacity:1" />
    <path
       sodipodi:nodetypes="cccccccc"
       inkscape:connector-curvature="0"
       id="path4669"
       d="m 394.15212,767.42804 3.54737,28.77311 3.94152,-0.78831 0,-6.70058 c 11.6823,10.57027 27.25249,18.90933 46.9041,7.88304 -1.6604,-5.12398 2.04234,-10.24795 -33.89708,-15.37193 l 0,-16.94854 z"
       style="fill:#000000;fill-opacity:1;fill-rule:evenodd;stroke:#000000;stroke-width:1px;stroke-linecap:butt;stroke-linejoin:miter;stroke-opacity:1" />
  </g>
  <path
     style="fill:#fff8e5;fill-opacity:1;fill-rule:evenodd;stroke:#000000;stroke-width:3;stroke-linecap:butt;stroke-linejoin:miter;stroke-miterlimit:4;stroke-dasharray:none;stroke-opacity:1"
     d="m 266.99894,706.93285 82.87422,-27.39555 3.38063,13.03945 -83.64991,26.9771 z"
     id="path4671"
     inkscape:connector-curvature="0"
     sodipodi:nodetypes="ccccc" />
  <ellipse
     style="fill:#000000;fill-opacity:1;stroke:none;stroke-width:3;stroke-linecap:round;stroke-linejoin:round;stroke-miterlimit:4;stroke-dasharray:none;stroke-opacity:1"
     id="path4400"
     cx="303.8913"
     cy="-247.93556"
     transform="scale(1,-1)"
     r="5.1239777" />
  <path
     style="fill:#fff8e5;fill-opacity:1;fill-rule:evenodd;stroke:#000000;stroke-width:3;stroke-linecap:butt;stroke-linejoin:miter;stroke-miterlimit:4;stroke-dasharray:none;stroke-opacity:1"
     d="m 270.6242,435.65359 c 23.53922,94.39454 68.56714,-29.92255 86.6522,-23.83791 5.92595,1.78541 17.31372,-4.3452 21.44209,0.15803 9.61522,14.35392 15.6655,13.41001 2.32331,19.29789 l 3.72995,10.40589 14.95226,3.9302 11.59784,-9.28158 2.3227,-16.77227 -11.52735,4.74015 c -6.73435,-8.19069 -11.90176,-27.42452 -20.70069,-25.84544 0,0 -20.34729,1.52061 -25.70464,-6.27828 -10.48271,-14.54438 8.95647,-55.00741 -1.91873,-80.09759 8.49032,6.63088 8.867,5.64005 12.92416,-1.34716 -6.09119,-10.69485 -16.04979,-16.55465 -15.35093,-27.73499 6.84063,-3.76588 7.33749,-9.7424 7.37844,-16.18219 -5.38278,-25.63153 -20.4186,-27.28684 -32.40614,-8.72767 -4.87467,-8.67727 -11.24224,-16.30691 -18.22657,-24.70813 l 7.30883,-6.13348 -14.71478,-18.34508 -31.57174,4.72856 -42.86543,28.14997 -31.75275,30.85519 -6.98214,25.92491 4.85388,13.48409 9.04044,-10.60498 8.75517,8.25462 20.60478,38.48426 6.83576,17.51748 c -21.52594,28.62838 -33.33419,77.18314 10.15976,28.67192 0.58028,6.41505 -1.12003,8.38134 -5.25128,12.78468 -6.97116,18.79345 8.19003,6.47418 14.73659,1.65911 l 3.60212,15.63984 c -14.85741,7.92755 4.14248,13.81734 9.75289,11.20996 z"
     id="path3510"
     inkscape:connector-curvature="0"
     sodipodi:nodetypes="ccccccccccccccccccccccccccccccccc" />
  <path
     style="fill:#ffffff;fill-opacity:1;fill-rule:evenodd;stroke:#000000;stroke-width:3;stroke-linecap:butt;stroke-linejoin:miter;stroke-miterlimit:4;stroke-dasharray:none;stroke-opacity:1"
     d="m 383.31294,419.49026 c -2.61881,5.92224 -5.91146,11.54711 -3.84299,16.94854 -9.62414,-0.27509 -12.57867,7.48489 -16.45585,15.56901 -8.74529,44.96619 -7.88304,89.93238 -11.82456,134.89857 -9.39551,33.94596 -13.38804,67.66606 -30.34972,99.72048 14.48879,5.56538 25.55748,35.22062 94.59651,17.34269 l -1.57661,-3.54737 c 4.20827,-0.17785 15.46097,-1.73136 20.10176,-7.09473 -5.43913,-17.16169 -13.76238,-34.00293 -14.97778,-51.63393 -4.01066,-65.70169 11.56179,-113.77858 17.34269,-170.66787 l 0.78831,-14.58363 c 26.22417,22.19233 -87.89593,159.6316 -87.89593,159.6316 l 12.02165,5.12398 c 92.86306,-108.99897 127.9434,-178.40218 55.81043,-192.86572 7.5212,-15.81951 -11.55729,-24.09364 -22.52423,-17.07969 -0.75926,0.48559 3.77539,6.3422 4.4076,5.88545 6.88785,-4.97622 17.67677,4.37942 3.39655,19.07575 -20.72829,8.61427 -16.90108,-3.32091 -14.01054,-9.61829 z"
     id="path4506"
     inkscape:connector-curvature="0"
     sodipodi:nodetypes="ccccccccccccccssccc" />
  <path
     style="fill:none;fill-rule:evenodd;stroke:#000000;stroke-width:3;stroke-linecap:butt;stroke-linejoin:miter;stroke-opacity:1;stroke-miterlimit:4;stroke-dasharray:none"
     d="m 362.59863,458.47406 c 46.50483,5.23754 67.6737,-40.06161 64.38147,15.05021 -8.01088,52.60672 -17.83934,104.60758 -21.7392,158.58465 1.26739,41.8002 3.57834,59.3007 7.80381,68.56207"
     id="path4512"
     inkscape:connector-curvature="0"
     sodipodi:nodetypes="cccc" />
  <circle
     style="fill:#000000;fill-opacity:1;stroke:#000000;stroke-width:3;stroke-linecap:round;stroke-linejoin:round;stroke-miterlimit:4;stroke-dasharray:none;stroke-opacity:1"
     id="path4514"
     cx="416.1105"
     cy="-457.08051"
     r="2.5083687"
     transform="scale(1,-1)" />
  <circle
     style="fill:#000000;fill-opacity:1;stroke:#000000;stroke-width:3;stroke-linecap:round;stroke-linejoin:round;stroke-miterlimit:4;stroke-dasharray:none;stroke-opacity:1"
     id="path4595"
     cx="414.71695"
     cy="479.65582"
     r="2.5083687" />
  <ellipse
     style="fill:#000000;fill-opacity:1;stroke:#000000;stroke-width:3.59363222;stroke-linecap:round;stroke-linejoin:round;stroke-miterlimit:4;stroke-dasharray:none;stroke-opacity:1"
     id="path4599"
     cx="410.43826"
     cy="502.92792"
     rx="2.7689679"
     ry="2.9083219" />
  <ellipse
     style="fill:#000000;fill-opacity:1;stroke:#000000;stroke-width:3.67734075;stroke-linecap:round;stroke-linejoin:round;stroke-miterlimit:4;stroke-dasharray:none;stroke-opacity:1"
     id="path4603"
     cx="406.30667"
     cy="528.29034"
     rx="3.0058215"
     ry="3.1451752" />
  <circle
     style="fill:#000000;fill-opacity:1;stroke:#000000;stroke-width:3;stroke-linecap:round;stroke-linejoin:round;stroke-miterlimit:4;stroke-dasharray:none;stroke-opacity:1"
     id="path4605"
     cx="403.10153"
     cy="552.21014"
     r="2.9264302" />
  <circle
     style="fill:#000000;fill-opacity:1;stroke:#000000;stroke-width:3;stroke-linecap:round;stroke-linejoin:round;stroke-miterlimit:4;stroke-dasharray:none;stroke-opacity:1"
     id="path4607"
     cx="398.92093"
     cy="575.94934"
     r="2.9264302" />
  <circle
     style="fill:#000000;fill-opacity:1;stroke:#000000;stroke-width:3.39006662;stroke-linecap:round;stroke-linejoin:round;stroke-miterlimit:4;stroke-dasharray:none;stroke-opacity:1"
     id="path4609"
     cx="396.55194"
     cy="602.28717"
     r="3.1494582" />
  <path
     style="fill:none;fill-rule:evenodd;stroke:#000000;stroke-width:1px;stroke-linecap:butt;stroke-linejoin:miter;stroke-opacity:1"
     d="m 322.74344,681.44016 c 20.00981,17.95198 42.14525,33.31873 89.18644,18.39471 l -0.55741,-3.06579 c 7.1535,1.03897 14.30699,-3.22738 21.46049,-6.41027"
     id="path4611"
     inkscape:connector-curvature="0"
     sodipodi:nodetypes="cccc" />
  <path
     style="fill:#ffffff;fill-opacity:1;fill-rule:evenodd;stroke:#000000;stroke-width:3;stroke-linecap:butt;stroke-linejoin:miter;stroke-miterlimit:4;stroke-dasharray:none;stroke-opacity:1"
     d="m 363.15605,452.06378 c -27.80511,37.47052 -56.92818,118.85145 -58.53963,111.52384 -1.44936,3.15266 -4.90533,25.95622 7.73139,7.93906 14.56524,13.98606 23.62137,-47.81592 47.46375,-98.00241 z"
     id="path4613"
     inkscape:connector-curvature="0"
     sodipodi:nodetypes="ccccc" />
  <path
     style="fill:#ff4ffd;fill-opacity:1;fill-rule:evenodd;stroke:#000000;stroke-width:2;stroke-linecap:butt;stroke-linejoin:miter;stroke-miterlimit:4;stroke-dasharray:none;stroke-opacity:1"
     d="m 268.00122,707.67381 31.10842,-11.25825 4.67068,12.1331 -35.789,12.13813 z"
     id="path4675"
     inkscape:connector-curvature="0" />
  <path
     style="fill:#000000;fill-opacity:1;fill-rule:evenodd;stroke:#000000;stroke-width:1px;stroke-linecap:butt;stroke-linejoin:miter;stroke-opacity:1"
     d="m 270.1546,701.82556 -19.68155,9.01055 c -14.21009,-17.48797 -23.2674,-22.57384 -30.06817,-22.22854 8.33948,30.7988 20.16471,31.20616 31.22594,38.2748 l -4.5499,1.7515 2.03927,2.9026 29.26928,-10.4478 c -2.80504,-6.56803 -6.2566,-13.40106 -8.23487,-19.26311 z"
     id="path4667"
     inkscape:connector-curvature="0"
     sodipodi:nodetypes="cccccccc" />
  <ellipse
     style="fill:#000000;fill-opacity:1;stroke:#ffffff;stroke-width:0;stroke-linecap:round;stroke-linejoin:round;stroke-miterlimit:4;stroke-dasharray:none;stroke-opacity:1"
     id="path4728"
     cx="364.09802"
     cy="254.1142"
     r="5.4195914" />
  <path
     style="fill:#d8d8d8;fill-rule:evenodd;stroke:#000000;stroke-width:0;stroke-linecap:butt;stroke-linejoin:miter;stroke-opacity:1;fill-opacity:1;stroke-miterlimit:4;stroke-dasharray:none"
     d="m 408.34159,698.84558 c -5.99162,-29.55595 -7.66465,-60.83934 -3.15321,-94.59651 -4.96567,23.45878 -8.46297,47.28465 -17.3427,69.76492 -25.00317,9.71556 -35.01741,11.10393 -51.63392,16.16024 16.44802,12.17354 36.90975,19.44144 72.12983,8.67135 z"
     id="path4732"
     inkscape:connector-curvature="0"
     sodipodi:nodetypes="ccccc" />
  <path
     style="fill:#d8d8d8;fill-rule:evenodd;stroke:#000000;stroke-width:0;stroke-linecap:butt;stroke-linejoin:miter;stroke-opacity:1;fill-opacity:1;stroke-miterlimit:4;stroke-dasharray:none"
     d="m 413.85972,694.5099 c -10.14313,-39.89838 -3.06435,-87.82557 1.97076,-134.80002 1.9524,44.27642 -9.54469,88.55284 5.91228,132.82926 z"
     id="path4742"
     inkscape:connector-curvature="0"
     sodipodi:nodetypes="cccc" />
  <path
     style="fill:#dfdfdf;fill-opacity:1;fill-rule:evenodd;stroke:#000000;stroke-width:3;stroke-linecap:round;stroke-linejoin:round;stroke-miterlimit:4;stroke-dasharray:none;stroke-opacity:1"
     d="m 324.03954,253.17584 -26.3406,-4.94237 -45.41003,38.23758 -50.90238,16.04882 c 0,0 -24.42456,38.20236 -24.16401,47.93372 -8.43371,-4.01563 -4.38805,-55.37109 8.21731,-65.75416 -17.99133,-3.68796 -20.24325,51.54861 -21.33827,61.64086 -19.74801,-26.37255 -11.67125,-71.34674 17.29584,-85.41827 -26.18485,2.39528 -51.04641,53.82432 -55.77118,80.90475 -10.41798,-39.52006 24.69023,-112.49902 44.19596,-102.77847 -20.02162,-8.79348 -52.53328,49.84102 -63.65638,54.99905 -2.60612,-30.2781 49.28884,-77.74433 78.7595,-79.11972 -43.87157,0.5479 -47.82229,19.42248 -69.40219,31.57772 1.4196,-53.8778 121.57244,-102.89559 123.03744,-62.32504 8.02173,-17.94569 58.61815,-57.16202 98.49856,-37.62133 -37.06873,7.89466 -54.52335,17.27509 -61.8036,31.87847 16.84495,-16.41112 70.85558,-35.03285 91.00977,-17.85526 -41.58999,0.12266 -57.23254,8.5487 -66.65353,22.2959 37.24388,-26.58022 68.88622,-16.77589 66.058,-2.86189 -12.24236,-3.97339 -21.44678,-1.97236 -30.71841,-0.10349 -8.5798,4.39433 -17.44797,8.62121 -20.44629,16.25645 19.64946,-9.89993 31.16938,1.0951 39.62852,7.927 5.62083,5.11095 8.12109,7.55573 10.94089,14.50614 11.63868,29.76579 -4.17513,-13.14196 -48.37652,8.19187 z"
     id="path3512"
     inkscape:connector-curvature="0"
     sodipodi:nodetypes="ccccccccccccccccccccccccc" />
  <path
     style="fill:#ffffff;fill-opacity:1;fill-rule:evenodd;stroke:#000000;stroke-width:3;stroke-linecap:butt;stroke-linejoin:miter;stroke-miterlimit:4;stroke-dasharray:none;stroke-opacity:1"
     d="m 215.64262,302.76702 c 17.9663,-9.12495 27.47426,2.13594 29.95832,5.00025 12.03137,13.83251 1.4357,35.71555 -1.87789,36.74382 -36.3609,15.70315 -47.333,-31.21326 -28.08043,-41.74407 z"
     id="path3516"
     inkscape:connector-curvature="0"
     sodipodi:nodetypes="cccc" />
  <path
     style="fill:#ffffff;fill-opacity:1;fill-rule:evenodd;stroke:#000000;stroke-width:3;stroke-linecap:butt;stroke-linejoin:miter;stroke-miterlimit:4;stroke-dasharray:none;stroke-opacity:1"
     d="m 274.42602,275.50035 c -19.94721,15.96279 -9.84301,45.56777 10.18047,47.99743 8.46179,-0.17093 23.0921,-8.15087 22.47596,-30.76486 -0.0569,-3.07072 -10.12922,-28.23622 -32.65643,-17.23257 z"
     id="path3518"
     inkscape:connector-curvature="0"
     sodipodi:nodetypes="cccc" />
  <path
     style="fill:none;fill-opacity:1;fill-rule:evenodd;stroke:#000000;stroke-width:3;stroke-linecap:round;stroke-linejoin:miter;stroke-miterlimit:4;stroke-dasharray:none;stroke-opacity:1"
     d="m 252.53078,300.54894 c -0.78171,17.6134 -0.48488,33.1129 -6.99623,50.27477 -5.83978,10.30543 -6.1024,11.99882 -8.22684,15.90575 l 0,0"
     id="path3520"
     inkscape:connector-curvature="0"
     sodipodi:nodetypes="cccc" />
  <path
     style="fill:none;fill-opacity:1;fill-rule:evenodd;stroke:#000000;stroke-width:3;stroke-linecap:round;stroke-linejoin:miter;stroke-miterlimit:4;stroke-dasharray:none;stroke-opacity:1"
     d="m 247.74738,394.05054 c 8.07112,-8.35759 15.29761,-18.00136 22.14909,-28.21618 6.50167,-11.1876 11.42986,-22.09507 15.14633,-32.78683 1.12971,-8.23382 -2.48938,-8.28931 -5.34418,-9.66105 -13.37438,-4.30424 -8.20412,9.39038 -14.42298,17.64075"
     id="path3522"
     inkscape:connector-curvature="0"
     sodipodi:nodetypes="ccccc" />
  <path
     style="fill:#ffffff;fill-opacity:1;fill-rule:evenodd;stroke:#000000;stroke-width:3;stroke-linecap:butt;stroke-linejoin:miter;stroke-miterlimit:4;stroke-dasharray:none;stroke-opacity:1"
     d="m 257.00123,407.68155 c 24.50976,-23.74918 72.81802,-11.65095 66.48199,-12.00806 -18.74884,-1.7762 -50.89095,14.94879 -62.79242,28.29605 z"
     id="path3524"
     inkscape:connector-curvature="0"
     sodipodi:nodetypes="cccc" />
  <path
     style="fill:none;fill-rule:evenodd;stroke:#000000;stroke-width:3;stroke-linecap:round;stroke-linejoin:miter;stroke-miterlimit:100;stroke-dasharray:none;stroke-opacity:1"
     d="m 353.71478,311.88358 c -6.77863,-4.90724 -12.48527,-11.51735 -16.0598,-17.27463 0.88069,3.49522 1.24626,6.20602 2.66018,10.51322"
     id="path4346"
     inkscape:connector-curvature="0"
     sodipodi:nodetypes="ccc" />
  <path
     style="fill:none;fill-rule:evenodd;stroke:#000000;stroke-width:3;stroke-linecap:butt;stroke-linejoin:miter;stroke-miterlimit:4;stroke-dasharray:none;stroke-opacity:1"
     d="m 271.23768,399.34096 4.12681,13.60273"
     id="path4348"
     inkscape:connector-curvature="0"
     sodipodi:nodetypes="cc" />
  <path
     style="fill:none;fill-rule:evenodd;stroke:#000000;stroke-width:3;stroke-linecap:round;stroke-linejoin:miter;stroke-miterlimit:4;stroke-dasharray:none;stroke-opacity:1"
     d="m 343.14272,291.47667 c 6.20059,-12.63641 -6.76375,-15.55042 -8.8018,-23.45562 0.23983,-14.76651 15.45016,-16.39617 18.1744,-3.91895"
     id="path4362"
     inkscape:connector-curvature="0"
     sodipodi:nodetypes="ccc" />
  <path
     style="fill:none;fill-rule:evenodd;stroke:#000000;stroke-width:3;stroke-linecap:round;stroke-linejoin:miter;stroke-miterlimit:4;stroke-dasharray:none;stroke-opacity:1"
     d="m 269.77541,435.38109 c 8.02805,0.2929 12.32903,-3.49998 17.20571,-6.11208"
     id="path4366"
     inkscape:connector-curvature="0"
     sodipodi:nodetypes="cc" />
  <path
     style="fill:none;fill-opacity:1;fill-rule:evenodd;stroke:#000000;stroke-width:3;stroke-linecap:butt;stroke-linejoin:miter;stroke-miterlimit:4;stroke-dasharray:none;stroke-opacity:1"
     d="m 289.42736,393.87199 3.294,7.98837"
     id="path4502"
     inkscape:connector-curvature="0"
     sodipodi:nodetypes="cc" />
  <path
     style="fill:#c7c7c7;fill-opacity:1;fill-rule:evenodd;stroke:#000000;stroke-width:0;stroke-linecap:butt;stroke-linejoin:miter;stroke-miterlimit:4;stroke-dasharray:none;stroke-opacity:1"
     d="m 322.06195,250.5528 -7.87188,-24.17258 c 7.56805,-10.30837 25.13523,-8.43695 41.08847,-5.97676 -16.82339,-7.26778 -31.91617,-16.34052 -61.61701,1.11915 1.4269,-12.67104 8.54812,-19.41847 12.43431,-28.16184 -13.20852,3.07329 -22.41795,10.08204 -30.01428,21.70132 -1.98893,-11.09919 -1.76951,-17.4507 1.63705,-27.73988 -14.07451,12.24782 -22.18174,20.65746 -29.41888,43.3169 -3.61696,-11.81729 -9.5851,-26.07663 -6.80893,-34.54425 -9.01588,11.31934 -10.86671,24.21466 -13.97702,44.52674 -8.32303,-11.55471 -40.22819,-10.49326 -41.54959,-8.0523 23.83751,12.674 24.36814,26.50934 20.28826,28.15632 -7.72221,-4.4516 -14.36606,-3.59894 -20.98526,-2.62511 17.9395,11.16898 20.39821,25.25561 25.54582,38.83546 l 20.60511,-6.19597 19.99315,-7.12782 45.33074,-38.10477 z"
     id="path4710"
     inkscape:connector-curvature="0"
     sodipodi:nodetypes="cccccccccccccccccc" />
  <path
     style="fill:#e1d5b3;fill-opacity:1;fill-rule:evenodd;stroke:#000000;stroke-width:0;stroke-linecap:butt;stroke-linejoin:miter;stroke-miterlimit:4;stroke-dasharray:none;stroke-opacity:1"
     d="m 346.27482,412.35791 c 4.00073,-3.39379 9.87062,-2.84712 17.18526,-3.13998 5.69062,-0.22784 10.41475,-2.90013 17.05454,-0.39652 l 12.73056,17.79829 c -2.21336,1.73199 -4.09493,3.44652 -4.90805,7.04549 -1.06136,7.12498 16.20946,1.12531 16.27299,-5.3044 -4.56312,0.45518 -7.32221,-2.2467 -9.81064,-5.42224 -4.90007,-5.56325 -7.57274,-16.11461 -12.51673,-18.61711 -12.53131,-6.34296 -36.7949,-5.0302 -51.16354,4.80967 -11.38771,32.99616 -43.88563,68.90541 -55.54105,30.06972 14.94771,71.35879 50.75284,-6.60463 70.69666,-26.84292 z"
     id="path4712"
     inkscape:connector-curvature="0"
     sodipodi:nodetypes="cscccccsccc" />
  <path
     style="fill:#e1d5b3;fill-opacity:1;fill-rule:evenodd;stroke:#000000;stroke-width:0;stroke-linecap:butt;stroke-linejoin:miter;stroke-miterlimit:4;stroke-dasharray:none;stroke-opacity:1"
     d="m 266.47143,375.77839 c -5.48285,6.04822 -9.89673,15.30332 -16.32519,18.51469 l -0.36926,8.4812 -2.975,3.36833 c 36.1377,-16.56706 55.74017,-93.86339 19.66945,-30.36422 z"
     id="path4714"
     inkscape:connector-curvature="0"
     sodipodi:nodetypes="ccccc" />
  <path
     style="fill:#a2f5ff;fill-opacity:1;fill-rule:evenodd;stroke:#000000;stroke-width:0;stroke-linecap:butt;stroke-linejoin:miter;stroke-miterlimit:4;stroke-dasharray:none;stroke-opacity:1"
     d="m 276.49335,317.79851 c 12.27363,-4.2878 21.36087,-11.5129 27.26172,-21.67528 0.0314,10.5792 -3.87856,15.15663 -7.78918,19.73309 -4.76884,4.03389 -10.42478,6.32322 -19.47254,1.94219 z"
     id="path4716"
     inkscape:connector-curvature="0"
     sodipodi:nodetypes="cccc" />
  <path
     style="fill:#a2f5ff;fill-opacity:1;fill-rule:evenodd;stroke:#ffffff;stroke-width:1px;stroke-linecap:butt;stroke-linejoin:miter;stroke-opacity:1"
     d="m 217.515,341.44047 c 11.97646,-0.73035 23.02128,-3.91788 31.57904,-13.66496 l -5.78286,14.17164 c -9.69687,2.97524 -19.06205,3.49219 -25.79618,-0.50668 z"
     id="path4720"
     inkscape:connector-curvature="0"
     sodipodi:nodetypes="cccc" />
  <path
     style="fill:#e1d5b3;fill-opacity:1;fill-rule:evenodd;stroke:#000000;stroke-width:0;stroke-linecap:butt;stroke-linejoin:miter;stroke-miterlimit:4;stroke-dasharray:none;stroke-opacity:1"
     d="m 342.01902,303.76747 c 2.98863,3.80444 5.81306,7.89165 9.93535,9.74372 5.87388,22.42075 -1.56336,50.83618 -3.99295,68.97758 -1.88079,-21.98031 0.73996,-54.70119 -5.9424,-78.7213 z"
     id="path4726"
     inkscape:connector-curvature="0"
     sodipodi:nodetypes="cccc" />
  <path
     style="fill:#e1d5b3;fill-opacity:1;fill-rule:evenodd;stroke:#000000;stroke-width:0;stroke-linecap:butt;stroke-linejoin:miter;stroke-miterlimit:4;stroke-dasharray:none;stroke-opacity:1"
     d="m 343.68374,276.50348 -6.77845,-7.80874 c 1.01629,-14.55463 9.6463,-11.23609 12.83422,-6.30635 -6.77491,2.27834 -7.05579,3.79059 -8.23653,5.40898 -1.91185,1.15491 1.10035,5.57003 2.18076,8.70611 z"
     id="path4730"
     inkscape:connector-curvature="0"
     sodipodi:nodetypes="ccccc" />
  <path
     style="fill:#a2f5ff;fill-opacity:1;fill-rule:evenodd;stroke:#000000;stroke-width:0;stroke-linecap:butt;stroke-linejoin:miter;stroke-miterlimit:4;stroke-dasharray:none;stroke-opacity:1"
     d="m 287.6344,315.67965 3.79134,1.16428 c 1.14802,3.24419 2.19229,6.90753 -2.81287,10.66086 0.14546,2.4523 2.88377,2.38246 5.28266,2.91301 3.90821,-0.77134 3.54136,-3.40714 3.8849,-5.44518 -4.7997,-4.11693 -4.70811,-6.363 -5.12408,-9.13373 l 6.02502,-2.20646 z"
     id="path4782"
     inkscape:connector-curvature="0"
     sodipodi:nodetypes="cccccccc" />
  <path
     style="fill:#a2f5ff;fill-opacity:1;fill-rule:evenodd;stroke:#000000;stroke-width:0;stroke-linecap:butt;stroke-linejoin:miter;stroke-miterlimit:4;stroke-dasharray:none;stroke-opacity:1"
     d="m 292.16219,355.66205 c -14.33368,18.46873 20.62727,18.74801 6.08019,0.84773 -3.02639,-15.07902 -3.2878,-14.99461 -6.08019,-0.84773 z"
     id="path4786"
     inkscape:connector-curvature="0"
     sodipodi:nodetypes="ccc" />
  <ellipse
     style="fill:#000000;fill-opacity:1;stroke:#808080;stroke-width:0;stroke-linecap:round;stroke-linejoin:round;stroke-miterlimit:4;stroke-dasharray:none;stroke-opacity:1"
     id="path4870"
     cx="73.61515"
     cy="410.31796"
     rx="10.247955"
     ry="9.8538027"
     transform="matrix(0.83587319,-0.54892258,0.54892258,0.83587319,0,0)" />
  <ellipse
     style="fill:#000000;fill-opacity:1;stroke:#808080;stroke-width:0;stroke-linecap:round;stroke-linejoin:round;stroke-miterlimit:4;stroke-dasharray:none;stroke-opacity:1"
     id="path4872"
     cx="10.550791"
     cy="401.61737"
     rx="9.459651"
     ry="10.247955"
     transform="matrix(0.83587319,-0.54892258,0.54892258,0.83587319,0,0)" />
  <ellipse
     style="fill:#ffffff;fill-opacity:1;stroke:#808080;stroke-width:0;stroke-linecap:round;stroke-linejoin:round;stroke-miterlimit:4;stroke-dasharray:none;stroke-opacity:1"
     id="path4874"
     cx="9.3975925"
     cy="397.73434"
     rx="3.9415231"
     ry="2.3649144"
     transform="matrix(0.83587319,-0.54892258,0.54892258,0.83587319,0,0)" />
  <ellipse
     style="fill:#ffffff;fill-opacity:1;stroke:#808080;stroke-width:0;stroke-linecap:round;stroke-linejoin:round;stroke-miterlimit:4;stroke-dasharray:none;stroke-opacity:1"
     id="path4876"
     cx="72.432655"
     cy="405.98227"
     rx="5.1239767"
     ry="2.364912"
     transform="matrix(0.83587319,-0.54892258,0.54892258,0.83587319,0,0)" />
  <path
     style="fill:#000000;fill-opacity:1;fill-rule:evenodd;stroke:#000000;stroke-width:1;stroke-linecap:butt;stroke-linejoin:miter;stroke-miterlimit:4;stroke-dasharray:none;stroke-opacity:1"
     d="M 377.35812,645.95848 340.64935,580.56467 288.51832,643.397 c -23.70296,-31.17071 -45.01258,-7.10346 -33.94916,9.44528 2.97077,-13.12617 9.94325,-10.67561 18.32668,-2.73296 -9.43723,14.90871 -28.3808,9.96505 -50.91924,-2.48588 12.22888,12.81419 25.09146,24.69961 52.245,15.6395 -15.38998,11.46091 -35.41147,5.43449 -53.26991,-2.95761 15.04272,13.20181 33.05596,26.23161 57.38131,12.11004 -8.62015,8.62349 -23.25303,12.66418 -55.28196,3.4459 9.75292,4.69779 61.51915,37.89327 71.15574,-25.24243 z"
     id="path4623"
     inkscape:connector-curvature="0"
     sodipodi:nodetypes="cccccccccccc" />
  <path
     style="fill:#000000;fill-opacity:1;fill-rule:evenodd;stroke:#000000;stroke-width:1px;stroke-linecap:butt;stroke-linejoin:miter;stroke-opacity:1"
     d="m 344.17156,600.91646 -43.63683,-71.2807 -42.53326,69.82199 c -20.70136,-18.94668 -52.25906,25.40904 -53.58371,35.6647 12.96402,-13.78144 21.67837,-22.24055 30.14646,-24.8258 -24.37934,19.35914 -16.9049,29.97469 -21.08975,38.73343 11.57713,-24.22138 18.98072,-26.5715 26.71755,-32.61287 -17.4847,26.81083 -12.58027,31.09053 -12.80672,39.87425 20.59588,-64.10033 54.52865,-19.50287 19.84637,-19.49231 6.85312,15.19017 39.65275,9.66693 17.50202,-31.06873 z"
     id="path4665"
     inkscape:connector-curvature="0"
     sodipodi:nodetypes="ccccccccccc" />
  <path
     style="fill:#e1d5b3;fill-rule:evenodd;stroke:#000000;stroke-width:0;stroke-linecap:butt;stroke-linejoin:miter;stroke-opacity:1;fill-opacity:1;stroke-miterlimit:4;stroke-dasharray:none"
     d="m 267.00191,422.52077 c 12.8845,-12.33372 31.16044,-20.17457 52.95445,-25.08369 -4.91781,6.9286 -5.71546,13.51417 -19.50953,21.18178 -11.14831,-1.73238 -22.29661,-1.74753 -33.44492,3.90191 z"
     id="path4960"
     inkscape:connector-curvature="0"
     sodipodi:nodetypes="cccc" />
  <path
     style="fill:#d8d8d8;fill-opacity:1;fill-rule:evenodd;stroke:#000000;stroke-width:0;stroke-linecap:butt;stroke-linejoin:miter;stroke-miterlimit:4;stroke-dasharray:none;stroke-opacity:1"
     d="m 364.98486,463.53676 c -6.08361,31.53217 -5.90255,85.36095 -8.67135,116.89312 17.62366,-38.11184 33.39555,-108.14949 54.39299,-128.71768 -14.94148,5.58641 -29.39201,13.87298 -45.72164,11.82456 z"
     id="path4981"
     inkscape:connector-curvature="0"
     sodipodi:nodetypes="cccc" />
  <path
     style="fill:#e1d5b3;fill-opacity:1;fill-rule:evenodd;stroke:#000000;stroke-width:3;stroke-linecap:butt;stroke-linejoin:miter;stroke-miterlimit:4;stroke-dasharray:none;stroke-opacity:1"
     d="m 210.08308,335.43733 c -18.28585,-47.29136 34.00201,-39.4021 35.86784,-25.61989 z"
     id="path6301"
     inkscape:connector-curvature="0"
     sodipodi:nodetypes="ccc" />
  <path
     style="fill:#eeeeee;fill-opacity:1;fill-rule:evenodd;stroke:#000000;stroke-width:3;stroke-linecap:butt;stroke-linejoin:miter;stroke-miterlimit:4;stroke-dasharray:none;stroke-opacity:1"
     d="m 201.00182,330.50251 29.49707,-47.89307 -12.14437,-1.55971 -35.34204,40.4136 z"
     id="path4508"
     inkscape:connector-curvature="0"
     sodipodi:nodetypes="ccccc"
     inkscape:transform-center-x="-7.5676661"
     inkscape:transform-center-y="11.564621" />
  <path
     style="fill:#e1d5b3;fill-opacity:1;fill-rule:evenodd;stroke:#000000;stroke-width:3;stroke-linecap:butt;stroke-linejoin:miter;stroke-miterlimit:4;stroke-dasharray:none;stroke-opacity:1"
     d="m 263.29361,298.38703 44.14504,-2.75907 c -6.47265,-52.25551 -43.85648,-25.83727 -44.14504,2.75907 z"
     id="path6843"
     inkscape:connector-curvature="0"
     sodipodi:nodetypes="ccc" />
  <path
     style="fill:#eeeeee;fill-opacity:1;fill-rule:evenodd;stroke:#000000;stroke-width:3;stroke-linecap:butt;stroke-linejoin:miter;stroke-miterlimit:4;stroke-dasharray:none;stroke-opacity:1"
     d="m 253.02076,265.49885 0.29146,10.04472 57.87758,7.53859 4.53539,-23.85709 z"
     id="path4510"
     inkscape:connector-curvature="0"
     sodipodi:nodetypes="ccccc" />
  <path
     style="fill:#ffffff;fill-opacity:1;fill-rule:evenodd;stroke:#000000;stroke-width:0;stroke-linecap:butt;stroke-linejoin:miter;stroke-miterlimit:4;stroke-dasharray:none;stroke-opacity:1"
     d="m 357.16383,608.69747 5.01674,8.91865 23.69015,-28.56754 c 9.26428,-10.8318 17.14355,-22.12528 25.36239,-33.30556 1.06552,0.0414 30.23529,-42.67701 30.79719,-50.02802 0.48742,-6.3765 -6.54962,-13.09926 -6.54962,-13.09926 0,0 -23.27209,42.64227 -36.51071,60.20085 -13.23861,17.55858 -41.80614,55.88088 -41.80614,55.88088 z"
     id="path6847"
     inkscape:connector-curvature="0"
     sodipodi:nodetypes="ccccscsc" />
  <path
     style="fill:#8a8a8a;fill-opacity:1;fill-rule:evenodd;stroke:#000000;stroke-width:2;stroke-linecap:butt;stroke-linejoin:miter;stroke-opacity:1;stroke-miterlimit:4;stroke-dasharray:none"
     d="m 285.95403,639.0766 c -0.30067,-2.72187 -1.35001,-4.27908 3.34449,-9.75476 16.6614,-6.96935 18.21471,21.138 13.93539,25.08368 -2.97288,1.76695 -5.94577,-1.40693 -8.91865,-3.06578 l -1.67224,10.59089 c 61.75681,29.84022 8.7264,-94.99506 -14.21409,-30.10042 z"
     id="path6857"
     inkscape:connector-curvature="0"
     sodipodi:nodetypes="ccccccc" />
  <path
     style="fill:#8a8a8a;fill-opacity:1;fill-rule:evenodd;stroke:#000000;stroke-width:2;stroke-linecap:butt;stroke-linejoin:miter;stroke-opacity:1;stroke-miterlimit:4;stroke-dasharray:none"
     d="m 271.46123,619.28836 c -1.08747,-2.74604 -1.94668,-5.14969 -4.45932,-10.03347 18.24939,-3.4654 -10.38823,-31.8617 -13.93538,-13.65668 -4.36642,-1.71413 -8.73284,-1.30367 -13.09926,-0.83612 1.70896,-48.68528 87.95913,10.41484 31.49396,24.52627 z"
     id="path6859"
     inkscape:connector-curvature="0"
     sodipodi:nodetypes="ccccc" />
  <path
     style="fill:#8a8a8a;fill-rule:evenodd;stroke:#000000;stroke-width:3;stroke-linecap:butt;stroke-linejoin:miter;stroke-opacity:1;stroke-miterlimit:4;stroke-dasharray:none;fill-opacity:1"
     d="m 285.11791,618.73095 -3.06578,-4.18062 4.18061,-2.78707 2.78708,3.9019 z"
     id="path6861"
     inkscape:connector-curvature="0" />
</svg>
