<?xml version="1.0" encoding="utf-8"?>
<!-- Generator: Adobe Illustrator 19.1.0, SVG Export Plug-In . SVG Version: 6.00 Build 0)  -->
<svg version="1.1" id="Layer_1" xmlns="http://www.w3.org/2000/svg" xmlns:xlink="http://www.w3.org/1999/xlink" x="0px" y="0px"
	 viewBox="-23 153 208 208" style="enable-background:new -23 153 208 208;" xml:space="preserve">
<style type="text/css">
	.st0{fill:#BF308A;}
</style>
<path class="st0" d="M185,257c0-0.6,0-1.2-0.1-1.8c-0.4-3.7-2-7.4-4.8-10.2l-87.2-87.2c-6.5-6.5-16.9-6.5-23.4,0s-6.5,16.9,0,23.4
	l59.2,59.2l-135.2,0c-9.2,0-16.5,7.4-16.5,16.5c0,9.2,7.4,16.5,16.5,16.5l135.3,0l-59.3,59.3c-6.5,6.5-6.5,16.9,0,23.4
	c6.5,6.4,17,6.4,23.4,0l87.1-87.1c1.6-1.6,2.9-3.5,3.7-5.5C184.5,261.6,185,259.3,185,257z"/>
</svg>
