<?xml version="1.0" encoding="utf-8"?>
<!-- Generator: Adobe Illustrator 19.1.0, SVG Export Plug-In . SVG Version: 6.00 Build 0)  -->
<svg version="1.1" id="Layer_1" xmlns="http://www.w3.org/2000/svg" xmlns:xlink="http://www.w3.org/1999/xlink" x="0px" y="0px"
	 viewBox="-23 153 208 208" style="enable-background:new -23 153 208 208;" xml:space="preserve">
<style type="text/css">
	.st0{fill:#E6E6E6;}
</style>
<path class="st0" d="M151.8,242.6c-0.1,0-0.1,0.3-0.1,0.3h-0.1c0-0.3,0-0.4,0-0.4c0-0.1,0-0.3,0-0.3c0-0.6,0.1-1.2,0.1-1.8
	c0-17.9-14.6-32.6-32.5-32.6c-8.2,0-15.7,3-21.4,8c0,0-0.1,0-0.1,0.1c0,0-0.1,0.1-0.1,0.1c0,0-0.1-0.1-0.1-0.1c0,0-0.1-0.1-0.1-0.1
	c-8.1-7.5-18.9-12.1-30.8-12.1c-20.1,0-37.1,13.2-43,31.3c0,0.1,0,0.1-0.1,0.1c0,0.1,0,0.1-0.1,0.1c-0.1,0-0.1,0.4-0.1,0.4
	c-0.1,0-0.1,0.4-0.1,0.4h-0.1c-12.7,0-23.3,9.9-23.3,22.5c0,0.1-0.3-0.3-0.3-0.3l0,0c0,0,0.3,0.1,0.3,0.1c-0.1,0,0.1,0,0,0
	c-0.1,0,0,0-0.1,0C-13,259.8-23,271-23,284.2c0,14.1,11.5,25.8,25.5,25.8h150.9c0.2,0,0.5,0,0.7,0c3.8-0.3,7.4-1.8,10.7-3.3
	c0.6-0.3,1.2-0.6,1.7-0.9s1.1-0.6,1.7-0.9c10-5.8,16.7-16.5,16.7-28.9C185,257.6,170.1,242.8,151.8,242.6z"/>
</svg>
