<?xml version="1.0" encoding="utf-8"?>
<!-- Generator: Adobe Illustrator 19.1.0, SVG Export Plug-In . SVG Version: 6.00 Build 0)  -->
<svg version="1.1" id="Layer_1" xmlns="http://www.w3.org/2000/svg" xmlns:xlink="http://www.w3.org/1999/xlink" x="0px" y="0px"
	 viewBox="-23 153 208 208" style="enable-background:new -23 153 208 208;" xml:space="preserve">
<style type="text/css">
	.st0{fill:#C1272D;}
</style>
<path class="st0" d="M180.2,356.2L180.2,356.2c-6.5,6.5-16.9,6.5-23.4,0l-175-175c-6.5-6.5-6.5-16.9,0-23.4l0,0
	c6.5-6.5,16.9-6.5,23.4,0l174.9,174.9C186.6,339.2,186.6,349.7,180.2,356.2z"/>
<path class="st0" d="M-18.2,356.2L-18.2,356.2c-6.5-6.5-6.5-16.9,0-23.4l174.9-174.9c6.5-6.5,16.9-6.5,23.4,0l0,0
	c6.5,6.5,6.5,16.9,0,23.4L5.2,356.2C-1.2,362.6-11.7,362.6-18.2,356.2z"/>
</svg>
