<?xml version="1.0" encoding="utf-8"?>
<!-- Generator: Adobe Illustrator 19.1.0, SVG Export Plug-In . SVG Version: 6.00 Build 0)  -->
<svg version="1.1" id="Layer_1" xmlns="http://www.w3.org/2000/svg" xmlns:xlink="http://www.w3.org/1999/xlink" x="0px" y="0px"
	 viewBox="-23 153 208 208" style="enable-background:new -23 153 208 208;" xml:space="preserve">
<style type="text/css">
	.st0{fill:#95969A;}
</style>
<path class="st0" d="M122.9,166c16.8,17.6,27.2,41.5,27.4,67.7c0.4,54.2-43.5,99.1-97.7,99.9c-17.2,0.3-33.4-3.9-47.6-11.3
	c-2-1-3.9,1.4-2.4,3.1C22.5,348,51.8,362,84.4,360.9c54.9-1.8,99.4-46.7,100.6-101.6c0.9-42.6-23.8-79.6-59.8-96.5
	C123.2,161.9,121.4,164.4,122.9,166z"/>
<polygon class="st0" points="5,217.4 13.7,234.9 33,237.7 19,251.4 22.3,270.7 5,261.6 -12.3,270.7 -9,251.4 -23,237.7 -3.6,234.9 
	"/>
<polygon class="st0" points="60.3,153 64.9,162.3 75.1,163.8 67.7,171 69.5,181.2 60.3,176.3 51.2,181.2 52.9,171 45.5,163.8 
	55.8,162.3 "/>
<polygon class="st0" points="82.6,206.9 86,213.8 93.7,214.9 88.1,220.3 89.4,227.9 82.6,224.3 75.8,227.9 77.1,220.3 71.6,214.9 
	79.2,213.8 "/>
</svg>
