<?xml version="1.0" encoding="utf-8"?>
<!-- Generator: Adobe Illustrator 19.1.0, SVG Export Plug-In . SVG Version: 6.00 Build 0)  -->
<svg version="1.1" id="Layer_1" xmlns="http://www.w3.org/2000/svg" xmlns:xlink="http://www.w3.org/1999/xlink" x="0px" y="0px"
	 viewBox="-23 153 208 208" style="enable-background:new -23 153 208 208;" xml:space="preserve">
<style type="text/css">
	.st0{fill:#00AAA9;}
</style>
<path class="st0" d="M185,257L185,257c0-4.1-3.3-7.4-7.4-7.4H159c-4.1,0-7.4,3.3-7.4,7.4l0,0c0,4.1,3.3,7.4,7.4,7.4h18.6
	C181.7,264.4,185,261.1,185,257z"/>
<path class="st0" d="M154.5,183.5L154.5,183.5c-2.9-2.9-7.6-2.9-10.5,0l-13.1,13.1c-2.9,2.9-2.9,7.6,0,10.5l0,0
	c2.9,2.9,7.6,2.9,10.5,0l13.1-13.1C157.4,191.1,157.4,186.3,154.5,183.5z"/>
<path class="st0" d="M154.5,330.6L154.5,330.6c2.9-2.9,2.9-7.6,0-10.5L141.4,307c-2.9-2.9-7.6-2.9-10.5,0l0,0
	c-2.9,2.9-2.9,7.6,0,10.5l13.1,13.1C146.9,333.4,151.6,333.4,154.5,330.6z"/>
<path class="st0" d="M81,153c-2.1,0-4,0.9-5.4,2.3L25,201h-40c-4.4,0-8,3.6-8,8v96c0,4.4,3.6,8,8,8h40l50.7,45.8
	c1.3,1.4,3.2,2.2,5.3,2.2c4.1,0,7.4-3.3,7.4-7.4V160.4C88.4,156.3,85.1,153,81,153z"/>
</svg>
