<?xml version="1.0" encoding="utf-8"?>
<!-- Generator: Adobe Illustrator 19.1.0, SVG Export Plug-In . SVG Version: 6.00 Build 0)  -->
<svg version="1.1" id="Layer_1" xmlns="http://www.w3.org/2000/svg" xmlns:xlink="http://www.w3.org/1999/xlink" x="0px" y="0px"
	 viewBox="0 0 288 192" style="enable-background:new 0 0 288 192;" xml:space="preserve">
<style type="text/css">
	.st0{fill:#FAB62D;}
	.st1{fill:#CCCCCC;}
</style>
<path class="st0" d="M104,0L104,0c-4.1,0-7.4,3.3-7.4,7.4V26c0,4.1,3.3,7.4,7.4,7.4l0,0c4.1,0,7.4-3.3,7.4-7.4V7.4
	C111.4,3.3,108.1,0,104,0z"/>
<path class="st0" d="M0,103.9L0,103.9c0-4.1,3.3-7.4,7.4-7.4l18.6,0c4.1,0,7.4,3.3,7.4,7.4l0,0c0,4.1-3.3,7.4-7.4,7.4l-18.6,0
	C3.3,111.3,0,107.9,0,103.9z"/>
<path class="st0" d="M177.5,30.5L177.5,30.5c-2.9-2.9-7.6-2.9-10.5,0l-13.1,13.1c-2.9,2.9-2.9,7.6,0,10.5l0,0
	c2.9,2.9,7.6,2.9,10.5,0L177.5,41C180.4,38.1,180.4,33.3,177.5,30.5z"/>
<path class="st0" d="M54.1,153.9L54.1,153.9c-2.9-2.9-7.6-2.9-10.5,0L30.5,167c-2.9,2.9-2.9,7.6,0,10.5l0,0c2.9,2.9,7.6,2.9,10.5,0
	l13.1-13.1C57,161.5,57,156.8,54.1,153.9z"/>
<path class="st0" d="M30.6,30.4L30.6,30.4c2.9-2.9,7.6-2.9,10.5,0l13.1,13.1c2.9,2.9,2.9,7.6,0,10.5l0,0c-2.9,2.9-7.6,2.9-10.5,0
	L30.6,40.9C27.7,38,27.7,33.2,30.6,30.4z"/>
<path class="st1" d="M254.8,108.5c0,0-0.1,0.3-0.1,0.3h-0.1c0-0.3,0-0.4,0-0.5c0,0,0-0.3,0-0.3c0-0.6,0-1.2,0-1.8
	c0-17.9-14.6-32.6-32.5-32.6c-8.2,0-15.7,3-21.4,8c0,0-0.1,0-0.1,0.1c0,0-0.1,0.1-0.1,0.1c0,0-0.1-0.1-0.1-0.1c0,0-0.1-0.1-0.1-0.1
	c-8.1-7.5-18.9-12.1-30.8-12.1c-20.1,0-37.1,13.2-43,31.3c0,0,0,0.1,0,0.1c0,0,0,0.1,0,0.1c0,0-0.1,0.4-0.1,0.4c0,0-0.1,0.4-0.1,0.4
	h-0.1c-12.7,0-23.3,9.9-23.4,22.5c0,0-0.3-0.3-0.3-0.3v0c0,0,0.3,0.1,0.3,0.1c0,0,0.1,0,0,0c0,0,0,0,0,0C90,125.8,80,137,80,150.1
	c0,14.1,11.5,25.9,25.5,25.9h150.9c0.2,0,0.5,0,0.7,0c3.8-0.3,7.4-1.8,10.7-3.3c0.6-0.3,1.2-0.6,1.7-0.9c0.6-0.3,1.1-0.6,1.6-0.9
	c10-5.8,16.7-16.5,16.7-28.9C288,123.6,273.1,108.7,254.8,108.5z"/>
<path class="st0" d="M71.8,150.1c0-14.4,9.2-27.3,22.2-32v-1.9l1.7,0c3.2-11.1,12.8-19.6,24.5-21.7c5.5-13.4,16.1-23.6,29-28.9
	c-10.9-12.9-27.1-21-45.3-21c-32.8,0-59.4,26.6-59.4,59.4c0,21.1,11,39.7,27.6,50.2C72,152.9,71.8,151.5,71.8,150.1z"/>
</svg>
