<?xml version="1.0" encoding="utf-8"?>
<!-- Generator: Adobe Illustrator 19.1.0, SVG Export Plug-In . SVG Version: 6.00 Build 0)  -->
<svg version="1.1" id="Layer_1" xmlns="http://www.w3.org/2000/svg" xmlns:xlink="http://www.w3.org/1999/xlink" x="0px" y="0px"
	 viewBox="-23 153 208 208" style="enable-background:new -23 153 208 208;" xml:space="preserve">
<style type="text/css">
	.st0{fill:#63B32E;}
</style>
<path class="st0" d="M29.8,356.2L29.8,356.2c-6.5-6.5-6.5-16.9,0-23.4l126.9-126.9c6.5-6.5,16.9-6.5,23.4,0l0,0
	c6.5,6.5,6.5,16.9,0,23.4L53.2,356.2C46.8,362.6,36.3,362.6,29.8,356.2z"/>
<path class="st0" d="M52.3,356.3L52.3,356.3c-6.2,6.2-16.4,6.2-22.6,0l-48-48c-6.2-6.2-6.2-16.4,0-22.6l0,0c6.2-6.2,16.4-6.2,22.6,0
	l48,48C58.6,339.9,58.6,350.1,52.3,356.3z"/>
</svg>
