<?xml version="1.0" encoding="UTF-8" standalone="no"?>
<svg
   xmlns:dc="http://purl.org/dc/elements/1.1/"
   xmlns:cc="http://creativecommons.org/ns#"
   xmlns:rdf="http://www.w3.org/1999/02/22-rdf-syntax-ns#"
   xmlns:svg="http://www.w3.org/2000/svg"
   xmlns="http://www.w3.org/2000/svg"
   xmlns:sodipodi="http://sodipodi.sourceforge.net/DTD/sodipodi-0.dtd"
   xmlns:inkscape="http://www.inkscape.org/namespaces/inkscape"
   viewBox="0 0 954 638"
   id="svg2"
   version="1.1"
   inkscape:version="0.91 r13725"
   sodipodi:docname="background_city.svg">
  <metadata
     id="metadata155">
    <rdf:RDF>
      <cc:Work
         rdf:about="">
        <dc:format>image/svg+xml</dc:format>
        <dc:type
           rdf:resource="http://purl.org/dc/dcmitype/StillImage" />
        <dc:title></dc:title>
      </cc:Work>
    </rdf:RDF>
  </metadata>
  <sodipodi:namedview
     pagecolor="#ffffff"
     bordercolor="#666666"
     borderopacity="1"
     objecttolerance="10"
     gridtolerance="10"
     guidetolerance="10"
     inkscape:pageopacity="0"
     inkscape:pageshadow="2"
     inkscape:window-width="1920"
     inkscape:window-height="1018"
     id="namedview153"
     showgrid="false"
     inkscape:zoom="0.60377358"
     inkscape:cx="77.173721"
     inkscape:cy="474.39292"
     inkscape:window-x="-8"
     inkscape:window-y="-8"
     inkscape:window-maximized="1"
     inkscape:current-layer="svg2" />
  <defs
     id="defs4">
    <clipPath
       id="clipPath3139">
      <path
         d="m2,412.3622h954v638h-954z"
         id="path7" />
    </clipPath>
  </defs>
  <g
     transform="translate(-2,-412.3622)"
     id="g9">
    <g
       clip-path="url(#clipPath3139)"
       id="g11">
      <path
         d="m0,412.3622h960v640h-960z"
         fill="#6ce3ff"
         id="path13" />
      <path
         d="m1122.8571,677.1429c0,44.1828-298.0504,80-665.7142,80s-665.7143-35.8172-665.7143-80 298.0504-80 665.7143-80 665.7142,35.8172 665.7142,80z"
         fill="#35c335"
         transform="translate(22.8571,412.3622)"
         id="path15" />
      <path
         d="m462.8281,1009.5184c-67.693.2061-132.8752,1.6335-194.0938,4.0938-12.9471,23.1725-20.1563,48.8668-20.1563,75.9062s7.2091,52.7026 20.1563,75.875c66.3823,2.6678 137.4302,4.125 211.2813,4.125s144.8677-1.4572 211.25-4.125c12.9471-23.1724 20.1563-48.8356 20.1563-75.875s-7.2091-52.7337-20.1563-75.9062c-66.3823-2.6678-137.399-4.0938-211.25-4.0938-5.7447,0-11.4776-.017-17.1875,0z"
         fill="#313131"
         id="path17" />
      <path
         d="m470.5,603.5c-4.2678.1429-6.2241,2.6883-4.875,8.375-.1429,9.9518-.2332,19.8911-.3125,29.8438 1.4592-.002 2.9158-.0312 4.375-.0312 8.3295-.0217 16.6705.001 25,.0312-.1001-12.5807-.2359-25.1706-.4375-37.75-6.8089-.2259-13.6257-.3376-20.4375-.1875-1.2197-.2129-2.3276-.3142-3.3125-.2813zm24.3438,67.8125c-9.9027.0359-19.7848.0609-29.6875.0312-.0385,25.3669.1356,50.7299.5313,76.0938 9.5375.3588 19.0875.3578 28.625,0 .3953-25.37.5695-50.7519.5313-76.125z"
         fill="#f0f0f0"
         transform="translate(0,412.3622)"
         id="path19" />
      <path
         d="m257.429,652.5114-191.3194-76.4583-176.766,535.4179 115.6067,40.4472z"
         fill="#999"
         id="path21" />
      <path
         d="m372.0231,819.3146-181.6728-97.1801-192.8163,424.1026 120.9552,68.7559z"
         fill="#898989"
         id="path23" />
      <g
         fill="#999"
         transform="matrix(-.72364,-.47129,-.45259,.77997,1322.519,765.36771)"
         id="g25">
        <path
           d="m1081.7938,730.6271 30.7032,3.02 5.3278-54.8876-29.991-5.0087z"
           fill="#999"
           id="path27" />
        <path
           d="m1072.4274,675.1012-30.7032-3.02 3.02,59.8963h21.6432z"
           fill="#999"
           id="path29" />
        <path
           d="m1032.3578,727.2879-30.7032,3.02 3.02-59.8963h21.6432z"
           fill="#999"
           id="path31" />
        <path
           d="m990.6187,670.0925-30.7032-3.02 3.02,59.8963h21.6432z"
           fill="#999"
           id="path33" />
        <path
           d="m996.2379,747.7831-28.1062-2.7645-4.8772,50.245 27.4542,4.585z"
           fill="#999"
           id="path35" />
        <path
           d="m1004.8121,798.6125 28.1062,2.7645-2.7646-54.8301h-19.8125z"
           fill="#999"
           id="path37" />
        <path
           d="m1041.4924,750.8398 28.1063-2.7645-2.7646,54.8301h-19.8125z"
           fill="#999"
           id="path39" />
        <path
           d="m1079.7011,803.1975 28.1062,2.7645-2.7645-54.8301h-19.8126z"
           fill="#999"
           id="path41" />
      </g>
      <path
         d="m218.3053,899.03-150.7687-89.0965-127.9515,315.4716 111.3796,51.8503z"
         fill="#757575"
         id="path43" />
      <g
         transform="matrix(-.90658,-.42204,-.42204,.90658,1378.9049,470.76058)"
         id="g45">
        <path
           d="m1081.7938,730.6271 30.7032,3.02 5.3278-54.8876-29.991-5.0087z"
           fill="#757575"
           id="path47" />
        <path
           d="m1072.4274,675.1012-30.7032-3.02 3.02,59.8963h21.6432z"
           fill="#757575"
           id="path49" />
        <path
           d="m1032.3578,727.2879-30.7032,3.02 3.02-59.8963h21.6432z"
           fill="#757575"
           id="path51" />
        <path
           d="m990.6187,670.0925-30.7032-3.02 3.02,59.8963h21.6432z"
           fill="#757575"
           id="path53" />
        <path
           d="m996.2379,747.7831-28.1062-2.7645-4.8772,50.245 27.4542,4.585z"
           fill="#757575"
           id="path55" />
        <path
           d="m1004.8121,798.6125 28.1062,2.7645-2.7646-54.8301h-19.8125z"
           fill="#757575"
           id="path57" />
        <path
           d="m1041.4924,750.8398 28.1063-2.7645-2.7646,54.8301h-19.8125z"
           fill="#757575"
           id="path59" />
        <path
           d="m1079.7011,803.1975 28.1062,2.7645-2.7645-54.8301h-19.8126z"
           fill="#757575"
           id="path61" />
      </g>
      <g
         transform="matrix(-.91422,.40522,.40522,.91422,1318.1718,-338.78052)"
         id="g63">
        <path
           d="m765.7143,740.9336 205.7143-11.4286-4.1842,465.8579-138.673,11.285z"
           fill="#898989"
           id="path65" />
        <path
           d="m940,638.0765 205.7143,11.4286-65.7143,560.0001-121.8767-12.1218z"
           fill="#999"
           id="path67" />
        <path
           d="m871.4286,878.0765 174.2857-17.1428-17.1429,340h-122.8571z"
           fill="#757575"
           id="path69" />
        <path
           d="m1081.7938,730.6271 30.7032,3.02 5.3278-54.8876-29.991-5.0087z"
           fill="#757575"
           id="path71" />
        <path
           d="m1072.4274,675.1012-30.7032-3.02 3.02,59.8963h21.6432z"
           fill="#757575"
           id="path73" />
        <path
           d="m1032.3578,727.2879-30.7032,3.02 3.02-59.8963h21.6432z"
           fill="#757575"
           id="path75" />
        <path
           d="m990.6187,670.0925-30.7032-3.02 3.02,59.8963h21.6432z"
           fill="#757575"
           id="path77" />
        <g
           transform="matrix(-.91542,0,0,-.91542,1986.5298,1416.6112)"
           id="g79">
          <path
             d="m1081.7938,730.6271 30.7032,3.02 5.3278-54.8876-29.991-5.0087z"
             fill="#757575"
             id="path81" />
          <path
             d="m1072.4274,675.1012-30.7032-3.02 3.02,59.8963h21.6432z"
             fill="#757575"
             id="path83" />
          <path
             d="m1032.3578,727.2879-30.7032,3.02 3.02-59.8963h21.6432z"
             fill="#757575"
             id="path85" />
          <path
             d="m990.6187,670.0925-30.7032-3.02 3.02,59.8963h21.6432z"
             fill="#757575"
             id="path87" />
        </g>
      </g>
      <g
         fill="#999"
         transform="matrix(.8072,-.30691,.27668,.85827,-182.29544,443.45037)"
         id="g89">
        <path
           d="m1081.7938,730.6271 30.7032,3.02 5.3278-54.8876-29.991-5.0087z"
           fill="#999"
           id="path91" />
        <path
           d="m1072.4274,675.1012-30.7032-3.02 3.02,59.8963h21.6432z"
           fill="#999"
           id="path93" />
        <path
           d="m1032.3578,727.2879-30.7032,3.02 3.02-59.8963h21.6432z"
           fill="#999"
           id="path95" />
        <path
           d="m990.6187,670.0925-30.7032-3.02 3.02,59.8963h21.6432z"
           fill="#999"
           id="path97" />
        <path
           d="m996.2379,747.7831-28.1062-2.7645-4.8772,50.245 27.4542,4.585z"
           fill="#999"
           id="path99" />
        <path
           d="m1004.8121,798.6125 28.1062,2.7645-2.7646-54.8301h-19.8125z"
           fill="#999"
           id="path101" />
        <path
           d="m1041.4924,750.8398 28.1063-2.7645-2.7646,54.8301h-19.8125z"
           fill="#999"
           id="path103" />
        <path
           d="m1079.7011,803.1975 28.1062,2.7645-2.7645-54.8301h-19.8126z"
           fill="#999"
           id="path105" />
      </g>
      <path
         d="m0,0v640h222.7188l24.2188-37.8125c67.4572-3.0303 140.0839-4.8005 215.875-5.0313 5.7099-.0174 11.4428,0 17.1875,0 80.2515,0 157.1945,1.6851 228.4375,4.8125l22.5,38.0313h229.0625v-640h-960z"
         fill="#6ce3ff"
         fill-opacity=".42"
         transform="translate(0,412.3622)"
         id="path107" />
      <path
         d="m637.7739-14.4696c0,77.4543-62.7891,140.2435-140.2435,140.2435s-140.2435-62.7891-140.2435-140.2435 62.7891-140.2435 140.2435-140.2435c58.7663,0 111.3004,36.6388 131.6057,91.7856"
         fill="#fff83b"
         transform="translate(0,465.7883)"
         id="path109" />
      <path
         d="m637.7739-14.4696c0,77.4543-62.7891,140.2435-140.2435,140.2435s-140.2435-62.7891-140.2435-140.2435 62.7891-140.2435 140.2435-140.2435c58.7663,0 111.3004,36.6388 131.6057,91.7856"
         fill="#ffe669"
         transform="matrix(.85714,0,0,.85714,71.07577,463.72119)"
         id="path111" />
      <path
         d="m637.7739-14.4696c0,77.4543-62.7891,140.2435-140.2435,140.2435s-140.2435-62.7891-140.2435-140.2435 62.7891-140.2435 140.2435-140.2435c58.7663,0 111.3004,36.6388 131.6057,91.7856"
         fill="#ffd169"
         transform="matrix(.7381,0,0,.7381,130.30558,461.99862)"
         id="path113" />
      <path
         d="m637.7739-14.4696c0,77.4543-62.7891,140.2435-140.2435,140.2435s-140.2435-62.7891-140.2435-140.2435 62.7891-140.2435 140.2435-140.2435c58.7663,0 111.3004,36.6388 131.6057,91.7856"
         fill="#ffad69"
         transform="matrix(.63095,0,0,.63095,183.61241,460.44831)"
         id="path115" />
      <path
         d="m190.3304,109.0783c0,18.4415-14.9498,33.3913-33.3913,33.3913s-33.3913-14.9498-33.3913-33.3913 14.9498-33.3913 33.3913-33.3913c13.992,0 26.5001,8.7235 31.3347,21.8537"
         fill="#fff"
         fill-opacity=".784"
         transform="translate(30.0522,415.7013)"
         id="path117" />
      <path
         d="m190.3304,109.0783c0,18.4415-14.9498,33.3913-33.3913,33.3913s-33.3913-14.9498-33.3913-33.3913 14.9498-33.3913 33.3913-33.3913c13.992,0 26.5001,8.7235 31.3347,21.8537"
         fill="#fff"
         fill-opacity=".784"
         transform="translate(75.1304,385.6491)"
         id="path119" />
      <path
         d="m190.3304,109.0783c0,18.4415-14.9498,33.3913-33.3913,33.3913s-33.3913-14.9498-33.3913-33.3913 14.9498-33.3913 33.3913-33.3913c13.992,0 26.5001,8.7235 31.3347,21.8537"
         fill="#fff"
         fill-opacity=".784"
         transform="translate(88.487,425.7187)"
         id="path121" />
      <path
         d="m190.3304,109.0783c0,18.4415-14.9498,33.3913-33.3913,33.3913s-33.3913-14.9498-33.3913-33.3913 14.9498-33.3913 33.3913-33.3913c13.992,0 26.5001,8.7235 31.3347,21.8537"
         fill="#fff"
         fill-opacity=".784"
         transform="translate(53.4261,452.4318)"
         id="path123" />
      <path
         d="m190.3304,109.0783c0,18.4415-14.9498,33.3913-33.3913,33.3913s-33.3913-14.9498-33.3913-33.3913 14.9498-33.3913 33.3913-33.3913c13.992,0 26.5001,8.7235 31.3347,21.8537"
         fill="#fff"
         fill-opacity=".784"
         transform="translate(126.887,415.7013)"
         id="path125" />
      <path
         d="m190.3304,109.0783c0,18.4415-14.9498,33.3913-33.3913,33.3913s-33.3913-14.9498-33.3913-33.3913 14.9498-33.3913 33.3913-33.3913c13.992,0 26.5001,8.7235 31.3347,21.8537"
         fill="#fff"
         fill-opacity=".784"
         transform="translate(96.8348,444.0839)"
         id="path127" />
      <path
         d="m190.3304,109.0783c0,18.4415-14.9498,33.3913-33.3913,33.3913s-33.3913-14.9498-33.3913-33.3913 14.9498-33.3913 33.3913-33.3913c13.992,0 26.5001,8.7235 31.3347,21.8537"
         fill="#fff"
         fill-opacity=".784"
         transform="matrix(-.9401,0,0,.9401,1012.4652,414.43464)"
         id="path129" />
      <path
         d="m190.3304,109.0783c0,18.4415-14.9498,33.3913-33.3913,33.3913s-33.3913-14.9498-33.3913-33.3913 14.9498-33.3913 33.3913-33.3913c13.992,0 26.5001,8.7235 31.3347,21.8537"
         fill="#fff"
         fill-opacity=".784"
         transform="matrix(-.9401,0,0,.9401,970.08697,386.18247)"
         id="path131" />
      <path
         d="m190.3304,109.0783c0,18.4415-14.9498,33.3913-33.3913,33.3913s-33.3913-14.9498-33.3913-33.3913 14.9498-33.3913 33.3913-33.3913c13.992,0 26.5001,8.7235 31.3347,21.8537"
         fill="#fff"
         fill-opacity=".784"
         transform="matrix(-.9401,0,0,.9401,975.91522,415.36676)"
         id="path133" />
      <path
         d="m190.3304,109.0783c0,18.4415-14.9498,33.3913-33.3913,33.3913s-33.3913-14.9498-33.3913-33.3913 14.9498-33.3913 33.3913-33.3913c13.992,0 26.5001,8.7235 31.3347,21.8537"
         fill="#fff"
         fill-opacity=".784"
         transform="matrix(-.9401,0,0,.9401,990.4913,448.96508)"
         id="path135" />
      <path
         d="m190.3304,109.0783c0,18.4415-14.9498,33.3913-33.3913,33.3913s-33.3913-14.9498-33.3913-33.3913 14.9498-33.3913 33.3913-33.3913c13.992,0 26.5001,8.7235 31.3347,21.8537"
         fill="#fff"
         fill-opacity=".784"
         transform="matrix(-.9401,0,0,.9401,935.57258,410.19201)"
         id="path137" />
      <path
         d="m190.3304,109.0783c0,18.4415-14.9498,33.3913-33.3913,33.3913s-33.3913-14.9498-33.3913-33.3913 14.9498-33.3913 33.3913-33.3913c13.992,0 26.5001,8.7235 31.3347,21.8537"
         fill="#fff"
         fill-opacity=".784"
         transform="matrix(-.9401,0,0,.9401,949.68261,441.11726)"
         id="path139" />
      <path
         d="m190.3304,109.0783c0,18.4415-14.9498,33.3913-33.3913,33.3913s-33.3913-14.9498-33.3913-33.3913 14.9498-33.3913 33.3913-33.3913c13.992,0 26.5001,8.7235 31.3347,21.8537"
         fill="#fff"
         fill-opacity=".784"
         transform="matrix(-.9401,0,0,.9401,650.32306,567.60621)"
         id="path141" />
      <path
         d="m190.3304,109.0783c0,18.4415-14.9498,33.3913-33.3913,33.3913s-33.3913-14.9498-33.3913-33.3913 14.9498-33.3913 33.3913-33.3913c13.992,0 26.5001,8.7235 31.3347,21.8537"
         fill="#fff"
         fill-opacity=".784"
         transform="matrix(-.9401,0,0,.9401,619.25854,554.91039)"
         id="path143" />
      <path
         d="m190.3304,109.0783c0,18.4415-14.9498,33.3913-33.3913,33.3913s-33.3913-14.9498-33.3913-33.3913 14.9498-33.3913 33.3913-33.3913c13.992,0 26.5001,8.7235 31.3347,21.8537"
         fill="#fff"
         fill-opacity=".784"
         transform="matrix(-.9401,0,0,.9401,609.53044,579.85204)"
         id="path145" />
      <path
         d="m190.3304,109.0783c0,18.4415-14.9498,33.3913-33.3913,33.3913s-33.3913-14.9498-33.3913-33.3913 14.9498-33.3913 33.3913-33.3913c13.992,0 26.5001,8.7235 31.3347,21.8537"
         fill="#fff"
         fill-opacity=".784"
         transform="matrix(-.9401,0,0,.9401,632.59181,600.72244)"
         id="path147" />
      <path
         d="m190.3304,109.0783c0,18.4415-14.9498,33.3913-33.3913,33.3913s-33.3913-14.9498-33.3913-33.3913 14.9498-33.3913 33.3913-33.3913c13.992,0 26.5001,8.7235 31.3347,21.8537"
         fill="#fff"
         fill-opacity=".784"
         transform="matrix(-.9401,0,0,.9401,573.43044,570.43465)"
         id="path149" />
      <path
         d="m190.3304,109.0783c0,18.4415-14.9498,33.3913-33.3913,33.3913s-33.3913-14.9498-33.3913-33.3913 14.9498-33.3913 33.3913-33.3913c13.992,0 26.5001,8.7235 31.3347,21.8537"
         fill="#fff"
         fill-opacity=".784"
         transform="matrix(-.9401,0,0,.9401,601.68261,597.11726)"
         id="path151" />
    </g>
  </g>
</svg>
