<?xml version="1.0" encoding="UTF-8" standalone="no"?>
<svg
   xmlns:dc="http://purl.org/dc/elements/1.1/"
   xmlns:cc="http://creativecommons.org/ns#"
   xmlns:rdf="http://www.w3.org/1999/02/22-rdf-syntax-ns#"
   xmlns:svg="http://www.w3.org/2000/svg"
   xmlns="http://www.w3.org/2000/svg"
   xmlns:xlink="http://www.w3.org/1999/xlink"
   xmlns:sodipodi="http://sodipodi.sourceforge.net/DTD/sodipodi-0.dtd"
   xmlns:inkscape="http://www.inkscape.org/namespaces/inkscape"
   id="svg2"
   height="768"
   width="1366"
   version="1.1"
   inkscape:version="0.91 r13725"
   sodipodi:docname="background_grass.svg">
  <metadata
     id="metadata4537">
    <rdf:RDF>
      <cc:Work
         rdf:about="">
        <dc:format>image/svg+xml</dc:format>
        <dc:type
           rdf:resource="http://purl.org/dc/dcmitype/StillImage" />
        <dc:title></dc:title>
      </cc:Work>
    </rdf:RDF>
  </metadata>
  <sodipodi:namedview
     pagecolor="#ffffff"
     bordercolor="#666666"
     borderopacity="1"
     objecttolerance="10"
     gridtolerance="10"
     guidetolerance="10"
     inkscape:pageopacity="0"
     inkscape:pageshadow="2"
     inkscape:window-width="1920"
     inkscape:window-height="1018"
     id="namedview4535"
     showgrid="false"
     inkscape:zoom="1.1926603"
     inkscape:cx="670.41998"
     inkscape:cy="250.42038"
     inkscape:window-x="-8"
     inkscape:window-y="-8"
     inkscape:window-maximized="1"
     inkscape:current-layer="svg2" />
  <defs
     id="defs3">
    <linearGradient
       id="linearGradient3826">
      <stop
         id="stop3828"
         stop-color="#165016"
         offset="0" />
      <stop
         id="stop3830"
         stop-color="#2d8916"
         offset="1" />
    </linearGradient>
    <linearGradient
       id="linearGradient3814">
      <stop
         id="stop3816"
         stop-color="#5b7821"
         offset="0" />
      <stop
         id="stop3818"
         stop-color="#62a721"
         offset="1" />
    </linearGradient>
    <linearGradient
       id="linearGradient3440"
       y2="502.39"
       xlink:href="#linearGradient3826"
       gradientUnits="userSpaceOnUse"
       x2="1171"
       y1="556.86"
       x1="1171.2" />
    <linearGradient
       id="linearGradient3633"
       y2="502.39"
       xlink:href="#linearGradient3826"
       gradientUnits="userSpaceOnUse"
       x2="1171"
       gradientTransform="matrix(.34998 .046596 -.064272 .45215 224.41 516.33)"
       y1="556.86"
       x1="1171.2" />
    <linearGradient
       id="linearGradient3647"
       y2="374.57"
       gradientUnits="userSpaceOnUse"
       x2="-24.84"
       gradientTransform="matrix(1.0049 0 0 1.0049 -5.8231 281.89)"
       y1="845.94"
       x1="512.99">
      <stop
         id="stop3805"
         stop-color="#7c6f1f"
         stop-opacity=".66234"
         offset="0" />
      <stop
         id="stop3807"
         stop-color="#8a9137"
         stop-opacity=".5"
         offset="1" />
    </linearGradient>
    <linearGradient
       id="linearGradient3651"
       y2="840.53"
       gradientUnits="userSpaceOnUse"
       x2="902.86"
       gradientTransform="matrix(1.0084 0 0 1.0049 -7.7414 -3.8662)"
       y1="1052"
       x1="944.29">
      <stop
         id="stop3777"
         stop-color="#6d9a2c"
         offset="0" />
      <stop
         id="stop3779"
         stop-color="#6fb12c"
         offset="1" />
    </linearGradient>
    <linearGradient
       id="linearGradient3655"
       y2="796.21"
       xlink:href="#linearGradient3814"
       gradientUnits="userSpaceOnUse"
       x2="358.57"
       gradientTransform="matrix(1.6462 0 0 1.0049 645.27 -80.626)"
       y1="1054.8"
       x1="358.57" />
    <linearGradient
       id="linearGradient3659"
       y2="796.21"
       gradientUnits="userSpaceOnUse"
       x2="358.57"
       gradientTransform="matrix(1.0049 0 0 1.0049 -5.8231 -3.8662)"
       y1="1054.8"
       x1="358.57">
      <stop
         id="stop3769"
         stop-color="#4b7829"
         offset="0" />
      <stop
         id="stop3771"
         stop-color="#569221"
         offset="1" />
    </linearGradient>
    <linearGradient
       id="linearGradient3720"
       y2="796.21"
       xlink:href="#linearGradient3814"
       gradientUnits="userSpaceOnUse"
       x2="358.57"
       gradientTransform="matrix(1.2496 0 0 1.0049 189.43 -68.833)"
       y1="1054.8"
       x1="358.57" />
    <linearGradient
       id="linearGradient3742"
       y2="1082.1"
       gradientUnits="userSpaceOnUse"
       x2="271.95"
       gradientTransform="matrix(1.8859 0 0 1.6254 546.64 -774.74)"
       y1="914.1"
       x1="277.84">
      <stop
         id="stop3849"
         stop-color="#3c783f"
         offset="0" />
      <stop
         id="stop3851"
         stop-color="#4ba747"
         offset="1" />
    </linearGradient>
    <linearGradient
       id="linearGradient3745"
       y2="502.39"
       xlink:href="#linearGradient3826"
       gradientUnits="userSpaceOnUse"
       x2="1171"
       gradientTransform="matrix(.34998 .046596 -.064272 .45215 162.87 531.12)"
       y1="545.35"
       x1="1176.2" />
    <linearGradient
       id="linearGradient3786"
       y2="1082.1"
       gradientUnits="userSpaceOnUse"
       x2="271.95"
       gradientTransform="matrix(-2.1249 0 0 1.6403 925.71 -835.64)"
       y1="914.1"
       x1="277.84">
      <stop
         id="stop3977"
         stop-color="#3c785e"
         offset="0" />
      <stop
         id="stop3979"
         stop-color="#4ba75e"
         offset="1" />
    </linearGradient>
    <linearGradient
       id="linearGradient3789"
       y2="715.94"
       gradientUnits="userSpaceOnUse"
       x2="661.52"
       gradientTransform="matrix(1.0049 0 0 1.0049 -5.8231 281.89)"
       y1="36.039"
       x1="639.06">
      <stop
         id="stop3985"
         stop-color="#afe"
         offset="0" />
      <stop
         id="stop3987"
         stop-color="#dcd19a"
         offset="1" />
    </linearGradient>
    <linearGradient
       id="linearGradient4654"
       y2="320.36"
       gradientUnits="userSpaceOnUse"
       x2="948.38"
       y1="196.83"
       x1="948.39">
      <stop
         id="stop4650"
         stop-color="#fff"
         offset="0" />
      <stop
         id="stop4652"
         stop-color="#fff"
         stop-opacity="0"
         offset="1" />
    </linearGradient>
  </defs>
  <g
     id="layer1"
     transform="translate(0 -284.36)">
    <rect
       id="rect3981"
       height="568.33"
       width="1380.8"
       y="280.15"
       x="-5.8231"
       fill="url(#linearGradient3789)" />
    <path
       id="path3971"
       d="m1120 888.88-1127.4 3.36 2.5595-167.67c61.816-3.45 123.66-98.64 173.58-90.32 22.069 3.6785 120.23 69.615 174.65 76.627 57.786 7.4467 146.96-70.039 201.24-34.698 44.646 29.07 143.33 17.115 204.52 36.329 132.22 41.511 246.7 105.48 370.86 176.37z"
       fill="url(#linearGradient3786)" />
    <path
       id="path4134"
       d="m549.04 815.46 11.23 9.0846-10.766 12.857-11.23-9.0846z"
       fill="#504416" />
    <g
       id="g3938"
       transform="matrix(1.0049 0 0 1.0049 34.799 .48620)">
      <rect
         id="rect3940"
         transform="translate(0 284.36)"
         height="4.5939"
         width="3.3178"
         y="525.8"
         x="636.25"
         fill="#2b2200" />
      <g
         id="g3942">
        <path
           id="path3945"
           d="m637.02 511.76-6.3804 0.25521v15.313h6.3804l5.1043-8.1669z"
           transform="translate(0 284.36)"
           fill="#504416" />
        <path
           id="path3947"
           d="m637.02 511.51 3.8626-4.6579 4.0491 5.637v15.1h-7.9117z"
           transform="translate(0 284.36)"
           fill="#786721" />
        <path
           id="path3949"
           d="m641.87 509.98c2.297 1.7865 1.2761 3.3178 2.8074 3.3178s3.8282 1.5313 1.5313-1.2761c-2.297-2.8074-0.51043-3.0626-3.573-4.8491s-0.76565-1.2761-5.3596-1.2761c-4.5939 0-3.8282-0.51043-4.8491 1.0209s-0.76565 0.25522-1.7865 3.0626c-1.0209 2.8074-3.0626 3.8282 0.51043 3.8282s1.7865 2.0417 4.3387 0.25521 2.5522-0.51043 3.573-3.0626c1.0209-2.5522 1.7865-4.3387 2.0417-3.3178 0.25522 1.0209 0.76565 2.297 0.76565 2.297z"
           transform="translate(0 284.36)"
           fill="#a80" />
      </g>
      <g
         id="g3951"
         transform="translate(1.5313 -3.573)">
        <g
           id="g3953"
           fill="#504416"
           transform="translate(-.76565 .25522)">
          <path
             id="path3955"
             d="m639.57 511.25-10.464-10.974 5.1043-1.0209z"
             transform="translate(0 284.36)" />
          <path
             id="path3957"
             d="m639.57 511.51 6.1252 12.506 4.5939-1.2761z"
             transform="translate(0 284.36)" />
          <path
             id="path3959"
             d="m639.83 511.51 12.761-2.0417-3.8282-5.3596z"
             transform="translate(0 284.36)" />
          <path
             id="path3961"
             d="m640.34 511.51v0.25522l-9.1878 10.974-3.0626-6.1252z"
             transform="translate(0 284.36)" />
        </g>
        <path
           id="path3963"
           d="m639.57 511.25-10.464-10.974 5.1043-1.0209z"
           transform="translate(0 284.36)"
           fill="#b3b3b3" />
        <path
           id="path3965"
           d="m639.57 511.51 6.1252 12.506 4.5939-1.2761z"
           transform="translate(0 284.36)"
           fill="#b3b3b3" />
        <path
           id="path3967"
           d="m639.83 511.51 12.761-2.0417-3.8282-5.3596z"
           transform="translate(0 284.36)"
           fill="#b3b3b3" />
        <path
           id="path3969"
           d="m640.34 511.51v0.25522l-9.1878 10.974-3.0626-6.1252z"
           transform="translate(0 284.36)"
           fill="#b3b3b3" />
      </g>
    </g>
    <g
       id="g3921"
       transform="matrix(1.0049 0 0 1.0049 -5.8231 -3.8662)">
      <rect
         id="rect3873"
         transform="translate(0 284.36)"
         height="4.5939"
         width="3.3178"
         y="525.8"
         x="636.25"
         fill="#2b2200" />
      <g
         id="g3905">
        <path
           id="path3878"
           d="m637.02 511.76-6.3804 0.25521v15.313h6.3804l5.1043-8.1669z"
           transform="translate(0 284.36)"
           fill="#504416" />
        <path
           id="rect3875"
           d="m637.02 511.51 3.8626-4.6579 4.0491 5.637v15.1h-7.9117z"
           transform="translate(0 284.36)"
           fill="#786721" />
        <path
           id="path3880"
           d="m641.87 509.98c2.297 1.7865 1.2761 3.3178 2.8074 3.3178s3.8282 1.5313 1.5313-1.2761c-2.297-2.8074-0.51043-3.0626-3.573-4.8491s-0.76565-1.2761-5.3596-1.2761c-4.5939 0-3.8282-0.51043-4.8491 1.0209s-0.76565 0.25522-1.7865 3.0626c-1.0209 2.8074-3.0626 3.8282 0.51043 3.8282s1.7865 2.0417 4.3387 0.25521 2.5522-0.51043 3.573-3.0626c1.0209-2.5522 1.7865-4.3387 2.0417-3.3178 0.25522 1.0209 0.76565 2.297 0.76565 2.297z"
           transform="translate(0 284.36)"
           fill="#a80" />
      </g>
      <g
         id="g3910"
         transform="translate(1.5313 -3.573)">
        <g
           id="g3899"
           fill="#504416"
           transform="translate(-.76565 .25522)">
          <path
             id="path3890"
             d="m639.57 511.25-10.464-10.974 5.1043-1.0209z"
             transform="translate(0 284.36)" />
          <path
             id="path3892"
             d="m639.57 511.51 6.1252 12.506 4.5939-1.2761z"
             transform="translate(0 284.36)" />
          <path
             id="path3895"
             d="m639.83 511.51 12.761-2.0417-3.8282-5.3596z"
             transform="translate(0 284.36)" />
          <path
             id="path3897"
             d="m640.34 511.51v0.25522l-9.1878 10.974-3.0626-6.1252z"
             transform="translate(0 284.36)" />
        </g>
        <path
           id="path3882"
           d="m639.57 511.25-10.464-10.974 5.1043-1.0209z"
           transform="translate(0 284.36)"
           fill="#b3b3b3" />
        <path
           id="path3884"
           fill="#b3b3b3"
           d="m639.57 511.51 6.1252 12.506 4.5939-1.2761z"
           transform="translate(0 284.36)" />
        <path
           id="path3886"
           fill="#b3b3b3"
           d="m639.83 511.51 12.761-2.0417-3.8282-5.3596z"
           transform="translate(0 284.36)" />
        <path
           id="path3888"
           fill="#b3b3b3"
           d="m640.34 511.51v0.25522l-9.1878 10.974-3.0626-6.1252z"
           transform="translate(0 284.36)" />
      </g>
    </g>
    <path
       id="rect3867"
       fill="#786721"
       d="m520.02 823.85 11.23 9.0846-10.766 12.857-11.23-9.0846z" />
    <path
       id="path4132"
       d="m549.57 816.58-6.1734 7.1291-4.0992 0.1282 6.8989-6.5785s0.65551-3.1232 3.0241-3.231c2.3686-0.10797 7.6273-1.2616 11.447-0.26813 3.8195 0.99344 2.2229-1.1712 5.0577 2.1238 9.0999 10.577 15.805 12.568 8.8831 12.65-6.9222 0.0816-5.2091 3.097-10.354 0.33514-5.1451-2.7619-2.8901 1.0459-7.1466-3.1377s-4.0438-4.2128-5.6404-6.3774-1.8966-2.7735-1.8966-2.7735z"
       fill="#a80" />
    <path
       id="rect3859"
       d="m575.63 813.62-5.0907-5.4277-3.0073 1.969-1.4305 4.2873v11.186l9.5285-0.82857 4.1742-4.9543z"
       fill="#504416" />
    <path
       id="rect3857"
       fill="#786721"
       d="m575.67 813.62h21.543v11.186h-21.543z" />
    <path
       id="path3871"
       d="m520.67 825.15 6.4628 6.868 4.101-0.0413-7.1648-6.2878s-0.784-3.0934-3.155-3.1033c-2.371-0.01-7.6729-0.94531-11.448 0.2051-3.7752 1.1504-2.2694-1.0784-4.9656 2.331-8.6551 10.944-15.272 13.211-8.3528 13.006 6.9197-0.20448 5.3327 2.8791 10.359-0.093 5.0266-2.9721 2.9308 0.92561 7.0108-3.4303s3.8663-4.3762 5.3721-6.605 1.7804-2.8496 1.7804-2.8496z"
       fill="#a80" />
    <path
       id="path3853"
       d="m549.01 827.25c-1.19 7.0544-4.2852 9.4453-10.491 8.4065-6.2054-1.0388-11.526-5.0945-11.981-12.168-0.51549-8.0042 10.49-16.249 14.37-12.628 8.3011 7.7482 9.0806 9.1277 8.1718 15.932"
       fill="url(#linearGradient3745)" />
    <path
       id="path3075"
       d="m543.94 935.76h827.24l2.8371-199.38c-2.1271-3.4194-38.299-19.277-148.81-27.84-40.007-3.0998-113.43 42.225-161.72 49.173-51.288 7.379-107.08-27.14-162.52-11.117-125.24 36.203-254.35 96.379-357.03 189.16z"
       fill="url(#linearGradient3742)" />
    <path
       id="path3865"
       fill="#a80"
       d="m570.24 808.47c0.0481-0.0551 2.2771 3.0897 4.2501 5.6162 2.0833 2.6677 3.8707 2.0492 6.527 1.2143 2.6563-0.83484 0.45537-1.2143 4.1742-0.91074 3.7189 0.30358 0.53128 0.98664 4.9332 0.37948 4.4019-0.60718 7.5895 2.4286 5.6162-0.53128s-2.3527-3.4153-4.2501-5.6922 1.2143-3.3394-3.2635-2.884c-4.4778 0.45537-2.8081 0.53126-7.286 0.37947-4.4778-0.15179-4.5537-0.53126-7.6654-0.15179-3.1117 0.37948-2.0492-3.9466-5.1609 0.22769-3.1117 4.1742-3.643 3.1876-4.0224 6.4511 0.34139 2.5983 1.4684 3.7099 1.7437 3.802 0.35938 0.12019 0.46245-1.6174 0.83673-2.7394z" />
    <path
       id="path3936"
       d="m1200.9 531.2a32.272 28.36 0 1 1 0.013 -1.0124"
       transform="matrix(.63565 .074209 -.11673 .72010 670.12 297.01)"
       fill="url(#linearGradient3440)" />
    <path
       id="path3902"
       d="m1200.9 531.2a32.272 28.36 0 1 1 0.013 -1.0124"
       transform="matrix(.95290 0 0 .75945 42.483 371.16)"
       fill="url(#linearGradient3440)" />
    <path
       id="path3904"
       d="m1200.9 531.2a32.272 28.36 0 1 1 0.013 -1.0124"
       transform="matrix(.71382 0 0 .75945 352.5 369.66)"
       fill="url(#linearGradient3440)" />
    <path
       id="path3906"
       d="m1200.9 531.2a32.272 28.36 0 1 1 0.013 -1.0124"
       transform="matrix(.63565 .063413 -.11673 .61534 531.48 374.04)"
       fill="url(#linearGradient3440)" />
    <path
       id="path3908"
       d="m1200.9 531.2a32.272 28.36 0 1 1 0.013 -1.0124"
       transform="matrix(.63565 .063413 -.11673 .61534 448.72 378.51)"
       fill="url(#linearGradient3440)" />
    <path
       id="path3910"
       d="m1200.9 531.2a32.272 28.36 0 1 1 0.013 -1.0124"
       transform="matrix(.95290 0 0 .75945 162.66 367.43)"
       fill="url(#linearGradient3440)" />
    <path
       id="path3912"
       d="m1200.9 531.2a32.272 28.36 0 1 1 0.013 -1.0124"
       transform="matrix(.63565 .074209 -.11673 .72010 560.94 301.4)"
       fill="url(#linearGradient3440)" />
    <path
       id="path3914"
       d="m1200.9 531.2a32.272 28.36 0 1 1 0.013 -1.0124"
       transform="matrix(.63565 .060714 -.11673 .58915 620.8 386.98)"
       fill="url(#linearGradient3440)" />
    <path
       id="path3916"
       d="m1200.9 531.2a32.272 28.36 0 1 1 0.013 -1.0124"
       transform="matrix(.71382 0 0 .75945 491.7 365.54)"
       fill="url(#linearGradient3440)" />
    <path
       id="path3898"
       d="m1200.9 531.2a32.272 28.36 0 1 1 0.013 -1.0124"
       transform="matrix(.74696 .087890 -.13718 .85285 307.84 259.51)"
       fill="url(#linearGradient3440)" />
    <path
       id="path3894"
       d="m1200.9 531.2a32.272 28.36 0 1 1 0.013 -1.0124"
       transform="matrix(.74696 .087890 -.13718 .85285 313.34 244.01)"
       fill="url(#linearGradient3440)" />
    <path
       id="path3862"
       d="m1200.9 531.2a32.272 28.36 0 1 1 0.013 -1.0124"
       transform="matrix(.95290 0 0 .75945 62.264 377.35)"
       fill="url(#linearGradient3440)" />
    <path
       id="path3864"
       d="m1200.9 531.2a32.272 28.36 0 1 1 0.013 -1.0124"
       transform="matrix(.71382 0 0 .75945 372.28 375.86)"
       fill="url(#linearGradient3440)" />
    <path
       id="path3866"
       d="m1200.9 531.2a32.272 28.36 0 1 1 0.013 -1.0124"
       transform="matrix(.63565 .063413 -.11673 .61534 551.27 380.23)"
       fill="url(#linearGradient3440)" />
    <path
       id="path3868"
       d="m1200.9 531.2a32.272 28.36 0 1 1 0.013 -1.0124"
       transform="matrix(.63565 .063413 -.11673 .61534 468.5 384.71)"
       fill="url(#linearGradient3440)" />
    <path
       id="path3870"
       d="m1200.9 531.2a32.272 28.36 0 1 1 0.013 -1.0124"
       transform="matrix(.95290 0 0 .75945 182.44 373.63)"
       fill="url(#linearGradient3440)" />
    <path
       id="path3872"
       d="m1200.9 531.2a32.272 28.36 0 1 1 0.013 -1.0124"
       transform="matrix(.63565 .074209 -.11673 .72010 580.72 307.6)"
       fill="url(#linearGradient3440)" />
    <path
       id="path3874"
       d="m1200.9 531.2a32.272 28.36 0 1 1 0.013 -1.0124"
       transform="matrix(.63565 .060714 -.11673 .58915 640.58 393.18)"
       fill="url(#linearGradient3440)" />
    <path
       id="path3876"
       d="m1200.9 531.2a32.272 28.36 0 1 1 0.013 -1.0124"
       transform="matrix(.71382 0 0 .75945 513.03 370.65)"
       fill="url(#linearGradient3440)" />
    <path
       id="path3783"
       d="m187.64 988.69h1026.4c-351-156.78-582.93-300.65-1026.4 0z"
       fill="url(#linearGradient3720)" />
    <g
       id="g4103"
       transform="matrix(1.0049 0 0 1.0049 -5.8231 -5.3099)">
      <path
         id="path3993"
         d="m1200.9 531.2c-0.5251 15.656-15.393 27.974-33.209 27.512-17.816-0.46144-31.832-13.527-31.307-29.183s15.393-27.974 33.208-27.512c17.367 0.44983 31.212 12.902 31.32 28.171"
         transform="matrix(-.63039 .10631 .11577 .67755 694.46 306.67)"
         fill="url(#linearGradient3440)" />
      <path
         id="path3995"
         d="m1200.9 531.2c-0.5251 15.656-15.393 27.974-33.209 27.512-17.816-0.46144-31.832-13.527-31.307-29.183s15.393-27.974 33.208-27.512c17.367 0.44983 31.212 12.902 31.32 28.171"
         transform="matrix(-.94502 .053677 0 .72151 1316.9 341.75)"
         fill="url(#linearGradient3440)" />
      <path
         id="path3997"
         d="m1200.9 531.2c-0.5251 15.656-15.393 27.974-33.209 27.512-17.816-0.46144-31.832-13.527-31.307-29.183s15.393-27.974 33.208-27.512c17.367 0.44983 31.212 12.902 31.32 28.171"
         transform="matrix(-.70792 .040210 0 .72151 1009.4 357.8)"
         fill="url(#linearGradient3440)" />
      <path
         id="path3999"
         d="m1200.9 531.2c-0.5251 15.656-15.393 27.974-33.209 27.512-17.816-0.46144-31.832-13.527-31.307-29.183s15.393-27.974 33.208-27.512c17.367 0.44983 31.212 12.902 31.32 28.171"
         transform="matrix(-.63039 .096052 .11577 .57803 831.95 372.04)"
         fill="url(#linearGradient3440)" />
      <path
         id="path4001"
         d="m1200.9 531.2c-0.5251 15.656-15.393 27.974-33.209 27.512-17.816-0.46144-31.832-13.527-31.307-29.183s15.393-27.974 33.208-27.512c17.367 0.44983 31.212 12.902 31.32 28.171"
         transform="matrix(-.63039 .096052 .11577 .57803 914.03 371.62)"
         fill="url(#linearGradient3440)" />
      <path
         id="path4003"
         d="m1200.9 531.2c-0.5251 15.656-15.393 27.974-33.209 27.512-17.816-0.46144-31.832-13.527-31.307-29.183s15.393-27.974 33.208-27.512c17.367 0.44983 31.212 12.902 31.32 28.171"
         transform="matrix(-.94502 .053677 0 .72151 1197.7 344.98)"
         fill="url(#linearGradient3440)" />
      <path
         id="path4005"
         d="m1200.9 531.2c-0.5251 15.656-15.393 27.974-33.209 27.512-17.816-0.46144-31.832-13.527-31.307-29.183s15.393-27.974 33.208-27.512c17.367 0.44983 31.212 12.902 31.32 28.171"
         transform="matrix(-.63039 .10631 .11577 .67755 802.73 304.69)"
         fill="url(#linearGradient3440)" />
      <path
         id="path4007"
         d="m1200.9 531.2c-0.5251 15.656-15.393 27.974-33.209 27.512-17.816-0.46144-31.832-13.527-31.307-29.183s15.393-27.974 33.208-27.512c17.367 0.44983 31.212 12.902 31.32 28.171"
         transform="matrix(-.63039 .093488 .11577 .55314 743.38 389.36)"
         fill="url(#linearGradient3440)" />
      <path
         id="path4009"
         d="m1200.9 531.2c-0.5251 15.656-15.393 27.974-33.209 27.512-17.816-0.46144-31.832-13.527-31.307-29.183s15.393-27.974 33.208-27.512c17.367 0.44983 31.212 12.902 31.32 28.171"
         transform="matrix(-.70792 .040210 0 .72151 871.41 361.73)"
         fill="url(#linearGradient3440)" />
      <path
         id="path4011"
         d="m1200.9 531.2c-0.5251 15.656-15.393 27.974-33.209 27.512-17.816-0.46144-31.832-13.527-31.307-29.183s15.393-27.974 33.208-27.512c17.367 0.44983 31.212 12.902 31.32 28.171"
         transform="matrix(-.74079 .12558 .13604 .80252 1053.7 250.63)"
         fill="url(#linearGradient3440)" />
      <path
         id="path4013"
         d="m1200.9 531.2c-0.5251 15.656-15.393 27.974-33.209 27.512-17.816-0.46144-31.832-13.527-31.307-29.183s15.393-27.974 33.208-27.512c17.367 0.44983 31.212 12.902 31.32 28.171"
         transform="matrix(-.74079 .12558 .13604 .80252 1048.3 236.22)"
         fill="url(#linearGradient3440)" />
      <path
         id="path4015"
         d="m1200.9 531.2c-0.5251 15.656-15.393 27.974-33.209 27.512-17.816-0.46144-31.832-13.527-31.307-29.183s15.393-27.974 33.208-27.512c17.367 0.44983 31.212 12.902 31.32 28.171"
         transform="matrix(-.94502 .053677 0 .72151 1297.3 348.76)"
         fill="url(#linearGradient3440)" />
      <path
         id="path4017"
         d="m1200.9 531.2c-0.5251 15.656-15.393 27.974-33.209 27.512-17.816-0.46144-31.832-13.527-31.307-29.183s15.393-27.974 33.208-27.512c17.367 0.44983 31.212 12.902 31.32 28.171"
         transform="matrix(-.70792 .040210 0 .72151 989.83 364.8)"
         fill="url(#linearGradient3440)" />
      <path
         id="path4019"
         d="m1200.9 531.2c-0.5251 15.656-15.393 27.974-33.209 27.512-17.816-0.46144-31.832-13.527-31.307-29.183s15.393-27.974 33.208-27.512c17.367 0.44983 31.212 12.902 31.32 28.171"
         transform="matrix(-.63039 .096052 .11577 .57803 812.33 379.04)"
         fill="url(#linearGradient3440)" />
      <path
         id="path4021"
         d="m1200.9 531.2c-0.5251 15.656-15.393 27.974-33.209 27.512-17.816-0.46144-31.832-13.527-31.307-29.183s15.393-27.974 33.208-27.512c17.367 0.44983 31.212 12.902 31.32 28.171"
         transform="matrix(-.63039 .096052 .11577 .57803 894.41 378.63)"
         fill="url(#linearGradient3440)" />
      <path
         id="path4023"
         d="m1200.9 531.2c-0.5251 15.656-15.393 27.974-33.209 27.512-17.816-0.46144-31.832-13.527-31.307-29.183s15.393-27.974 33.208-27.512c17.367 0.44983 31.212 12.902 31.32 28.171"
         transform="matrix(-.94502 .053677 0 .72151 1178.1 351.99)"
         fill="url(#linearGradient3440)" />
      <path
         id="path4025"
         d="m1200.9 531.2c-0.5251 15.656-15.393 27.974-33.209 27.512-17.816-0.46144-31.832-13.527-31.307-29.183s15.393-27.974 33.208-27.512c17.367 0.44983 31.212 12.902 31.32 28.171"
         transform="matrix(-.63039 .10631 .11577 .67755 783.11 311.69)"
         fill="url(#linearGradient3440)" />
      <path
         id="path4027"
         d="m1200.9 531.2c-0.5251 15.656-15.393 27.974-33.209 27.512-17.816-0.46144-31.832-13.527-31.307-29.183s15.393-27.974 33.208-27.512c17.367 0.44983 31.212 12.902 31.32 28.171"
         transform="matrix(-.63039 .093488 .11577 .55314 723.76 396.37)"
         fill="url(#linearGradient3440)" />
      <path
         id="path4029"
         d="m1200.9 531.2c-0.5251 15.656-15.393 27.974-33.209 27.512-17.816-0.46144-31.832-13.527-31.307-29.183s15.393-27.974 33.208-27.512c17.367 0.44983 31.212 12.902 31.32 28.171"
         transform="matrix(-.70792 .040210 0 .72151 850.25 367.78)"
         fill="url(#linearGradient3440)" />
      <path
         id="path4031"
         d="m1200.9 531.2c-0.5251 15.656-15.393 27.974-33.209 27.512-17.816-0.46144-31.832-13.527-31.307-29.183s15.393-27.974 33.208-27.512c17.367 0.44983 31.212 12.902 31.32 28.171"
         transform="matrix(-1.1105 .063076 0 1 1521.2 206.55)"
         fill="url(#linearGradient3440)" />
      <path
         id="path4033"
         fill="#22280b"
         d="m2.2084 844.81-0.38534-32.595c68.974 7.1858 41.23 9.1086 89.396 6.7198 29.505-1.4633 87.443 13.326 126.71 17.183 24.832 2.4396 45.247-4.7709 42.069-4.2157-34.823 6.083 21.87 5.4387-0.0944 8.4211-10.098 1.3712-32.273 4.1739-56.164 0.67308-23.89-3.5008-23.216-3.5435-59.347-3.137-49.057 0.55196-57.022 10.441-90.546 5.0582-33.524-5.3825-51.634 1.8919-51.634 1.8919z" />
      <path
         id="path4035"
         d="m1200.9 531.2c-0.5251 15.656-15.393 27.974-33.209 27.512-17.816-0.46144-31.832-13.527-31.307-29.183s15.393-27.974 33.208-27.512c17.367 0.44983 31.212 12.902 31.32 28.171"
         transform="matrix(-.83189 .047251 0 1 1159.9 225.11)"
         fill="url(#linearGradient3440)" />
      <path
         id="path4037"
         d="m1200.9 531.2c-0.5251 15.656-15.393 27.974-33.209 27.512-17.816-0.46144-31.832-13.527-31.307-29.183s15.393-27.974 33.208-27.512c17.367 0.44983 31.212 12.902 31.32 28.171"
         transform="matrix(-.74079 .12558 .13604 .80252 952.06 239.89)"
         fill="url(#linearGradient3440)" />
      <path
         id="path4039"
         d="m1200.9 531.2c-0.5251 15.656-15.393 27.974-33.209 27.512-17.816-0.46144-31.832-13.527-31.307-29.183s15.393-27.974 33.208-27.512c17.367 0.44983 31.212 12.902 31.32 28.171"
         transform="matrix(-.74079 .12558 .13604 .80252 1036.8 245.21)"
         fill="url(#linearGradient3440)" />
      <path
         id="path4041"
         d="m1200.9 531.2c-0.5251 15.656-15.393 27.974-33.209 27.512-17.816-0.46144-31.832-13.527-31.307-29.183s15.393-27.974 33.208-27.512c17.367 0.44983 31.212 12.902 31.32 28.171"
         transform="matrix(-1.1105 .063076 0 1 1381.1 209.6)"
         fill="url(#linearGradient3440)" />
      <path
         id="path4043"
         d="m1200.9 531.2c-0.5251 15.656-15.393 27.974-33.209 27.512-17.816-0.46144-31.832-13.527-31.307-29.183s15.393-27.974 33.208-27.512c17.367 0.44983 31.212 12.902 31.32 28.171"
         transform="matrix(-.74079 .13979 .13604 .94046 916.96 149.01)"
         fill="url(#linearGradient3440)" />
      <path
         id="path4045"
         d="m1200.9 531.2c-0.5251 15.656-15.393 27.974-33.209 27.512-17.816-0.46144-31.832-13.527-31.307-29.183s15.393-27.974 33.208-27.512c17.367 0.44983 31.212 12.902 31.32 28.171"
         transform="matrix(-.74079 .12202 .13604 .76804 847.21 265.66)"
         fill="url(#linearGradient3440)" />
      <path
         id="path4047"
         d="m1200.9 531.2a32.272 28.36 0 1 1 0.013 -1.0124"
         transform="matrix(-.83189 .047251 0 1 992.98 233.3)"
         fill="url(#linearGradient3440)" />
    </g>
    <g
       id="g4215"
       transform="matrix(.69811 .24258 0 1.0049 216.85 -15.41)">
      <path
         id="path4217"
         d="m1200.9 531.2c-0.5251 15.656-15.393 27.974-33.209 27.512-17.816-0.46144-31.832-13.527-31.307-29.183s15.393-27.974 33.208-27.512c17.367 0.44983 31.212 12.902 31.32 28.171"
         transform="matrix(-.63039 .10631 .11577 .67755 694.46 306.67)"
         fill="url(#linearGradient3440)" />
      <path
         id="path4219"
         d="m1200.9 531.2c-0.5251 15.656-15.393 27.974-33.209 27.512-17.816-0.46144-31.832-13.527-31.307-29.183s15.393-27.974 33.208-27.512c17.367 0.44983 31.212 12.902 31.32 28.171"
         transform="matrix(-.94502 .053677 0 .72151 1316.9 341.75)"
         fill="url(#linearGradient3440)" />
      <path
         id="path4221"
         d="m1200.9 531.2c-0.5251 15.656-15.393 27.974-33.209 27.512-17.816-0.46144-31.832-13.527-31.307-29.183s15.393-27.974 33.208-27.512c17.367 0.44983 31.212 12.902 31.32 28.171"
         transform="matrix(-.70792 .040210 0 .72151 1009.4 357.8)"
         fill="url(#linearGradient3440)" />
      <path
         id="path4223"
         d="m1200.9 531.2c-0.5251 15.656-15.393 27.974-33.209 27.512-17.816-0.46144-31.832-13.527-31.307-29.183s15.393-27.974 33.208-27.512c17.367 0.44983 31.212 12.902 31.32 28.171"
         transform="matrix(-.63039 .096052 .11577 .57803 831.95 372.04)"
         fill="url(#linearGradient3440)" />
      <path
         id="path4225"
         d="m1200.9 531.2c-0.5251 15.656-15.393 27.974-33.209 27.512-17.816-0.46144-31.832-13.527-31.307-29.183s15.393-27.974 33.208-27.512c17.367 0.44983 31.212 12.902 31.32 28.171"
         transform="matrix(-.63039 .096052 .11577 .57803 914.03 371.62)"
         fill="url(#linearGradient3440)" />
      <path
         id="path4227"
         d="m1200.9 531.2c-0.5251 15.656-15.393 27.974-33.209 27.512-17.816-0.46144-31.832-13.527-31.307-29.183s15.393-27.974 33.208-27.512c17.367 0.44983 31.212 12.902 31.32 28.171"
         transform="matrix(-.94502 .053677 0 .72151 1197.7 344.98)"
         fill="url(#linearGradient3440)" />
      <path
         id="path4229"
         d="m1200.9 531.2c-0.5251 15.656-15.393 27.974-33.209 27.512-17.816-0.46144-31.832-13.527-31.307-29.183s15.393-27.974 33.208-27.512c17.367 0.44983 31.212 12.902 31.32 28.171"
         transform="matrix(-.63039 .10631 .11577 .67755 802.73 304.69)"
         fill="url(#linearGradient3440)" />
      <path
         id="path4231"
         d="m1200.9 531.2c-0.5251 15.656-15.393 27.974-33.209 27.512-17.816-0.46144-31.832-13.527-31.307-29.183s15.393-27.974 33.208-27.512c17.367 0.44983 31.212 12.902 31.32 28.171"
         transform="matrix(-.63039 .093488 .11577 .55314 743.38 389.36)"
         fill="url(#linearGradient3440)" />
      <path
         id="path4233"
         d="m1200.9 531.2c-0.5251 15.656-15.393 27.974-33.209 27.512-17.816-0.46144-31.832-13.527-31.307-29.183s15.393-27.974 33.208-27.512c17.367 0.44983 31.212 12.902 31.32 28.171"
         transform="matrix(-.70792 .040210 0 .72151 871.41 361.73)"
         fill="url(#linearGradient3440)" />
      <path
         id="path4235"
         d="m1200.9 531.2c-0.5251 15.656-15.393 27.974-33.209 27.512-17.816-0.46144-31.832-13.527-31.307-29.183s15.393-27.974 33.208-27.512c17.367 0.44983 31.212 12.902 31.32 28.171"
         transform="matrix(-.74079 .12558 .13604 .80252 1053.7 250.63)"
         fill="url(#linearGradient3440)" />
      <path
         id="path4237"
         d="m1200.9 531.2c-0.5251 15.656-15.393 27.974-33.209 27.512-17.816-0.46144-31.832-13.527-31.307-29.183s15.393-27.974 33.208-27.512c17.367 0.44983 31.212 12.902 31.32 28.171"
         transform="matrix(-.74079 .12558 .13604 .80252 1048.3 236.22)"
         fill="url(#linearGradient3440)" />
      <path
         id="path4239"
         d="m1200.9 531.2c-0.5251 15.656-15.393 27.974-33.209 27.512-17.816-0.46144-31.832-13.527-31.307-29.183s15.393-27.974 33.208-27.512c17.367 0.44983 31.212 12.902 31.32 28.171"
         transform="matrix(-.94502 .053677 0 .72151 1297.3 348.76)"
         fill="url(#linearGradient3440)" />
      <path
         id="path4241"
         d="m1200.9 531.2c-0.5251 15.656-15.393 27.974-33.209 27.512-17.816-0.46144-31.832-13.527-31.307-29.183s15.393-27.974 33.208-27.512c17.367 0.44983 31.212 12.902 31.32 28.171"
         transform="matrix(-.70792 .040210 0 .72151 989.83 364.8)"
         fill="url(#linearGradient3440)" />
      <path
         id="path4243"
         d="m1200.9 531.2c-0.5251 15.656-15.393 27.974-33.209 27.512-17.816-0.46144-31.832-13.527-31.307-29.183s15.393-27.974 33.208-27.512c17.367 0.44983 31.212 12.902 31.32 28.171"
         transform="matrix(-.63039 .096052 .11577 .57803 812.33 379.04)"
         fill="url(#linearGradient3440)" />
      <path
         id="path4245"
         d="m1200.9 531.2c-0.5251 15.656-15.393 27.974-33.209 27.512-17.816-0.46144-31.832-13.527-31.307-29.183s15.393-27.974 33.208-27.512c17.367 0.44983 31.212 12.902 31.32 28.171"
         transform="matrix(-.63039 .096052 .11577 .57803 894.41 378.63)"
         fill="url(#linearGradient3440)" />
      <path
         id="path4247"
         d="m1200.9 531.2c-0.5251 15.656-15.393 27.974-33.209 27.512-17.816-0.46144-31.832-13.527-31.307-29.183s15.393-27.974 33.208-27.512c17.367 0.44983 31.212 12.902 31.32 28.171"
         transform="matrix(-.94502 .053677 0 .72151 1178.1 351.99)"
         fill="url(#linearGradient3440)" />
      <path
         id="path4249"
         d="m1200.9 531.2c-0.5251 15.656-15.393 27.974-33.209 27.512-17.816-0.46144-31.832-13.527-31.307-29.183s15.393-27.974 33.208-27.512c17.367 0.44983 31.212 12.902 31.32 28.171"
         transform="matrix(-.63039 .10631 .11577 .67755 783.11 311.69)"
         fill="url(#linearGradient3440)" />
      <path
         id="path4251"
         d="m1200.9 531.2c-0.5251 15.656-15.393 27.974-33.209 27.512-17.816-0.46144-31.832-13.527-31.307-29.183s15.393-27.974 33.208-27.512c17.367 0.44983 31.212 12.902 31.32 28.171"
         transform="matrix(-.63039 .093488 .11577 .55314 723.76 396.37)"
         fill="url(#linearGradient3440)" />
      <path
         id="path4253"
         d="m1200.9 531.2c-0.5251 15.656-15.393 27.974-33.209 27.512-17.816-0.46144-31.832-13.527-31.307-29.183s15.393-27.974 33.208-27.512c17.367 0.44983 31.212 12.902 31.32 28.171"
         transform="matrix(-.70792 .040210 0 .72151 850.25 367.78)"
         fill="url(#linearGradient3440)" />
      <path
         id="path4255"
         d="m1200.9 531.2c-0.5251 15.656-15.393 27.974-33.209 27.512-17.816-0.46144-31.832-13.527-31.307-29.183s15.393-27.974 33.208-27.512c17.367 0.44983 31.212 12.902 31.32 28.171"
         transform="matrix(-1.1105 .063076 0 1 1521.2 206.55)"
         fill="url(#linearGradient3440)" />
      <path
         id="path4257"
         d="m2.2084 844.81-0.38534-32.595c68.974 7.1858 41.23 9.1086 89.396 6.7198 29.505-1.4633 87.443 13.326 126.71 17.183 24.832 2.4396 45.247-4.7709 42.069-4.2157-34.823 6.083 21.87 5.4387-0.0944 8.4211-10.098 1.3712-32.273 4.1739-56.164 0.67308-23.89-3.5008-23.216-3.5435-59.347-3.137-49.057 0.55196-57.022 10.441-90.546 5.0582-33.524-5.3825-51.634 1.8919-51.634 1.8919z"
         fill="#22280b" />
      <path
         id="path4259"
         d="m1200.9 531.2c-0.5251 15.656-15.393 27.974-33.209 27.512-17.816-0.46144-31.832-13.527-31.307-29.183s15.393-27.974 33.208-27.512c17.367 0.44983 31.212 12.902 31.32 28.171"
         transform="matrix(-.83189 .047251 0 1 1159.9 225.11)"
         fill="url(#linearGradient3440)" />
      <path
         id="path4261"
         d="m1200.9 531.2c-0.5251 15.656-15.393 27.974-33.209 27.512-17.816-0.46144-31.832-13.527-31.307-29.183s15.393-27.974 33.208-27.512c17.367 0.44983 31.212 12.902 31.32 28.171"
         transform="matrix(-.74079 .12558 .13604 .80252 952.06 239.89)"
         fill="url(#linearGradient3440)" />
      <path
         id="path4263"
         d="m1200.9 531.2c-0.5251 15.656-15.393 27.974-33.209 27.512-17.816-0.46144-31.832-13.527-31.307-29.183s15.393-27.974 33.208-27.512c17.367 0.44983 31.212 12.902 31.32 28.171"
         transform="matrix(-.74079 .12558 .13604 .80252 1036.8 245.21)"
         fill="url(#linearGradient3440)" />
      <path
         id="path4265"
         d="m1200.9 531.2c-0.5251 15.656-15.393 27.974-33.209 27.512-17.816-0.46144-31.832-13.527-31.307-29.183s15.393-27.974 33.208-27.512c17.367 0.44983 31.212 12.902 31.32 28.171"
         transform="matrix(-1.1105 .063076 0 1 1381.1 209.6)"
         fill="url(#linearGradient3440)" />
      <path
         id="path4267"
         d="m1200.9 531.2c-0.5251 15.656-15.393 27.974-33.209 27.512-17.816-0.46144-31.832-13.527-31.307-29.183s15.393-27.974 33.208-27.512c17.367 0.44983 31.212 12.902 31.32 28.171"
         transform="matrix(-.74079 .13979 .13604 .94046 916.96 149.01)"
         fill="url(#linearGradient3440)" />
      <path
         id="path4269"
         d="m1200.9 531.2c-0.5251 15.656-15.393 27.974-33.209 27.512-17.816-0.46144-31.832-13.527-31.307-29.183s15.393-27.974 33.208-27.512c17.367 0.44983 31.212 12.902 31.32 28.171"
         transform="matrix(-.74079 .12202 .13604 .76804 847.21 265.66)"
         fill="url(#linearGradient3440)" />
      <path
         id="path4271"
         d="m1200.9 531.2a32.272 28.36 0 1 1 0.013 -1.0124"
         transform="matrix(-.83189 .047251 0 1 981.37 231.05)"
         fill="url(#linearGradient3440)" />
    </g>
    <path
       id="path2997"
       d="m-7.2587 844.89v208.76h825.46c-490.08-333.46-644.99-254.8-825.46-208.71z"
       fill="url(#linearGradient3659)" />
    <path
       id="path3794"
       fill-opacity=".56432"
       fill="#8a912d"
       d="m229.83 802.46c122.68 48.437 320.16 164.38 400.67 251.19h131.23c-104.63-86.26-317.1-191.51-444.41-242.25-31.462-5.7794-60.405-8.4725-87.489-8.8871z" />
    <path
       id="path3820"
       d="m642.92 976.9h729.04l-4.5064-171.29c-4.7734-5.435-451.82-3.2623-724.53 171.29z"
       fill="url(#linearGradient3655)" />
    <path
       id="path3946"
       d="m752.74 942.95c-32.37-14.01-123.92-41.68-145.66-56.75-9.5557-6.6258-7.6337-18.204 9.1387-19.702 90.774-8.1095 6.3063-27.675-63.364-42.875l6.7268-1.188c294.26 69.088-157.32 19.07 192.35 99.195l0.90944 5.8876-111.96-28.805 110.7 32.493z"
       fill-opacity=".43568"
       fill="#2b2200" />
    <path
       id="rect2994"
       d="m1369.5 954.84 1.4437 98.818h-828.34c195.39-178.58 388.53-202.65 559.34-211.27 168.89-8.5265 46.492 48.042 88.598 63.963 54.968 20.784 41.935-33.975 178.99 48.443z"
       fill="url(#linearGradient3651)" />
    <path
       id="rect3789"
       fill-opacity=".64315"
       fill="#8a913d"
       d="m48.347 830.06c-18.52 4.9729-36.948 10.054-55.615 14.822v5.998c48.141 65.118 78.792 134.45 111.54 202.77h111.39c-50.3-74.68-97.84-150.54-167.31-223.54z" />
    <path
       id="path3792"
       fill="url(#linearGradient3647)"
       d="m168.12 805.41c-19.192 2.1122-37.576 5.2102-55.458 8.9185 90.647 70.941 164.51 155.3 232.42 239.32h158.74c-103.23-91.99-226.15-184.96-335.7-248.19z" />
    <path
       id="path3824"
       d="m1200.9 531.2a32.272 28.36 0 1 1 0.013 -1.0124"
       transform="matrix(1.1198 0 0 1.0526 -163.49 241.05)"
       fill="url(#linearGradient3440)" />
    <path
       id="path3940"
       fill="#22280b"
       d="m1373 822.06 0.3958-34.332c-70.838 11.687-42.345 12.053-91.813 12.418-30.303 0.22373-89.807 19.255-130.13 25.662-25.504 4.0525-46.47-2.3166-43.206-1.9222 35.764 4.3209-22.461 7.0321 0.097 8.8583 10.371 0.83957 33.146 2.4638 57.682-2.6494s23.844-5.1179 60.951-6.8501c50.383-2.352 58.564 7.5806 92.994-0.0892s53.03-1.0957 53.03-1.0957z" />
    <path
       id="path3834"
       d="m1200.9 531.2a32.272 28.36 0 1 1 0.013 -1.0124"
       transform="matrix(.83882 0 0 1.0526 200.82 238.99)"
       fill="url(#linearGradient3440)" />
    <path
       id="path3838"
       d="m1200.9 531.2a32.272 28.36 0 1 1 0.013 -1.0124"
       transform="matrix(.74696 .087890 -.13718 .85285 410.37 242.12)"
       fill="url(#linearGradient3440)" />
    <path
       id="path3842"
       d="m1200.9 531.2a32.272 28.36 0 1 1 0.013 -1.0124"
       transform="matrix(.74696 .087890 -.13718 .85285 324.88 252.79)"
       fill="url(#linearGradient3440)" />
    <path
       id="path3854"
       d="m1200.9 531.2a32.272 28.36 0 1 1 0.013 -1.0124"
       transform="matrix(1.1198 0 0 1.0526 -22.273 235.89)"
       fill="url(#linearGradient3440)" />
    <path
       id="path3846"
       d="m1200.9 531.2a32.272 28.36 0 1 1 0.013 -1.0124"
       transform="matrix(.74696 .10285 -.13718 .99805 445.76 144.37)"
       fill="url(#linearGradient3440)" />
    <path
       id="path3850"
       d="m1200.9 531.2a32.272 28.36 0 1 1 0.013 -1.0124"
       transform="matrix(.74696 .084149 -.13718 .81655 516.09 262.98)"
       fill="url(#linearGradient3440)" />
    <path
       id="path3858"
       d="m1200.9 531.2a32.272 28.36 0 1 1 0.013 -1.0124"
       transform="matrix(.83882 0 0 1.0526 366.21 231.75)"
       fill="url(#linearGradient3440)" />
    <path
       id="path3942"
       d="m770.73 908.23c132.69 25.223 250.75 69.28 367.54 147.92l39.258 4.4284c-82.1-54.4-235.06-128.94-403.06-154.55z"
       fill-opacity=".64730"
       fill="#540" />
    <path
       id="path3944"
       d="m781.01 903.2c133.01 18.396 288.68 74.598 410.85 153.67l28.248 0.1167c-108.3-72.93-270.79-137.69-435.29-155.98z"
       fill-opacity=".64730"
       fill="#540" />
    <path
       id="path3074"
       d="m610.55 812.47c-1.19 7.0544-7.1852 11.931-13.391 10.892-6.2054-1.0388-12.003-8.1959-9.0812-14.654 6.4117-14.17 9.6779-15.109 14.37-12.628 9.2528 4.8931 9.1153 9.0237 8.1718 15.932"
       fill="url(#linearGradient3633)" />
    <g
       id="g3240"
       transform="matrix(.15814 0 0 .12803 46.487 915.59)">
      <path
         id="path3236"
         d="m804.44 696.54s-19.396-34.709-35.73-70.44c-16.334-35.73-6.1252-32.668-27.563-54.106s-49.002-18.376-65.335 10.209c-16.334 28.584-17.355 60.231-36.751 89.836s-33.689 45.939-33.689 45.939-21.438 11.23-1.0209 0 37.772-1.0209 37.772-1.0209l85.753 10.209s67.377 9.1878 31.647-4.0835 44.918-26.543 44.918-26.543z"
         transform="translate(0 284.36)"
         fill="#c8ab37" />
      <path
         id="path3238"
         d="m631.92 699.6s20.417-4.0835 31.647-30.626c11.23-26.543 0-67.377 22.459-84.732s26.543-19.396 26.543-19.396-26.543 45.939-19.396 79.628c7.1461 33.689 25.522 40.835 9.1878 55.127s-29.605 11.23-43.897 5.1043c-14.292-6.1252-26.543-5.1043-26.543-5.1043z"
         transform="translate(0 284.36)"
         fill="#a0892c" />
    </g>
    <g
       id="g3244"
       transform="matrix(.14199 0 0 .12671 19.978 880.69)">
      <path
         id="path3246"
         fill="#c8ab37"
         d="m804.44 696.54s-19.396-34.709-35.73-70.44c-16.334-35.73-6.1252-32.668-27.563-54.106s-49.002-18.376-65.335 10.209c-16.334 28.584-17.355 60.231-36.751 89.836s-33.689 45.939-33.689 45.939-21.438 11.23-1.0209 0 37.772-1.0209 37.772-1.0209l85.753 10.209s67.377 9.1878 31.647-4.0835 44.918-26.543 44.918-26.543z"
         transform="translate(0 284.36)" />
      <path
         id="path3248"
         d="m631.92 699.6s20.417-4.0835 31.647-30.626c11.23-26.543 0-67.377 22.459-84.732s26.543-19.396 26.543-19.396-26.543 45.939-19.396 79.628c7.1461 33.689 25.522 40.835 9.1878 55.127s-29.605 11.23-43.897 5.1043c-14.292-6.1252-26.543-5.1043-26.543-5.1043z"
         transform="translate(0 284.36)"
         fill="#a0892c" />
    </g>
    <g
       id="g3250"
       transform="matrix(.11596 0 0 .10907 33.207 856.42)">
      <path
         id="path3252"
         d="m804.44 696.54s-19.396-34.709-35.73-70.44c-16.334-35.73-6.1252-32.668-27.563-54.106s-49.002-18.376-65.335 10.209c-16.334 28.584-17.355 60.231-36.751 89.836s-33.689 45.939-33.689 45.939-21.438 11.23-1.0209 0 37.772-1.0209 37.772-1.0209l85.753 10.209s67.377 9.1878 31.647-4.0835 44.918-26.543 44.918-26.543z"
         transform="translate(0 284.36)"
         fill="#c8ab37" />
      <path
         id="path3254"
         d="m631.92 699.6s20.417-4.0835 31.647-30.626c11.23-26.543 0-67.377 22.459-84.732s26.543-19.396 26.543-19.396-26.543 45.939-19.396 79.628c7.1461 33.689 25.522 40.835 9.1878 55.127s-29.605 11.23-43.897 5.1043c-14.292-6.1252-26.543-5.1043-26.543-5.1043z"
         transform="translate(0 284.36)"
         fill="#a0892c" />
    </g>
    <g
       id="g3256"
       transform="matrix(.096318 0 0 .097157 10.025 842.86)">
      <path
         id="path3258"
         fill="#c8ab37"
         d="m804.44 696.54s-19.396-34.709-35.73-70.44c-16.334-35.73-6.1252-32.668-27.563-54.106s-49.002-18.376-65.335 10.209c-16.334 28.584-17.355 60.231-36.751 89.836s-33.689 45.939-33.689 45.939-21.438 11.23-1.0209 0 37.772-1.0209 37.772-1.0209l85.753 10.209s67.377 9.1878 31.647-4.0835 44.918-26.543 44.918-26.543z"
         transform="translate(0 284.36)" />
      <path
         id="path3260"
         d="m631.92 699.6s20.417-4.0835 31.647-30.626c11.23-26.543 0-67.377 22.459-84.732s26.543-19.396 26.543-19.396-26.543 45.939-19.396 79.628c7.1461 33.689 25.522 40.835 9.1878 55.127s-29.605 11.23-43.897 5.1043c-14.292-6.1252-26.543-5.1043-26.543-5.1043z"
         transform="translate(0 284.36)"
         fill="#a0892c" />
    </g>
    <g
       id="g3262"
       transform="matrix(.081586 0 0 .085137 13.669 827.34)">
      <path
         id="path3264"
         d="m804.44 696.54s-19.396-34.709-35.73-70.44c-16.334-35.73-6.1252-32.668-27.563-54.106s-49.002-18.376-65.335 10.209c-16.334 28.584-17.355 60.231-36.751 89.836s-33.689 45.939-33.689 45.939-21.438 11.23-1.0209 0 37.772-1.0209 37.772-1.0209l85.753 10.209s67.377 9.1878 31.647-4.0835 44.918-26.543 44.918-26.543z"
         transform="translate(0 284.36)"
         fill="#c8ab37" />
      <path
         id="path3266"
         d="m631.92 699.6s20.417-4.0835 31.647-30.626c11.23-26.543 0-67.377 22.459-84.732s26.543-19.396 26.543-19.396-26.543 45.939-19.396 79.628c7.1461 33.689 25.522 40.835 9.1878 55.127s-29.605 11.23-43.897 5.1043c-14.292-6.1252-26.543-5.1043-26.543-5.1043z"
         transform="translate(0 284.36)"
         fill="#a0892c" />
    </g>
    <g
       id="g3268"
       transform="matrix(.061944 0 0 .054923 -8.4865 812.78)">
      <path
         id="path3270"
         fill="#c8ab37"
         d="m804.44 696.54s-19.396-34.709-35.73-70.44c-16.334-35.73-6.1252-32.668-27.563-54.106s-49.002-18.376-65.335 10.209c-16.334 28.584-17.355 60.231-36.751 89.836s-33.689 45.939-33.689 45.939-21.438 11.23-1.0209 0 37.772-1.0209 37.772-1.0209l85.753 10.209s67.377 9.1878 31.647-4.0835 44.918-26.543 44.918-26.543z"
         transform="translate(0 284.36)" />
      <path
         id="path3272"
         d="m631.92 699.6s20.417-4.0835 31.647-30.626c11.23-26.543 0-67.377 22.459-84.732s26.543-19.396 26.543-19.396-26.543 45.939-19.396 79.628c7.1461 33.689 25.522 40.835 9.1878 55.127s-29.605 11.23-43.897 5.1043c-14.292-6.1252-26.543-5.1043-26.543-5.1043z"
         transform="translate(0 284.36)"
         fill="#a0892c" />
    </g>
    <path
       id="path3791"
       d="m930.53 200.41c-21.14 0-38.28 10.28-38.28 22.97 0 8.03 6.87 15.08 17.28 19.18-0.55 0.47-1.06 0.97-1.47 1.5-3.89-0.5-8.19-0.78-12.75-0.78-1.55 0-3.07 0.03-4.56 0.1-3.01-1.38-6.25-2.49-9.69-3.35 0.61-0.74 0.97-1.54 0.97-2.37 0-3.67-6.39-6.63-14.28-6.63-4.81 0-9.07 1.09-11.66 2.78-3.19-5.8-11.4-9.93-21.03-9.93-12.06 0-21.9 6.48-22.44 14.62-5.88 1.11-10.21 4.89-10.21 9.38 0 2.57 1.43 4.88 3.75 6.62h-0.19c-10.43 0-18.88 5.95-18.88 13.28 0 2.23 0.81 4.31 2.19 6.16-6.4 0.35-11.37 3.17-11.37 6.59 0 3.67 5.7 6.66 12.75 6.66 1.4 0 2.76-0.13 4.03-0.35-0.95 1.39-1.47 2.87-1.47 4.41 0 7.89 13.49 14.31 30.12 14.31 1.27 0 2.5-0.08 3.72-0.15 7.2 1.35 16.38 2.18 26.38 2.18 11.24 0 21.42-1.04 28.94-2.71 5.14 1.06 10.88 1.68 17 1.68h0.34c7.25 3.86 16.11 6.13 25.69 6.13 11.09 0 21.24-3.04 29.03-8.07 9.87 6.03 29.07 10.13 51.16 10.13 13.5 0 25.9-1.55 35.7-4.13 7.9 4.39 19.6 7.19 32.6 7.19 6.1 0 11.8-0.62 17-1.69 2.4 1.66 5.8 2.69 9.6 2.69 4.6 0 8.6-1.5 11-3.81 2.9 1.1 6.5 1.78 10.4 1.78 1.4 0 2.8-0.09 4.1-0.25 2.1 2 5.7 3.31 9.7 3.31 6.1 0 11.1-3.01 11.7-6.87 2.6 1.67 7.4 2.78 12.8 2.78 2.1 0 4.1-0.17 5.9-0.47 3.7 2.19 8.6 3.53 14 3.53 3.7 0 7.2-0.61 10.3-1.72 0.6 1.55 5.3 2.75 11.2 2.75 6.2 0 11.2-1.37 11.2-3.06s-5-3.06-11.2-3.06c3.6-1.39 6.1-4.08 6.1-7.16 0-2.15-1.2-4.1-3.2-5.56 0.7-1.09 1.2-2.33 1.2-3.62 0-4.52-4.8-8.16-10.8-8.16-0.1 0-0.3-0.01-0.5 0 0-4.51-7.1-8.19-15.8-8.19-6.6 0-12.2 2.08-14.6 5.03-1.3-0.51-2.9-0.83-4.6-0.9 0.8-1.21 1.3-2.63 1.3-4.13 0-4.51-4.3-8.15-9.7-8.15-5.3 0-9.7 3.64-9.7 8.15 0 2.46 1.3 4.66 3.4 6.16-0.3-0.01-0.6 0-0.8 0-10.5 0-18.9 4.8-18.9 10.72 0 0.57 0.1 1.13 0.2 1.68-1-0.1-2.1-0.15-3.3-0.15-1.9 0-3.7 0.15-5.4 0.44 0.2-0.82 0.3-1.66 0.3-2.5 0-5.62-4.7-10.72-12.4-14.41 3.8-1.96 6.3-5.06 6.3-8.56 0-5.92-7.1-10.72-15.8-10.72-1.1 0-2.2 0.08-3.2 0.22-3.3-4.4-9.6-7.38-16.7-7.38-6.9 0-13 2.75-16.4 6.88-0.5-6.52-7.3-12.12-17.1-15 0.5-0.98 0.8-2.03 0.8-3.1 0-6.2-9.4-11.22-20.9-11.22-1.5 0-3 0.09-4.5 0.25-6.8-4.54-15.3-7.7-24.81-8.9 0.77-1.13 1.22-2.34 1.22-3.6 0-6.2-10.06-11.25-22.47-11.25-2.72 0-5.33 0.28-7.75 0.72-6.74-6.54-18.79-10.9-32.56-10.9zm-110 75.84c0.07 0.26 0.14 0.52 0.22 0.78-0.44 0.02-0.88 0.04-1.31 0.06 0.38-0.27 0.74-0.55 1.09-0.84zm344.87 17.47c0.1 0.08 0.2 0.17 0.3 0.25-1.2 0.72-2.3 1.5-3.2 2.37-0.1-0.46-0.2-0.9-0.5-1.34 1.3-0.28 2.5-0.73 3.4-1.28z"
       transform="translate(0 284.36)"
       fill="url(#linearGradient4654)" />
  </g>
</svg>
