<?xml version="1.0" encoding="utf-8"?>
<!-- Generator: Adobe Illustrator 19.1.0, SVG Export Plug-In . SVG Version: 6.00 Build 0)  -->
<svg version="1.1" id="Layer_1" xmlns="http://www.w3.org/2000/svg" xmlns:xlink="http://www.w3.org/1999/xlink" x="0px" y="0px"
	 viewBox="0 0 792 408" style="enable-background:new 0 0 792 408;" xml:space="preserve">
<style type="text/css">
	.st0{fill:#E6E6E6;}
</style>
<path class="st0" d="M665.8,151.8c-0.2,0-0.3,1.2-0.5,1.2h-0.5c0-1,0-1.6,0-1.7c0-0.2,0-1,0-1.1c0.1-2.2,0.2-4.6,0.2-6.8
	c0-68.1-55.4-123.7-123.5-123.7c-31.1,0-59.5,11.5-81.2,30.5c-0.1,0.1-0.2,0.1-0.3,0.2c-0.1,0.1-0.3,0.2-0.4,0.4
	c-0.1-0.1-0.3-0.3-0.4-0.4c-0.1-0.1-0.2-0.2-0.3-0.3C428.2,21.5,387.1,4,342,4C265.7,4,200.9,54,178.7,123c-0.1,0.2-0.1,0.3-0.2,0.5
	c-0.1,0.2-0.1,0.3-0.2,0.5c-0.2,0-0.4,1.5-0.5,1.5c-0.2,0-0.3,1.5-0.5,1.5H177c-48.1,0-88.5,37.5-88.7,85.5c0,0.2-1.3-1.2-1.3-1v0
	c0,0.1,1.3,0.3,1.3,0.5c-0.2,0,0.3,0,0.1,0c-0.2,0,0,0-0.2,0.1c-48.5,5.2-86.4,47.8-86.4,97.7c0,53.4,43.6,98.2,97,98.2h573.4
	c0.9,0,1.8,0,2.7,0c14.3-1.2,28.1-6.9,40.8-12.5c2.2-1,4.4-2.4,6.5-3.5c2.1-1.1,4.2-2.4,6.3-3.6c38-22.1,63.5-62.7,63.5-109.7
	C792,208.9,735.5,152.5,665.8,151.8z"/>
</svg>
