<?xml version="1.0" encoding="utf-8"?>
<!-- Generator: Adobe Illustrator 19.1.0, SVG Export Plug-In . SVG Version: 6.00 Build 0)  -->
<svg version="1.1" id="Layer_1" xmlns="http://www.w3.org/2000/svg" xmlns:xlink="http://www.w3.org/1999/xlink" x="0px" y="0px"
	 viewBox="-23 153 208 208" style="enable-background:new -23 153 208 208;" xml:space="preserve">
<style type="text/css">
	.st0{fill:#95969A;}
</style>
<path class="st0" d="M115.2,158.7c21.5,18.2,35.2,45.4,35.2,75.8c0,54.8-44.4,99.2-99.2,99.2c-20.4,0-39.4-6.2-55.2-16.8
	C14.8,343.6,45.9,361,81,361c57.4,0,104-46.6,104-104C185,211.5,155.8,172.9,115.2,158.7z"/>
<polygon class="st0" points="5,217.4 13.7,234.9 33,237.7 19,251.4 22.3,270.7 5,261.6 -12.3,270.7 -9,251.4 -23,237.7 -3.6,234.9 
	"/>
<polygon class="st0" points="60.3,153 64.9,162.3 75.1,163.8 67.7,171 69.5,181.2 60.3,176.3 51.2,181.2 52.9,171 45.5,163.8 
	55.8,162.3 "/>
<polygon class="st0" points="82.6,206.9 86,213.8 93.7,214.9 88.1,220.3 89.4,227.9 82.6,224.3 75.8,227.9 77.1,220.3 71.6,214.9 
	79.2,213.8 "/>
</svg>
