<?xml version="1.0" encoding="utf-8"?>
<!-- Generator: Adobe Illustrator 19.1.0, SVG Export Plug-In . SVG Version: 6.00 Build 0)  -->
<svg version="1.1" id="Layer_1" xmlns="http://www.w3.org/2000/svg" xmlns:xlink="http://www.w3.org/1999/xlink" x="0px" y="0px"
	 viewBox="0 0 208 111.4" style="enable-background:new 0 0 208 111.4;" xml:space="preserve">
<style type="text/css">
	.st0{fill:#FAB62D;}
</style>
<path class="st0" d="M44.6,104c0-33.1,27-59.9,60.2-59.4c32.7,0.4,58.6,27.6,58.6,60.3v0c0,3.6-2.9,6.6-6.6,6.6H52
	C47.9,111.4,44.6,108.1,44.6,104L44.6,104z"/>
<path class="st0" d="M104,0L104,0c-4.1,0-7.4,3.3-7.4,7.4V26c0,4.1,3.3,7.4,7.4,7.4l0,0c4.1,0,7.4-3.3,7.4-7.4V7.4
	C111.4,3.3,108.1,0,104,0z"/>
<path class="st0" d="M208,104L208,104c0-4.1-3.3-7.4-7.4-7.4l-18.6,0c-4.1,0-7.4,3.3-7.4,7.4l0,0c0,4.1,3.3,7.4,7.4,7.4l18.6,0
	C204.7,111.4,208,108.1,208,104z"/>
<path class="st0" d="M0,103.9L0,103.9c0-4.1,3.3-7.4,7.4-7.4l18.6,0c4.1,0,7.4,3.3,7.4,7.4l0,0c0,4.1-3.3,7.4-7.4,7.4l-18.6,0
	C3.3,111.3,0,107.9,0,103.9z"/>
<path class="st0" d="M177.5,30.5L177.5,30.5c-2.9-2.9-7.6-2.9-10.5,0l-13.1,13.1c-2.9,2.9-2.9,7.6,0,10.5l0,0
	c2.9,2.9,7.6,2.9,10.5,0L177.5,41C180.4,38.1,180.4,33.3,177.5,30.5z"/>
<path class="st0" d="M30.6,30.4L30.6,30.4c2.9-2.9,7.6-2.9,10.5,0l13.1,13.1c2.9,2.9,2.9,7.6,0,10.5l0,0c-2.9,2.9-7.6,2.9-10.5,0
	L30.6,40.9C27.7,38,27.7,33.2,30.6,30.4z"/>
</svg>
