<?xml version="1.0" encoding="UTF-8" standalone="no"?>
<!-- Created with Inkscape (http://www.inkscape.org/) -->

<svg
   xmlns:dc="http://purl.org/dc/elements/1.1/"
   xmlns:cc="http://creativecommons.org/ns#"
   xmlns:rdf="http://www.w3.org/1999/02/22-rdf-syntax-ns#"
   xmlns:svg="http://www.w3.org/2000/svg"
   xmlns="http://www.w3.org/2000/svg"
   xmlns:xlink="http://www.w3.org/1999/xlink"
   xmlns:sodipodi="http://sodipodi.sourceforge.net/DTD/sodipodi-0.dtd"
   xmlns:inkscape="http://www.inkscape.org/namespaces/inkscape"
   width="210mm"
   height="297mm"
   viewBox="0 0 744.09448819 1052.3622047"
   id="svg2"
   version="1.1"
   inkscape:version="0.91 r13725"
   sodipodi:docname="button - more.svg">
  <defs
     id="defs4">
    <filter
       id="filter7434">
      <feGaussianBlur
         id="feGaussianBlur3347"
         stdDeviation=".98401" />
    </filter>
    <filter
       id="filter7619">
      <feGaussianBlur
         id="feGaussianBlur3350"
         stdDeviation="2.48436" />
    </filter>
    <filter
       y="-.21976"
       x="-.26435"
       width="1.52871"
       id="filter7785"
       height="1.43951">
      <feGaussianBlur
         id="feGaussianBlur3353"
         stdDeviation="3.38782" />
    </filter>
    <linearGradient
       id="linearGradient7555">
      <stop
         id="stop3356"
         stop-color="#ff0"
         offset="0" />
      <stop
         id="stop3358"
         stop-opacity="0"
         stop-color="#ff0"
         offset="1" />
    </linearGradient>
    <linearGradient
       id="linearGradient7666">
      <stop
         id="stop3361"
         stop-color="#666"
         offset="0" />
      <stop
         id="stop3363"
         stop-opacity="0"
         stop-color="#666"
         offset="1" />
    </linearGradient>
    <linearGradient
       y2="74.50504"
       y1="20.93361"
       x2="552.14288"
       x1="553.92859"
       id="linearGradient9795"
       gradientUnits="userSpaceOnUse">
      <stop
         id="stop3366"
         stop-color="#f60"
         offset="0" />
      <stop
         id="stop3368"
         stop-opacity="0"
         stop-color="#f60"
         offset="1" />
    </linearGradient>
    <linearGradient
       y2="178.58023"
       y1="50.79593"
       x2="527.29962"
       x1="565.68542"
       id="linearGradient9829"
       gradientUnits="userSpaceOnUse">
      <stop
         id="stop3371"
         stop-color="#fff"
         offset="0" />
      <stop
         id="stop3373"
         stop-opacity="0"
         stop-color="#fff"
         offset="1" />
    </linearGradient>
    <linearGradient
       y2="163.79076"
       y1="130.93361"
       xlink:href="#linearGradient7666"
       x2="576.42859"
       x1="566.07141"
       id="linearGradient9823"
       gradientUnits="userSpaceOnUse" />
    <linearGradient
       y2="147.71933"
       y1="114.86218"
       xlink:href="#linearGradient7666"
       x2="491.07144"
       x1="506.07141"
       id="linearGradient9825"
       gradientUnits="userSpaceOnUse" />
    <linearGradient
       y2="163.79076"
       y1="166.64789"
       xlink:href="#linearGradient7555"
       x2="511.42856"
       x1="537.14288"
       id="linearGradient9827"
       gradientUnits="userSpaceOnUse" />
    <radialGradient
       xlink:href="#linearGradient7555"
       r="93.94418"
       id="radialGradient9819"
       gradientUnits="userSpaceOnUse"
       gradientTransform="matrix(1.16667,0.15591,-0.12142,0.90859,-60.76852,-66.63595)"
       cy="139.57465"
       cx="522.91431" />
    <linearGradient
       inkscape:collect="always"
       xlink:href="#linearGradient9795"
       id="linearGradient3612"
       gradientUnits="userSpaceOnUse"
       x1="553.92859"
       y1="20.93361"
       x2="552.14288"
       y2="74.50504" />
    <linearGradient
       inkscape:collect="always"
       xlink:href="#linearGradient9795"
       id="linearGradient3614"
       gradientUnits="userSpaceOnUse"
       x1="553.92859"
       y1="20.93361"
       x2="552.14288"
       y2="74.50504" />
    <linearGradient
       inkscape:collect="always"
       xlink:href="#linearGradient9795"
       id="linearGradient3616"
       gradientUnits="userSpaceOnUse"
       x1="553.92859"
       y1="20.93361"
       x2="552.14288"
       y2="74.50504" />
    <linearGradient
       inkscape:collect="always"
       xlink:href="#linearGradient9795"
       id="linearGradient3618"
       gradientUnits="userSpaceOnUse"
       x1="553.92859"
       y1="20.93361"
       x2="552.14288"
       y2="74.50504" />
    <linearGradient
       inkscape:collect="always"
       xlink:href="#linearGradient9795"
       id="linearGradient3620"
       gradientUnits="userSpaceOnUse"
       x1="553.92859"
       y1="20.93361"
       x2="552.14288"
       y2="74.50504" />
    <linearGradient
       inkscape:collect="always"
       xlink:href="#linearGradient9795"
       id="linearGradient3622"
       gradientUnits="userSpaceOnUse"
       x1="553.92859"
       y1="20.93361"
       x2="552.14288"
       y2="74.50504" />
    <linearGradient
       inkscape:collect="always"
       xlink:href="#linearGradient9795"
       id="linearGradient3624"
       gradientUnits="userSpaceOnUse"
       x1="553.92859"
       y1="20.93361"
       x2="552.14288"
       y2="74.50504" />
    <linearGradient
       inkscape:collect="always"
       xlink:href="#linearGradient9795"
       id="linearGradient3626"
       gradientUnits="userSpaceOnUse"
       x1="553.92859"
       y1="20.93361"
       x2="552.14288"
       y2="74.50504" />
    <linearGradient
       inkscape:collect="always"
       xlink:href="#linearGradient9795"
       id="linearGradient3628"
       gradientUnits="userSpaceOnUse"
       x1="553.92859"
       y1="20.93361"
       x2="552.14288"
       y2="74.50504" />
    <linearGradient
       inkscape:collect="always"
       xlink:href="#linearGradient9795"
       id="linearGradient3630"
       gradientUnits="userSpaceOnUse"
       x1="553.92859"
       y1="20.93361"
       x2="552.14288"
       y2="74.50504" />
    <linearGradient
       inkscape:collect="always"
       xlink:href="#linearGradient9795"
       id="linearGradient3632"
       gradientUnits="userSpaceOnUse"
       x1="553.92859"
       y1="20.93361"
       x2="552.14288"
       y2="74.50504" />
    <linearGradient
       inkscape:collect="always"
       xlink:href="#linearGradient9795"
       id="linearGradient3634"
       gradientUnits="userSpaceOnUse"
       x1="553.92859"
       y1="20.93361"
       x2="552.14288"
       y2="74.50504" />
    <radialGradient
       inkscape:collect="always"
       xlink:href="#linearGradient7555"
       id="radialGradient3636"
       gradientUnits="userSpaceOnUse"
       gradientTransform="matrix(1.16667,0.15591,-0.12142,0.90859,-60.76852,-66.63595)"
       cx="522.91431"
       cy="139.57465"
       r="93.94418" />
  </defs>
  <sodipodi:namedview
     id="base"
     pagecolor="#ffffff"
     bordercolor="#666666"
     borderopacity="1.0"
     inkscape:pageopacity="0.0"
     inkscape:pageshadow="2"
     inkscape:zoom="1.4"
     inkscape:cx="461.76834"
     inkscape:cy="218.42362"
     inkscape:document-units="px"
     inkscape:current-layer="layer1"
     showgrid="false"
     inkscape:window-width="1920"
     inkscape:window-height="1018"
     inkscape:window-x="-8"
     inkscape:window-y="-8"
     inkscape:window-maximized="1" />
  <metadata
     id="metadata7">
    <rdf:RDF>
      <cc:Work
         rdf:about="">
        <dc:format>image/svg+xml</dc:format>
        <dc:type
           rdf:resource="http://purl.org/dc/dcmitype/StillImage" />
        <dc:title></dc:title>
      </cc:Work>
    </rdf:RDF>
  </metadata>
  <g
     inkscape:label="Layer 1"
     inkscape:groupmode="layer"
     id="layer1">
    <path
       style="fill:#ff9955;fill-rule:evenodd;stroke:#000000;stroke-width:1px;stroke-linecap:butt;stroke-linejoin:miter;stroke-opacity:1"
       d="M 2.1428572,1051.648 746.42857,1054.5051 745,880.93363 0.71428575,882.36221 Z"
       id="path3336"
       inkscape:connector-curvature="0"
       sodipodi:nodetypes="ccccc" />
    <text
       xml:space="preserve"
       style="font-style:normal;font-weight:normal;font-size:132.7401123px;line-height:125%;font-family:sans-serif;letter-spacing:0px;word-spacing:0px;fill:#000000;fill-opacity:1;stroke:none;stroke-width:1px;stroke-linecap:butt;stroke-linejoin:miter;stroke-opacity:1"
       x="24.160999"
       y="905.58691"
       id="text3338"
       sodipodi:linespacing="125%"
       transform="scale(0.89408607,1.1184606)"><tspan
         sodipodi:role="line"
         id="tspan3340"
         x="24.160999"
         y="905.58691">MORE</tspan></text>
    <g
       id="g3379"
       transform="matrix(0.56101113,0,0,0.48421801,314.86241,893.01333)">
      <path
         id="path3381"
         d="m 526.19663,66.95067 c 0,0 -4.23264,-19.76476 9.30865,-30.29687 13.54129,-10.53211 27.08259,-10.53212 27.08259,-22.56883 0,-12.03671 -5.35714,-20.25099 -5.35714,-20.25099 0,0 19.18368,15.65688 18.89843,29.27852 -0.43315,20.68415 -15.55278,21.6469 -16.04129,29.73462 -0.56226,9.30866 5.30407,21.62649 5.30407,21.62649 z"
         inkscape:connector-curvature="0"
         style="filter:url(#filter7434)" />
      <path
         id="path3383"
         d="m 526.19663,66.95067 c 0,0 -4.23264,-19.76476 9.30865,-30.29687 13.54129,-10.53211 27.08259,-10.53212 27.08259,-22.56883 0,-12.03671 -5.35714,-20.25099 -5.35714,-20.25099 0,0 19.18368,15.65688 18.89843,29.27852 -0.43315,20.68415 -15.55278,21.6469 -16.04129,29.73462 -0.56226,9.30866 5.30407,21.62649 5.30407,21.62649 z"
         inkscape:connector-curvature="0"
         style="fill:#ffff00" />
      <path
         id="path3385"
         d="m 561.03125,-0.5625 c 2.19179,6.28571 3.64113,13.38858 1.59375,19.875 -3.36928,6.95428 -11.54202,8.89 -17.71875,12.5625 -7.48568,3.83003 -14.80598,9.47011 -16.91327,18.03013 -1.61771,5.22018 -1.73758,10.81934 -0.86798,16.18862 l 36.5,6.96875 c -2.80815,-7.05556 -5.64561,-14.82308 -4.0756,-22.48345 2.82493,-5.98995 9.92413,-8.61675 12.54264,-14.86237 4.18761,-7.71181 3.95153,-17.69089 -1.17454,-24.91667 C 568.10866,6.141 564.50688,2.20139 560.65625,-1.5625 l 0.375,1 z"
         inkscape:connector-curvature="0"
         style="fill:url(#linearGradient3612)" />
      <g
         id="g3387"
         transform="matrix(-1,0,0,-1,1057.2559,302.66299)">
        <path
           id="path3389"
           d="m 526.19663,66.95067 c 0,0 -4.23264,-19.76476 9.30865,-30.29687 13.54129,-10.53211 27.08259,-10.53212 27.08259,-22.56883 0,-12.03671 -5.35714,-20.25099 -5.35714,-20.25099 0,0 19.18368,15.65688 18.89843,29.27852 -0.43315,20.68415 -15.55278,21.6469 -16.04129,29.73462 -0.56226,9.30866 5.30407,21.62649 5.30407,21.62649 z"
           inkscape:connector-curvature="0"
           style="filter:url(#filter7434)" />
        <path
           id="path3391"
           d="m 526.19663,66.95067 c 0,0 -4.23264,-19.76476 9.30865,-30.29687 13.54129,-10.53211 27.08259,-10.53212 27.08259,-22.56883 0,-12.03671 -5.35714,-20.25099 -5.35714,-20.25099 0,0 19.18368,15.65688 18.89843,29.27852 -0.43315,20.68415 -15.55278,21.6469 -16.04129,29.73462 -0.56226,9.30866 5.30407,21.62649 5.30407,21.62649 z"
           inkscape:connector-curvature="0"
           style="fill:#ffff00" />
        <path
           id="path3393"
           d="m 561.03125,-0.5625 c 2.19179,6.28571 3.64113,13.38858 1.59375,19.875 -3.36928,6.95428 -11.54202,8.89 -17.71875,12.5625 -7.48568,3.83003 -14.80598,9.47011 -16.91327,18.03013 -1.61771,5.22018 -1.73758,10.81934 -0.86798,16.18862 l 36.5,6.96875 c -2.80815,-7.05556 -5.64561,-14.82308 -4.0756,-22.48345 2.82493,-5.98995 9.92413,-8.61675 12.54264,-14.86237 4.18761,-7.71181 3.95153,-17.69089 -1.17454,-24.91667 C 568.10866,6.141 564.50688,2.20139 560.65625,-1.5625 l 0.375,1 z"
           inkscape:connector-curvature="0"
           style="fill:url(#linearGradient3614)" />
      </g>
      <g
         id="g3395"
         transform="matrix(0.86603,0.5,-0.5,0.86603,146.48846,-244.0394)">
        <path
           id="path3397"
           d="m 526.19663,66.95067 c 0,0 -4.23264,-19.76476 9.30865,-30.29687 13.54129,-10.53211 27.08259,-10.53212 27.08259,-22.56883 0,-12.03671 -5.35714,-20.25099 -5.35714,-20.25099 0,0 19.18368,15.65688 18.89843,29.27852 -0.43315,20.68415 -15.55278,21.6469 -16.04129,29.73462 -0.56226,9.30866 5.30407,21.62649 5.30407,21.62649 z"
           inkscape:connector-curvature="0"
           style="filter:url(#filter7434)" />
        <path
           id="path3399"
           d="m 526.19663,66.95067 c 0,0 -4.23264,-19.76476 9.30865,-30.29687 13.54129,-10.53211 27.08259,-10.53212 27.08259,-22.56883 0,-12.03671 -5.35714,-20.25099 -5.35714,-20.25099 0,0 19.18368,15.65688 18.89843,29.27852 -0.43315,20.68415 -15.55278,21.6469 -16.04129,29.73462 -0.56226,9.30866 5.30407,21.62649 5.30407,21.62649 z"
           inkscape:connector-curvature="0"
           style="fill:#ffff00" />
        <path
           id="path3401"
           d="m 561.03125,-0.5625 c 2.19179,6.28571 3.64113,13.38858 1.59375,19.875 -3.36928,6.95428 -11.54202,8.89 -17.71875,12.5625 -7.48568,3.83003 -14.80598,9.47011 -16.91327,18.03013 -1.61771,5.22018 -1.73758,10.81934 -0.86798,16.18862 l 36.5,6.96875 c -2.80815,-7.05556 -5.64561,-14.82308 -4.0756,-22.48345 2.82493,-5.98995 9.92413,-8.61675 12.54264,-14.86237 4.18761,-7.71181 3.95153,-17.69089 -1.17454,-24.91667 C 568.10866,6.141 564.50688,2.20139 560.65625,-1.5625 l 0.375,1 z"
           inkscape:connector-curvature="0"
           style="fill:url(#linearGradient3616)" />
      </g>
      <g
         id="g3403"
         transform="matrix(-0.86603,-0.5,0.5,-0.86603,910.76744,546.70239)">
        <path
           id="path3405"
           d="m 526.19663,66.95067 c 0,0 -4.23264,-19.76476 9.30865,-30.29687 13.54129,-10.53211 27.08259,-10.53212 27.08259,-22.56883 0,-12.03671 -5.35714,-20.25099 -5.35714,-20.25099 0,0 19.18368,15.65688 18.89843,29.27852 -0.43315,20.68415 -15.55278,21.6469 -16.04129,29.73462 -0.56226,9.30866 5.30407,21.62649 5.30407,21.62649 z"
           inkscape:connector-curvature="0"
           style="filter:url(#filter7434)" />
        <path
           id="path3407"
           d="m 526.19663,66.95067 c 0,0 -4.23264,-19.76476 9.30865,-30.29687 13.54129,-10.53211 27.08259,-10.53212 27.08259,-22.56883 0,-12.03671 -5.35714,-20.25099 -5.35714,-20.25099 0,0 19.18368,15.65688 18.89843,29.27852 -0.43315,20.68415 -15.55278,21.6469 -16.04129,29.73462 -0.56226,9.30866 5.30407,21.62649 5.30407,21.62649 z"
           inkscape:connector-curvature="0"
           style="fill:#ffff00" />
        <path
           id="path3409"
           d="m 561.03125,-0.5625 c 2.19179,6.28571 3.64113,13.38858 1.59375,19.875 -3.36928,6.95428 -11.54202,8.89 -17.71875,12.5625 -7.48568,3.83003 -14.80598,9.47011 -16.91327,18.03013 -1.61771,5.22018 -1.73758,10.81934 -0.86798,16.18862 l 36.5,6.96875 c -2.80815,-7.05556 -5.64561,-14.82308 -4.0756,-22.48345 2.82493,-5.98995 9.92413,-8.61675 12.54264,-14.86237 4.18761,-7.71181 3.95153,-17.69089 -1.17454,-24.91667 C 568.10866,6.141 564.50688,2.20139 560.65625,-1.5625 l 0.375,1 z"
           inkscape:connector-curvature="0"
           style="fill:url(#linearGradient3618)" />
      </g>
      <g
         id="g3411"
         transform="matrix(0.5,0.86603,-0.86603,0.5,395.37089,-382.13949)">
        <path
           id="path3413"
           d="m 526.19663,66.95067 c 0,0 -4.23264,-19.76476 9.30865,-30.29687 13.54129,-10.53211 27.08259,-10.53212 27.08259,-22.56883 0,-12.03671 -5.35714,-20.25099 -5.35714,-20.25099 0,0 19.18368,15.65688 18.89843,29.27852 -0.43315,20.68415 -15.55278,21.6469 -16.04129,29.73462 -0.56226,9.30866 5.30407,21.62649 5.30407,21.62649 z"
           inkscape:connector-curvature="0"
           style="filter:url(#filter7434)" />
        <path
           id="path3415"
           d="m 526.19663,66.95067 c 0,0 -4.23264,-19.76476 9.30865,-30.29687 13.54129,-10.53211 27.08259,-10.53212 27.08259,-22.56883 0,-12.03671 -5.35714,-20.25099 -5.35714,-20.25099 0,0 19.18368,15.65688 18.89843,29.27852 -0.43315,20.68415 -15.55278,21.6469 -16.04129,29.73462 -0.56226,9.30866 5.30407,21.62649 5.30407,21.62649 z"
           inkscape:connector-curvature="0"
           style="fill:#ffff00" />
        <path
           id="path3417"
           d="m 561.03125,-0.5625 c 2.19179,6.28571 3.64113,13.38858 1.59375,19.875 -3.36928,6.95428 -11.54202,8.89 -17.71875,12.5625 -7.48568,3.83003 -14.80598,9.47011 -16.91327,18.03013 -1.61771,5.22018 -1.73758,10.81934 -0.86798,16.18862 l 36.5,6.96875 c -2.80815,-7.05556 -5.64561,-14.82308 -4.0756,-22.48345 2.82493,-5.98995 9.92413,-8.61675 12.54264,-14.86237 4.18761,-7.71181 3.95153,-17.69089 -1.17454,-24.91667 C 568.10866,6.141 564.50688,2.20139 560.65625,-1.5625 l 0.375,1 z"
           inkscape:connector-curvature="0"
           style="fill:url(#linearGradient3620)" />
      </g>
      <g
         id="g3419"
         transform="matrix(-0.5,-0.86603,0.86603,-0.5,661.88501,684.80248)">
        <path
           id="path3421"
           d="m 526.19663,66.95067 c 0,0 -4.23264,-19.76476 9.30865,-30.29687 13.54129,-10.53211 27.08259,-10.53212 27.08259,-22.56883 0,-12.03671 -5.35714,-20.25099 -5.35714,-20.25099 0,0 19.18368,15.65688 18.89843,29.27852 -0.43315,20.68415 -15.55278,21.6469 -16.04129,29.73462 -0.56226,9.30866 5.30407,21.62649 5.30407,21.62649 z"
           inkscape:connector-curvature="0"
           style="filter:url(#filter7434)" />
        <path
           id="path3423"
           d="m 526.19663,66.95067 c 0,0 -4.23264,-19.76476 9.30865,-30.29687 13.54129,-10.53211 27.08259,-10.53212 27.08259,-22.56883 0,-12.03671 -5.35714,-20.25099 -5.35714,-20.25099 0,0 19.18368,15.65688 18.89843,29.27852 -0.43315,20.68415 -15.55278,21.6469 -16.04129,29.73462 -0.56226,9.30866 5.30407,21.62649 5.30407,21.62649 z"
           inkscape:connector-curvature="0"
           style="fill:#ffff00" />
        <path
           id="path3425"
           d="m 561.03125,-0.5625 c 2.19179,6.28571 3.64113,13.38858 1.59375,19.875 -3.36928,6.95428 -11.54202,8.89 -17.71875,12.5625 -7.48568,3.83003 -14.80598,9.47011 -16.91327,18.03013 -1.61771,5.22018 -1.73758,10.81934 -0.86798,16.18862 l 36.5,6.96875 c -2.80815,-7.05556 -5.64561,-14.82308 -4.0756,-22.48345 2.82493,-5.98995 9.92413,-8.61675 12.54264,-14.86237 4.18761,-7.71181 3.95153,-17.69089 -1.17454,-24.91667 C 568.10866,6.141 564.50688,2.20139 560.65625,-1.5625 l 0.375,1 z"
           inkscape:connector-curvature="0"
           style="fill:url(#linearGradient3622)" />
      </g>
      <g
         id="g3427"
         transform="matrix(0,1,-1,0,679.95944,-377.29646)">
        <path
           id="path3429"
           d="m 526.19663,66.95067 c 0,0 -4.23264,-19.76476 9.30865,-30.29687 13.54129,-10.53211 27.08259,-10.53212 27.08259,-22.56883 0,-12.03671 -5.35714,-20.25099 -5.35714,-20.25099 0,0 19.18368,15.65688 18.89843,29.27852 -0.43315,20.68415 -15.55278,21.6469 -16.04129,29.73462 -0.56226,9.30866 5.30407,21.62649 5.30407,21.62649 z"
           inkscape:connector-curvature="0"
           style="filter:url(#filter7434)" />
        <path
           id="path3431"
           d="m 526.19663,66.95067 c 0,0 -4.23264,-19.76476 9.30865,-30.29687 13.54129,-10.53211 27.08259,-10.53212 27.08259,-22.56883 0,-12.03671 -5.35714,-20.25099 -5.35714,-20.25099 0,0 19.18368,15.65688 18.89843,29.27852 -0.43315,20.68415 -15.55278,21.6469 -16.04129,29.73462 -0.56226,9.30866 5.30407,21.62649 5.30407,21.62649 z"
           inkscape:connector-curvature="0"
           style="fill:#ffff00" />
        <path
           id="path3433"
           d="m 561.03125,-0.5625 c 2.19179,6.28571 3.64113,13.38858 1.59375,19.875 -3.36928,6.95428 -11.54202,8.89 -17.71875,12.5625 -7.48568,3.83003 -14.80598,9.47011 -16.91327,18.03013 -1.61771,5.22018 -1.73758,10.81934 -0.86798,16.18862 l 36.5,6.96875 c -2.80815,-7.05556 -5.64561,-14.82308 -4.0756,-22.48345 2.82493,-5.98995 9.92413,-8.61675 12.54264,-14.86237 4.18761,-7.71181 3.95153,-17.69089 -1.17454,-24.91667 C 568.10866,6.141 564.50688,2.20139 560.65625,-1.5625 l 0.375,1 z"
           inkscape:connector-curvature="0"
           style="fill:url(#linearGradient3624)" />
      </g>
      <g
         id="g3435"
         transform="matrix(0,-1,1,0,377.29646,679.95945)">
        <path
           id="path3437"
           d="m 526.19663,66.95067 c 0,0 -4.23264,-19.76476 9.30865,-30.29687 13.54129,-10.53211 27.08259,-10.53212 27.08259,-22.56883 0,-12.03671 -5.35714,-20.25099 -5.35714,-20.25099 0,0 19.18368,15.65688 18.89843,29.27852 -0.43315,20.68415 -15.55278,21.6469 -16.04129,29.73462 -0.56226,9.30866 5.30407,21.62649 5.30407,21.62649 z"
           inkscape:connector-curvature="0"
           style="filter:url(#filter7434)" />
        <path
           id="path3439"
           d="m 526.19663,66.95067 c 0,0 -4.23264,-19.76476 9.30865,-30.29687 13.54129,-10.53211 27.08259,-10.53212 27.08259,-22.56883 0,-12.03671 -5.35714,-20.25099 -5.35714,-20.25099 0,0 19.18368,15.65688 18.89843,29.27852 -0.43315,20.68415 -15.55278,21.6469 -16.04129,29.73462 -0.56226,9.30866 5.30407,21.62649 5.30407,21.62649 z"
           inkscape:connector-curvature="0"
           style="fill:#ffff00" />
        <path
           id="path3441"
           d="m 561.03125,-0.5625 c 2.19179,6.28571 3.64113,13.38858 1.59375,19.875 -3.36928,6.95428 -11.54202,8.89 -17.71875,12.5625 -7.48568,3.83003 -14.80598,9.47011 -16.91327,18.03013 -1.61771,5.22018 -1.73758,10.81934 -0.86798,16.18862 l 36.5,6.96875 c -2.80815,-7.05556 -5.64561,-14.82308 -4.0756,-22.48345 2.82493,-5.98995 9.92413,-8.61675 12.54264,-14.86237 4.18761,-7.71181 3.95153,-17.69089 -1.17454,-24.91667 C 568.10866,6.141 564.50688,2.20139 560.65625,-1.5625 l 0.375,1 z"
           inkscape:connector-curvature="0"
           style="fill:url(#linearGradient3626)" />
      </g>
      <g
         id="g3443"
         transform="matrix(-0.5,0.86603,-0.86603,-0.5,923.99884,-230.808)">
        <path
           id="path3445"
           d="m 526.19663,66.95067 c 0,0 -4.23264,-19.76476 9.30865,-30.29687 13.54129,-10.53211 27.08259,-10.53212 27.08259,-22.56883 0,-12.03671 -5.35714,-20.25099 -5.35714,-20.25099 0,0 19.18368,15.65688 18.89843,29.27852 -0.43315,20.68415 -15.55278,21.6469 -16.04129,29.73462 -0.56226,9.30866 5.30407,21.62649 5.30407,21.62649 z"
           inkscape:connector-curvature="0"
           style="filter:url(#filter7434)" />
        <path
           id="path3447"
           d="m 526.19663,66.95067 c 0,0 -4.23264,-19.76476 9.30865,-30.29687 13.54129,-10.53211 27.08259,-10.53212 27.08259,-22.56883 0,-12.03671 -5.35714,-20.25099 -5.35714,-20.25099 0,0 19.18368,15.65688 18.89843,29.27852 -0.43315,20.68415 -15.55278,21.6469 -16.04129,29.73462 -0.56226,9.30866 5.30407,21.62649 5.30407,21.62649 z"
           inkscape:connector-curvature="0"
           style="fill:#ffff00" />
        <path
           id="path3449"
           d="m 561.03125,-0.5625 c 2.19179,6.28571 3.64113,13.38858 1.59375,19.875 -3.36928,6.95428 -11.54202,8.89 -17.71875,12.5625 -7.48568,3.83003 -14.80598,9.47011 -16.91327,18.03013 -1.61771,5.22018 -1.73758,10.81934 -0.86798,16.18862 l 36.5,6.96875 c -2.80815,-7.05556 -5.64561,-14.82308 -4.0756,-22.48345 2.82493,-5.98995 9.92413,-8.61675 12.54264,-14.86237 4.18761,-7.71181 3.95153,-17.69089 -1.17454,-24.91667 C 568.10866,6.141 564.50688,2.20139 560.65625,-1.5625 l 0.375,1 z"
           inkscape:connector-curvature="0"
           style="fill:url(#linearGradient3628)" />
      </g>
      <g
         id="g3451"
         transform="matrix(0.5,-0.86603,0.86603,0.5,133.25706,533.47099)">
        <path
           id="path3453"
           d="m 526.19663,66.95067 c 0,0 -4.23264,-19.76476 9.30865,-30.29687 13.54129,-10.53211 27.08259,-10.53212 27.08259,-22.56883 0,-12.03671 -5.35714,-20.25099 -5.35714,-20.25099 0,0 19.18368,15.65688 18.89843,29.27852 -0.43315,20.68415 -15.55278,21.6469 -16.04129,29.73462 -0.56226,9.30866 5.30407,21.62649 5.30407,21.62649 z"
           inkscape:connector-curvature="0"
           style="filter:url(#filter7434)" />
        <path
           id="path3455"
           d="m 526.19663,66.95067 c 0,0 -4.23264,-19.76476 9.30865,-30.29687 13.54129,-10.53211 27.08259,-10.53212 27.08259,-22.56883 0,-12.03671 -5.35714,-20.25099 -5.35714,-20.25099 0,0 19.18368,15.65688 18.89843,29.27852 -0.43315,20.68415 -15.55278,21.6469 -16.04129,29.73462 -0.56226,9.30866 5.30407,21.62649 5.30407,21.62649 z"
           inkscape:connector-curvature="0"
           style="fill:#ffff00" />
        <path
           id="path3457"
           d="m 561.03125,-0.5625 c 2.19179,6.28571 3.64113,13.38858 1.59375,19.875 -3.36928,6.95428 -11.54202,8.89 -17.71875,12.5625 -7.48568,3.83003 -14.80598,9.47011 -16.91327,18.03013 -1.61771,5.22018 -1.73758,10.81934 -0.86798,16.18862 l 36.5,6.96875 c -2.80815,-7.05556 -5.64561,-14.82308 -4.0756,-22.48345 2.82493,-5.98995 9.92413,-8.61675 12.54264,-14.86237 4.18761,-7.71181 3.95153,-17.69089 -1.17454,-24.91667 C 568.10866,6.141 564.50688,2.20139 560.65625,-1.5625 l 0.375,1 z"
           inkscape:connector-curvature="0"
           style="fill:url(#linearGradient3630)" />
      </g>
      <g
         id="g3459"
         transform="matrix(-0.86603,0.5,-0.5,-0.86603,1062.0989,18.07443)">
        <path
           id="path3461"
           d="m 526.19663,66.95067 c 0,0 -4.23264,-19.76476 9.30865,-30.29687 13.54129,-10.53211 27.08259,-10.53212 27.08259,-22.56883 0,-12.03671 -5.35714,-20.25099 -5.35714,-20.25099 0,0 19.18368,15.65688 18.89843,29.27852 -0.43315,20.68415 -15.55278,21.6469 -16.04129,29.73462 -0.56226,9.30866 5.30407,21.62649 5.30407,21.62649 z"
           inkscape:connector-curvature="0"
           style="filter:url(#filter7434)" />
        <path
           id="path3463"
           d="m 526.19663,66.95067 c 0,0 -4.23264,-19.76476 9.30865,-30.29687 13.54129,-10.53211 27.08259,-10.53212 27.08259,-22.56883 0,-12.03671 -5.35714,-20.25099 -5.35714,-20.25099 0,0 19.18368,15.65688 18.89843,29.27852 -0.43315,20.68415 -15.55278,21.6469 -16.04129,29.73462 -0.56226,9.30866 5.30407,21.62649 5.30407,21.62649 z"
           inkscape:connector-curvature="0"
           style="fill:#ffff00" />
        <path
           id="path3465"
           d="m 561.03125,-0.5625 c 2.19179,6.28571 3.64113,13.38858 1.59375,19.875 -3.36928,6.95428 -11.54202,8.89 -17.71875,12.5625 -7.48568,3.83003 -14.80598,9.47011 -16.91327,18.03013 -1.61771,5.22018 -1.73758,10.81934 -0.86798,16.18862 l 36.5,6.96875 c -2.80815,-7.05556 -5.64561,-14.82308 -4.0756,-22.48345 2.82493,-5.98995 9.92413,-8.61675 12.54264,-14.86237 4.18761,-7.71181 3.95153,-17.69089 -1.17454,-24.91667 C 568.10866,6.141 564.50688,2.20139 560.65625,-1.5625 l 0.375,1 z"
           inkscape:connector-curvature="0"
           style="fill:url(#linearGradient3632)" />
      </g>
      <g
         id="g3467"
         transform="matrix(0.86603,-0.5,0.5,0.86603,-4.84303,284.58856)">
        <path
           id="path3469"
           d="m 526.19663,66.95067 c 0,0 -4.23264,-19.76476 9.30865,-30.29687 13.54129,-10.53211 27.08259,-10.53212 27.08259,-22.56883 0,-12.03671 -5.35714,-20.25099 -5.35714,-20.25099 0,0 19.18368,15.65688 18.89843,29.27852 -0.43315,20.68415 -15.55278,21.6469 -16.04129,29.73462 -0.56226,9.30866 5.30407,21.62649 5.30407,21.62649 z"
           inkscape:connector-curvature="0"
           style="filter:url(#filter7434)" />
        <path
           id="path3471"
           d="m 526.19663,66.95067 c 0,0 -4.23264,-19.76476 9.30865,-30.29687 13.54129,-10.53211 27.08259,-10.53212 27.08259,-22.56883 0,-12.03671 -5.35714,-20.25099 -5.35714,-20.25099 0,0 19.18368,15.65688 18.89843,29.27852 -0.43315,20.68415 -15.55278,21.6469 -16.04129,29.73462 -0.56226,9.30866 5.30407,21.62649 5.30407,21.62649 z"
           inkscape:connector-curvature="0"
           style="fill:#ffff00" />
        <path
           id="path3473"
           d="m 561.03125,-0.5625 c 2.19179,6.28571 3.64113,13.38858 1.59375,19.875 -3.36928,6.95428 -11.54202,8.89 -17.71875,12.5625 -7.48568,3.83003 -14.80598,9.47011 -16.91327,18.03013 -1.61771,5.22018 -1.73758,10.81934 -0.86798,16.18862 l 36.5,6.96875 c -2.80815,-7.05556 -5.64561,-14.82308 -4.0756,-22.48345 2.82493,-5.98995 9.92413,-8.61675 12.54264,-14.86237 4.18761,-7.71181 3.95153,-17.69089 -1.17454,-24.91667 C 568.10866,6.141 564.50688,2.20139 560.65625,-1.5625 l 0.375,1 z"
           inkscape:connector-curvature="0"
           style="fill:url(#linearGradient3634)" />
      </g>
      <path
         id="path3475"
         transform="matrix(0.95251,0,0,0.95251,30.44001,6.49926)"
         d="m 616.19302,152.82133 a 93.94418,90.40865 0 1 1 -187.88836,0 93.94418,90.40865 0 1 1 187.88836,0 z"
         inkscape:connector-curvature="0"
         style="fill:#d45500" />
      <path
         id="path3477"
         d="m 525.65625,70.90625 c -35.38581,0.4672 -69.25348,24.92992 -79.1875,59.0625 -9.35413,31.74322 3.44483,68.724 31.00807,87.21413 27.65086,19.94072 67.91501,21.6253 96.64818,2.78587 22.96092,-14.38021 38.85953,-40.6624 38.25,-68.25 C 612.3545,123.05499 595.65759,95.48193 570.52322,82.10318 557.00233,74.44824 541.29711,70.49436 525.65625,70.90625 Z"
         inkscape:connector-curvature="0"
         style="fill:url(#radialGradient3636);filter:url(#filter7619)" />
      <path
         id="path3479"
         transform="matrix(0.95251,0,0,0.95251,30.09189,4.30353)"
         d="m 616.19302,152.82133 a 93.94418,90.40865 0 1 1 -187.88836,0 93.94418,90.40865 0 1 1 187.88836,0 z"
         inkscape:connector-curvature="0"
         style="fill:#d45500" />
      <path
         id="path3481"
         d="m 525.65625,70.90625 c -35.38581,0.4672 -69.25348,24.92992 -79.1875,59.0625 -9.35413,31.74322 3.44483,68.724 31.00807,87.21413 27.65086,19.94072 67.91501,21.6253 96.64818,2.78587 22.96092,-14.38021 38.85953,-40.6624 38.25,-68.25 C 612.3545,123.05499 595.65759,95.48193 570.52322,82.10318 557.00233,74.44824 541.29711,70.49436 525.65625,70.90625 Z"
         inkscape:connector-curvature="0"
         style="fill:url(#radialGradient9819);filter:url(#filter7619)" />
      <path
         id="path3483"
         d="m 471.74124,102.31371 53.03301,22.22336 c -7.89688,15.5593 -26.22747,37.51805 -41.92133,29.7995 -17.68313,-3.92849 -19.92994,-30.41328 -11.11168,-52.02286 z"
         inkscape:connector-curvature="0"
         style="fill:#ffffff;stroke:#000000" />
      <path
         id="path3485"
         d="m 535.87077,126.32587 57.14598,6.38076 c -3.19305,17.15392 -14.59405,43.38776 -31.82683,40.40372 -18.07359,1.21296 -27.69157,-23.5658 -25.31915,-46.78448 z"
         inkscape:connector-curvature="0"
         style="fill:#ffffff;stroke:#000000" />
      <path
         id="path3487"
         d="m 524.52171,124.53707 3.90931,0.24116 4.34654,0.71166 3.13769,0.87359 -0.3125,3.3876 c -4.1199,0.0183 -8.18802,-0.26116 -11.83865,-2.94117 z"
         inkscape:connector-curvature="0"
         style="stroke:#000000" />
      <path
         id="path3489"
         d="m 474.32162,106.883 45.23063,18.9538 c -6.73507,13.27017 -22.36881,31.99828 -35.75374,25.4153 -15.08153,-3.35051 -16.99779,-25.93878 -9.47689,-44.3691 z"
         inkscape:connector-curvature="0"
         style="stroke:#000000;stroke-width:0.85288" />
      <path
         id="path3491"
         d="m 539.85133,130.00335 48.85789,5.45534 c -2.72995,14.66603 -12.47742,37.09508 -27.21086,34.54383 -15.45232,1.03704 -23.67536,-20.14797 -21.64703,-39.99917 z"
         inkscape:connector-curvature="0"
         style="stroke:#000000;stroke-width:0.85496998" />
      <path
         id="path3493"
         d="m 593.21429,132.36218 21.42857,-1.42857 1.78571,7.14286 -25.35714,2.85714 z"
         inkscape:connector-curvature="0" />
      <path
         id="path3495"
         d="m 471.42857,102.36218 -7.5,-10.71429 -4.64285,4.64286 9.64285,13.92857 z"
         inkscape:connector-curvature="0" />
      <path
         id="path3497"
         d="m 539.85133,130.00335 48.85789,5.45534 c -2.72995,14.66603 -12.47742,37.09508 -27.21086,34.54383 -15.45232,1.03704 -23.67536,-20.14797 -21.64703,-39.99917 z"
         inkscape:connector-curvature="0"
         style="fill:url(#linearGradient9823);stroke:#000000;stroke-width:0.85496998" />
      <path
         id="path3499"
         d="m 474.32162,106.883 45.23063,18.9538 c -6.73507,13.27017 -22.36881,31.99828 -35.75374,25.4153 -15.08153,-3.35051 -16.99779,-25.93878 -9.47689,-44.3691 z"
         inkscape:connector-curvature="0"
         style="fill:url(#linearGradient9825);stroke:#000000;stroke-width:0.85288" />
      <path
         id="path3501"
         d="m 481.09679,187.74469 c 0,0 9.36484,18.72968 22.94385,22.94386 13.57901,4.21418 23.88035,1.87297 31.37222,-0.93649 7.49187,-2.80946 13.57901,-9.36484 13.57901,-9.36484"
         inkscape:connector-curvature="0"
         style="fill:none;stroke:#000000;stroke-width:2;stroke-linecap:round" />
      <path
         id="path3503"
         d="m 485.35169,185.18003 c 0,0 -2.47046,-0.4569 -4.24986,0.62084 -1.7794,1.07774 -2.69414,2.3154 -3.27244,3.29946 -0.5783,0.98406 -0.71245,2.10768 -0.71245,2.10768"
         inkscape:connector-curvature="0"
         style="fill:none;stroke:#000000;stroke-width:0.94958001;stroke-linecap:round" />
      <path
         id="path3505"
         d="m 552.23309,204.5262 c 0,0 0.30423,-2.31531 -0.86755,-3.91711 -1.17178,-1.6018 -2.45005,-2.39324 -3.45751,-2.88416 -1.00746,-0.49092 -2.12636,-0.56288 -2.12636,-0.56288"
         inkscape:connector-curvature="0"
         style="fill:none;stroke:#000000;stroke-width:0.91122001;stroke-linecap:round" />
      <path
         id="path3507"
         transform="matrix(1,0,0,1.10815,-1.01015,-19.4369)"
         d="m 524.13749,148.77452 c 0.46039,3.38485 -1.88466,6.31422 -4.38957,8.27943 -2.07871,1.64225 -4.25599,3.28328 -6.87522,3.93247 -3.46466,1.02042 -7.2151,1.42952 -10.26552,3.52015 -2.68921,1.50772 -6.25859,2.12833 -7.8499,5.05229 -0.94061,1.97212 -0.11419,4.23381 0.69034,6.11162 1.36471,2.85999 3.54911,5.20018 5.59702,7.57761 4.58555,3.32335 10.78595,2.9987 15.88448,1.14065 1.9369,-0.73437 3.99967,-1.46025 5.3153,-3.15361 1.77391,-1.94412 3.58222,-4.66267 2.54966,-7.386 -0.72577,-1.39687 -14.46387,2.40644 -14.78014,0.78702 -1.37999,-4.61188 12.74628,-14.28615 14.2479,-18.65018 0.39983,-2.26998 0.88203,-4.73837 0.0337,-6.95892 l -0.15807,-0.25253 z"
         inkscape:connector-curvature="0"
         style="fill:#dc7300;filter:url(#filter7785)" />
      <path
         id="path3509"
         d="m 526.28947,138.8498 c 0,0 -4.41942,20.17252 -14.14214,19.44661 -11.34289,-0.84687 -22.22335,8.5079 -21.2132,14.58497 1.01015,6.07707 7.07107,15.80038 17.17259,15.80038 10.10152,0 18.18275,-9.72331 18.18275,-9.72331 l 0,-1.21542"
         inkscape:connector-curvature="0"
         style="fill:url(#linearGradient9827);stroke:#000000;stroke-width:1.09689999" />
      <path
         id="path3511"
         d="m 483.41379,97.19191 c 1.64768,0.01347 3.29545,0.0099 4.94318,0.0088 4.68734,0.0101 9.37603,-0.0047 14.06177,0.13293 0.80662,0.02369 2.3367,0.55395 3.1842,0.7507 1.49581,0.21469 2.81595,0.89115 4.03673,1.74716 0.90169,0.9518 2.00156,1.64229 2.93494,2.55942 0.92339,1.07844 1.89523,2.07905 2.6566,3.28889 0.65385,1.443 1.98846,2.15311 3.09565,3.1701 0.73307,0.65421 1.68153,0.83302 2.61419,1.01784 l -11.11885,1.45755 c -0.99011,-0.34457 -1.92275,-0.76017 -2.67732,-1.51669 -1.22626,-1.00379 -2.34297,-2.05291 -3.12013,-3.463 -0.79177,-1.08835 -1.72303,-2.05534 -2.65174,-3.02656 -0.94924,-0.81575 -1.94357,-1.58819 -2.93129,-2.35364 -1.22096,-0.68026 -2.49743,-1.16251 -3.88695,-1.38945 -0.54773,-0.12797 -1.45473,-0.34839 -2.00149,-0.44022 -0.36808,-0.06182 -1.48333,-0.13764 -1.11018,-0.14564 17.52084,-0.37588 11.76527,0.0068 7.97204,-0.03795 -1.61055,-9.9e-4 -3.22116,-0.005 -4.83166,0.0088 l -11.16969,-1.7691 z"
         inkscape:connector-curvature="0"
         style="fill:#ff7f2a" />
      <path
         id="path3513"
         d="m 541.27093,115.76334 c 1.76832,0.0759 3.52002,-0.0244 5.27376,-0.2425 5.49432,-0.61502 11.13984,-0.97912 16.617,-0.17303 0.26565,0.0388 0.54353,0.0276 0.79693,0.11624 0.84157,0.29432 2.34406,1.4877 3.22258,1.99565 1.53219,0.6475 3.14961,1.18308 4.78167,1.52869 1.78216,0.28435 3.58843,0.33626 5.38935,0.36249 3.89886,-0.005 9.53412,0.20479 -8.6502,-0.023 -0.3903,-0.005 0.97951,-0.0949 2.00344,-0.43145 1.07541,-0.29712 2.07866,-0.78318 3.12775,-1.15311 l 11.1559,1.44438 c -1.1031,0.25204 -2.07038,0.76457 -3.13928,1.10178 -0.44486,0.15586 -0.86307,0.38432 -1.31257,0.52627 -4.52145,1.42792 -9.52196,0.22842 -14.24927,0.25767 -1.81693,-0.0695 -3.64456,-0.17602 -5.41754,-0.60902 -1.65224,-0.48482 -3.33591,-0.95918 -4.82754,-1.84161 -1.26243,-0.75018 -2.41566,-1.63664 -3.95482,-1.6494 -4.15036,-0.32862 -1.57233,-0.10133 9.30046,-0.11443 0.33067,-4e-4 -0.66098,0.0221 -0.99126,0.0381 -0.9383,0.0455 -1.87639,0.11352 -2.80866,0.23094 -1.71493,0.22004 -3.41089,0.51393 -5.14801,0.40443 l -11.16969,-1.76911 z"
         inkscape:connector-curvature="0"
         style="fill:#ff7f2a" />
      <path
         id="path3515"
         d="m 528.59375,70.875 c -0.97751,-0.0082 -1.95995,0.0055 -2.9375,0.03125 -22.05678,0.29122 -43.52026,9.90715 -58.96875,25.375 3.95211,20.07757 15.37115,38.69703 32.5,50.1875 27.65086,19.94072 67.92308,21.62068 96.65625,2.78125 5.46572,-3.42313 10.52457,-7.5272 15.0625,-12.15625 -4.56336,-23.10492 -19.56151,-43.92121 -40.375,-55 C 557.85542,74.91724 543.25636,70.99803 528.59375,70.875 Z"
         inkscape:connector-curvature="0"
         style="fill:url(#linearGradient9829)" />
    </g>
  </g>
</svg>
